<svg width="435" height="1919" viewBox="0 0 435 1919" fill="none" xmlns="http://www.w3.org/2000/svg">
<path d="M143.027 1347.92C129.147 1349.8 113.342 1356.26 114.05 1361.51C114.759 1366.76 133.132 1369.9 145.593 1366.94C151.879 1366.09 156.401 1361.14 155.692 1355.89C154.984 1350.64 149.313 1347.08 143.027 1347.92Z" fill="#A89624"/>
<path d="M129.127 1386.72C119.546 1373.32 102.542 1366.28 97.9352 1371.22C99.0949 1376.42 108.113 1397.21 110.916 1400.34C117.607 1407.81 126.462 1412 131.069 1407.05C135.676 1402.11 134.708 1394.52 129.127 1386.72Z" fill="#A89624"/>
<path d="M102.545 1405.58C96.564 1390.29 85.9325 1373.66 81.5242 1375.38C77.116 1377.11 80.0822 1398.33 86.5816 1411.83C89.2904 1418.75 95.0599 1422.96 99.4681 1421.24C103.876 1419.51 105.254 1412.5 102.545 1405.58Z" fill="#A89624"/>
<path d="M54.7302 1336.88C60.9012 1352.09 72.8134 1368.16 78.5255 1365.84C84.2375 1363.53 82.3998 1341.78 75.4153 1328.49C72.6207 1321.6 65.7246 1317.9 60.0126 1320.21C54.3005 1322.53 51.9355 1329.99 54.7302 1336.88Z" fill="#A89624"/>
<path d="M80.0603 1409.26C73.4693 1396.06 61.0027 1385.76 57.3095 1388.35C57.9429 1392.76 63.7703 1411.6 65.7349 1414.84C70.4241 1422.58 76.8929 1428.35 80.586 1425.76C84.2792 1423.17 83.9002 1416.95 80.0603 1409.26Z" fill="#A89624"/>
<path d="M114.438 1331.64C112.563 1347.95 101.901 1362.72 96.0065 1360.91C94.6666 1355.91 92.8424 1333.63 93.7366 1329.53C95.8709 1319.74 101.196 1311.6 107.09 1313.41C112.984 1315.21 115.53 1322.14 114.438 1331.64Z" fill="#A89624"/>
<path d="M51.7116 1350.57C58.1643 1362.93 57.7053 1378.39 52.7009 1379.93C49.3757 1377.06 37.4746 1362.26 36.148 1358.95C32.9818 1351.04 32.8509 1342.79 37.8553 1341.25C42.8597 1339.71 47.9523 1343.37 51.7116 1350.57Z" fill="#A89624"/>
<path d="M112.48 1385.53C110.273 1382.16 107.844 1376.75 101.712 1372.61C98.3935 1370.37 94.0946 1368.71 92.3599 1368.15" stroke="#432918" stroke-width="3" stroke-linecap="round"/>
<path d="M131.744 1359.13C124.985 1359.36 106.107 1361.75 77.0456 1373.78C58.4848 1381.47 33.1294 1400.17 20.4184 1411.05" stroke="#432918" stroke-width="3" stroke-linecap="round"/>
<path d="M102.801 1337.99C102.935 1340.39 102.522 1346.03 101.409 1349.92C98.5138 1360.04 94.3201 1363.21 91.6713 1367.49" stroke="#432918" stroke-width="3" stroke-linecap="round"/>
<path d="M90.7625 1396.46C90.2806 1394.64 88.3245 1389.11 84.3561 1381.52C80.3877 1373.94 79.8413 1372.8 80.0641 1373.18" stroke="#432918" stroke-width="3" stroke-linecap="round"/>
<path d="M70.675 1343.03C71.1903 1343.69 72.7109 1346.19 74.6706 1350.97C76.6302 1355.75 78.782 1367.37 79.6129 1372.59" stroke="#432918" stroke-width="3" stroke-linecap="round"/>
<path d="M68.6135 1405.1C67.1542 1401.98 63.6512 1395.08 61.3135 1392.44C58.9758 1389.81 56.0979 1386.93 54.9511 1385.82" stroke="#432918" stroke-width="3" stroke-linecap="round"/>
<path d="M55.1529 1385.94C55.0849 1385.05 54.3609 1381.46 52.0093 1374.2C49.6576 1366.95 48.0315 1363.37 47.5124 1362.49" stroke="#432918" stroke-width="3" stroke-linecap="round"/>
<path d="M151.88 309.237C141.118 299.595 125.462 291.517 121.815 295.588C118.168 299.658 128.006 316.179 138.673 323.978C143.547 328.345 150.455 328.585 154.102 324.514C157.749 320.443 156.754 313.603 151.88 309.237Z" fill="#EE6A26"/>
<path d="M112.123 324.293C116.224 307.806 110.372 289.742 103.407 289.436C100.106 293.823 89.8222 314.819 89.2412 319.115C87.8544 329.369 90.4941 339.125 97.4591 339.431C104.424 339.738 109.734 333.898 112.123 324.293Z" fill="#EE6A26"/>
<path d="M79.5232 316.053C87.518 301.126 93.4621 281.643 89.1571 279.337C84.8522 277.032 70.1772 293.567 63.9335 307.704C60.3129 314.464 60.8676 321.813 65.1726 324.119C69.4775 326.424 75.9025 322.813 79.5232 316.053Z" fill="#EE6A26"/>
<path d="M101.442 232.533C93.6333 247.559 88.9936 267.666 94.6365 270.599C100.279 273.531 116.123 257.529 121.876 243.153C125.413 236.348 123.705 228.455 118.062 225.522C112.419 222.59 104.978 225.729 101.442 232.533Z" fill="#EE6A26"/>
<path d="M61.5855 300.864C67.534 286.856 67.2698 270.178 62.7647 269.013C59.7333 272.457 48.8401 289.647 47.6097 293.359C44.6731 302.222 44.4745 311.161 48.9796 312.327C53.4847 313.492 58.1201 309.026 61.5855 300.864Z" fill="#EE6A26"/>
<path d="M145.523 275.896C131.468 285.34 112.737 286.856 110.208 281.021C113.237 276.622 129.506 260.275 133.326 258.23C142.442 253.35 152.39 252.087 154.919 257.922C157.448 263.756 153.711 270.394 145.523 275.896Z" fill="#EE6A26"/>
<path d="M88.6777 239.326C83.2954 252.664 70.8481 262.657 66.2892 259.759C66.3222 255.223 69.9717 235.975 71.6828 232.717C75.7671 224.941 82.1597 219.313 86.7186 222.21C91.2775 225.108 91.8133 231.555 88.6777 239.326Z" fill="#EE6A26"/>
<path d="M101.913 310.431C103.084 306.44 105.704 300.911 104.845 293.33C104.38 289.228 102.812 284.736 102.087 283.003" stroke="#432918" stroke-width="3" stroke-linecap="round"/>
<path d="M135.534 307.879C130.823 302.732 116.315 289.509 87.4139 274.752C68.9555 265.328 37.3063 257.939 20.2562 255.245" stroke="#432918" stroke-width="3" stroke-linecap="round"/>
<path d="M132.748 271.013C130.954 272.724 126.251 276.175 122.453 277.905C112.569 282.408 107.279 281.233 102.148 282.017" stroke="#432918" stroke-width="3" stroke-linecap="round"/>
<path d="M78.7974 300.697C79.9014 299.103 82.9338 293.865 86.2315 285.672C89.5293 277.479 90.0544 276.291 89.9047 276.721" stroke="#432918" stroke-width="3" stroke-linecap="round"/>
<path d="M107.288 249.167C107.119 250.01 106.171 252.88 103.733 257.616C101.295 262.351 93.6107 271.822 90.0731 275.965" stroke="#432918" stroke-width="3" stroke-linecap="round"/>
<path d="M57.1858 289.097C58.6588 285.862 61.7308 278.493 62.2354 274.893C62.74 271.293 63.0717 267.109 63.1744 265.466" stroke="#432918" stroke-width="3" stroke-linecap="round"/>
<path d="M63.2192 265.702C63.8708 265.054 66.2041 262.083 70.3246 255.381C74.4451 248.678 76.1627 245.009 76.5064 244.012" stroke="#432918" stroke-width="3" stroke-linecap="round"/>
<path d="M291.189 1625.69C304.654 1621.84 319.36 1613.16 317.901 1608.06C316.442 1602.97 297.809 1602.52 285.906 1607.25C279.808 1609 276.047 1614.54 277.506 1619.64C278.965 1624.73 285.091 1627.44 291.189 1625.69Z" fill="#A89624"/>
<path d="M299.345 1585.3C310.759 1597.17 328.601 1601.69 332.446 1596.13C330.549 1591.16 318.624 1571.89 315.398 1569.2C307.699 1562.77 298.332 1559.9 294.487 1565.46C290.642 1571.02 292.695 1578.39 299.345 1585.3Z" fill="#A89624"/>
<path d="M322.925 1562.8C331.05 1577.06 343.972 1591.99 348.085 1589.65C352.198 1587.3 346.199 1566.73 337.82 1554.31C334.14 1547.85 327.823 1544.52 323.71 1546.86C319.597 1549.21 319.245 1556.34 322.925 1562.8Z" fill="#A89624"/>
<path d="M380.155 1623.87C371.854 1609.72 357.747 1595.53 352.429 1598.65C347.111 1601.77 352.069 1623.03 360.898 1635.17C364.658 1641.58 372.017 1644.25 377.334 1641.13C382.652 1638.01 383.915 1630.29 380.155 1623.87Z" fill="#A89624"/>
<path d="M344.644 1555.92C353.071 1568.02 366.893 1576.41 370.173 1573.32C368.911 1569.05 360.425 1551.24 358.012 1548.32C352.255 1541.34 345.021 1536.56 341.741 1539.66C338.46 1542.75 339.734 1548.86 344.644 1555.92Z" fill="#A89624"/>
<path d="M321.829 1637.68C321.331 1621.27 329.749 1605.12 335.842 1606.05C337.89 1610.81 342.911 1632.59 342.619 1636.78C341.921 1646.78 337.825 1655.6 331.732 1654.66C325.639 1653.73 322.12 1647.24 321.829 1637.68Z" fill="#A89624"/>
<path d="M381.167 1609.9C372.997 1598.6 371.219 1583.23 375.949 1580.98C379.655 1583.35 393.567 1596.27 395.358 1599.36C399.632 1606.72 400.953 1614.87 396.223 1617.12C391.493 1619.36 385.926 1616.48 381.167 1609.9Z" fill="#A89624"/>
<path d="M315.988 1584.07C318.659 1587.09 321.844 1592.1 328.508 1595.3C332.115 1597.04 336.61 1598.07 338.406 1598.37" stroke="#432918" stroke-width="3" stroke-linecap="round"/>
<path d="M300.737 1612.98C307.391 1611.77 325.727 1606.69 352.747 1590.58C370.004 1580.3 392.395 1558.14 403.403 1545.53" stroke="#432918" stroke-width="3" stroke-linecap="round"/>
<path d="M332.427 1629.71C331.949 1627.36 331.544 1621.72 332.083 1617.71C333.487 1607.28 337.18 1603.54 339.184 1598.93" stroke="#432918" stroke-width="3" stroke-linecap="round"/>
<path d="M335.901 1570.13C336.641 1571.85 339.375 1577.05 344.396 1583.98C349.418 1590.91 350.122 1591.96 349.847 1591.61" stroke="#432918" stroke-width="3" stroke-linecap="round"/>
<path d="M363.49 1620.09C362.885 1619.52 361.019 1617.26 358.391 1612.81C355.762 1608.37 351.955 1597.18 350.38 1592.14" stroke="#432918" stroke-width="3" stroke-linecap="round"/>
<path d="M356.571 1558.38C358.465 1561.25 362.927 1567.58 365.621 1569.85C368.315 1572.12 371.578 1574.55 372.873 1575.48" stroke="#432918" stroke-width="3" stroke-linecap="round"/>
<path d="M372.657 1575.4C372.852 1576.27 374.087 1579.71 377.461 1586.55C380.835 1593.39 382.96 1596.69 383.601 1597.49" stroke="#432918" stroke-width="3" stroke-linecap="round"/>
<path d="M228.773 636.646C241.956 638.425 256.966 644.566 256.293 649.553C255.62 654.539 238.171 657.516 226.336 654.703C220.366 653.897 216.072 649.202 216.745 644.215C217.418 639.229 222.803 635.84 228.773 636.646Z" fill="#A89624"/>
<path d="M241.975 673.488C251.074 660.767 267.222 654.077 271.597 658.772C270.496 663.705 261.931 683.45 259.269 686.423C252.915 693.52 244.505 697.497 240.129 692.802C235.754 688.107 236.674 680.899 241.975 673.488Z" fill="#A89624"/>
<path d="M267.219 691.402C272.899 676.886 282.996 661.084 287.183 662.723C291.369 664.361 288.552 684.517 282.38 697.335C279.807 703.909 274.328 707.91 270.141 706.272C265.955 704.634 264.646 697.976 267.219 691.402Z" fill="#A89624"/>
<path d="M312.629 626.161C306.769 640.605 295.456 655.866 290.031 653.665C284.606 651.464 286.351 630.807 292.985 618.19C295.639 611.649 302.188 608.13 307.613 610.331C313.037 612.532 315.283 619.619 312.629 626.161Z" fill="#A89624"/>
<path d="M288.573 694.893C294.833 682.359 306.672 672.582 310.18 675.042C309.578 679.222 304.044 697.121 302.178 700.2C297.725 707.551 291.581 713.03 288.074 710.57C284.566 708.111 284.926 702.196 288.573 694.893Z" fill="#A89624"/>
<path d="M255.925 621.184C257.705 636.67 267.831 650.696 273.429 648.982C274.702 644.233 276.434 623.072 275.585 619.175C273.558 609.875 268.501 602.152 262.903 603.866C257.305 605.58 254.888 612.162 255.925 621.184Z" fill="#A89624"/>
<path d="M315.496 639.159C309.368 650.897 309.804 665.584 314.556 667.047C317.714 664.314 329.017 650.26 330.277 647.116C333.284 639.61 333.408 631.77 328.655 630.308C323.903 628.845 319.066 632.321 315.496 639.159Z" fill="#A89624"/>
<path d="M257.784 672.36C259.879 669.156 262.187 664.019 268.01 660.092C271.162 657.967 275.245 656.382 276.892 655.855" stroke="#432918" stroke-width="3" stroke-linecap="round"/>
<path d="M239.489 647.286C245.908 647.512 263.836 649.775 291.436 661.205C309.063 668.505 333.143 686.261 345.215 696.595" stroke="#432918" stroke-width="3" stroke-linecap="round"/>
<path d="M266.976 627.216C266.849 629.495 267.241 634.851 268.298 638.544C271.048 648.157 275.031 651.161 277.546 655.224" stroke="#432918" stroke-width="3" stroke-linecap="round"/>
<path d="M278.409 682.737C278.867 681.011 280.725 675.758 284.493 668.555C288.262 661.351 288.781 660.273 288.57 660.635" stroke="#432918" stroke-width="3" stroke-linecap="round"/>
<path d="M297.486 632.001C296.997 632.623 295.553 635.001 293.692 639.538C291.831 644.074 289.787 655.114 288.998 660.067" stroke="#432918" stroke-width="3" stroke-linecap="round"/>
<path d="M299.444 690.946C300.83 687.982 304.157 681.429 306.377 678.925C308.597 676.421 311.33 673.689 312.419 672.636" stroke="#432918" stroke-width="3" stroke-linecap="round"/>
<path d="M312.228 672.747C312.292 671.903 312.98 668.494 315.213 661.605C317.447 654.715 318.991 651.32 319.484 650.484" stroke="#432918" stroke-width="3" stroke-linecap="round"/>
<path d="M182.161 919.274C177.552 911.916 173.546 898.7 172.119 893.012C179.061 886.288 194.939 871.722 202.911 867.247C210.884 862.771 221.271 862.914 225.468 863.545L222.678 871.758C227.302 871.053 235.03 868.278 243.308 869.696C249.839 870.815 262.874 875.798 265.285 880.474L260.183 886.026C261.816 887.71 269.649 888.388 279.603 898.069C286.933 905.198 292.12 914.538 293.174 916.328C291.965 917.541 279.525 925.441 268.775 930.288C257.984 935.155 244.343 935.289 243.471 935.519L245.508 941.893C243.553 942.268 237.924 942.993 231.048 942.891C222.452 942.764 216.518 941.088 211.688 938.837C207.824 937.037 203.62 932.647 202.002 930.676L195.916 936.092C193.251 933.552 186.77 926.632 182.161 919.274Z" fill="#D47F41"/>
<path d="M270.742 912.776C260.804 913.58 237.438 912.739 221.807 909.287C196.289 903.652 172.652 893.128 157.635 887.999" stroke="#432918" stroke-width="3" stroke-linecap="round"/>
<path d="M427.727 41.1765C426.206 32.7397 420.353 20.4248 417.617 15.322C408.079 15.0221 386.806 14.929 378.009 16.9558C369.211 18.9827 361.719 25.9868 359.073 29.2355L366.566 33.3815C362.72 35.9387 355.232 39.0442 350.127 45.5789C346.099 50.735 339.888 63.0343 341.233 68.0515L348.647 68.7176C348.573 71.033 343.301 76.7314 342.461 90.4152C341.842 100.492 344.258 110.76 344.677 112.768C346.366 112.851 360.701 110.358 371.773 106.758C382.889 103.144 392.942 94.1817 393.732 93.7707L396.478 99.7791C398.155 98.7547 402.749 95.5454 407.704 90.9032C413.898 85.1005 417.12 79.9336 419.153 75.0813C420.78 71.1995 420.934 65.2001 420.808 62.6857L428.851 62.5991C429.11 58.9736 429.248 49.6132 427.727 41.1765Z" fill="#A89624"/>
<path d="M358.703 95.2716C366.496 89.2568 383.006 73.1212 392.131 60.2162C407.028 39.1496 417.304 15.7603 424.867 2.0379" stroke="#432918" stroke-width="3" stroke-linecap="round"/>
<path d="M184.338 1805.84C180.953 1808.55 175.312 1815.15 172.915 1818.11C169.107 1816.42 159.545 1813.04 151.761 1813.04C143.976 1813.04 138.927 1817.55 137.376 1819.8L153.876 1830.8C147.953 1833.63 134.668 1840.62 128.915 1846.04C123.161 1851.45 120.312 1862.11 119.607 1866.77L130.184 1866.77C134.245 1866.77 141.466 1865.36 144.568 1864.65L144.568 1871.42C146.825 1870.43 152.268 1867.87 155.992 1865.5C159.715 1863.13 165.44 1858.87 167.838 1857.04L170.799 1899.77L180.107 1893.42L190.684 1918.8C192.517 1915.56 196.692 1907.21 198.722 1899.77C200.753 1892.32 201.825 1884.25 202.107 1881.15L210.568 1881.15C209.722 1877.2 207.438 1868.12 205.068 1863.38C202.699 1858.64 196.184 1853.23 193.222 1851.11C195.761 1851.54 201.684 1852.55 205.068 1853.23C208.453 1853.9 214.658 1857.46 217.338 1859.15L217.338 1852.38L240.607 1849.42C238.351 1843.92 231.807 1831.99 223.684 1828.27C215.561 1824.54 205.915 1823.33 202.107 1823.19C203.094 1821.5 205.322 1817.1 206.338 1813.04C207.353 1808.97 207.889 1802.32 208.03 1799.5C201.543 1800.48 187.722 1803.14 184.338 1805.84Z" fill="#D47F41"/>
<path d="M184.761 1865.07C184.338 1859.86 182.138 1845.44 176.722 1829.54C171.307 1813.63 166.004 1800.63 164.03 1796.11" stroke="#603813" stroke-width="3" stroke-linecap="round"/>
<path d="M178.838 1834.19C164.961 1843.67 150.491 1849.98 144.991 1851.96" stroke="#603813" stroke-width="3" stroke-linecap="round"/>
<path d="M177.992 1833.77C192.884 1838.17 203.94 1838.7 207.607 1838.42" stroke="#603813" stroke-width="3" stroke-linecap="round"/>
<path d="M177.991 1833.34L162.761 1826.57" stroke="#603813" stroke-width="3" stroke-linecap="round"/>
<path d="M178.838 1834.19C187.299 1828.77 190.543 1824.32 191.107 1822.77" stroke="#603813" stroke-width="3" stroke-linecap="round"/>
</svg>
