<svg width="435" height="1919" viewBox="0 0 435 1919" fill="none" xmlns="http://www.w3.org/2000/svg">
<path d="M291.58 570.881C305.46 569.008 321.265 562.541 320.557 557.291C319.848 552.04 301.475 548.905 289.014 551.868C282.728 552.716 278.206 557.66 278.915 562.911C279.623 568.161 285.294 571.729 291.58 570.881Z" fill="#A89624"/>
<path d="M305.48 532.087C315.061 545.482 332.065 552.527 336.672 547.582C335.512 542.388 326.494 521.597 323.691 518.467C317 510.995 308.145 506.806 303.538 511.75C298.93 516.694 299.899 524.284 305.48 532.087Z" fill="#A89624"/>
<path d="M332.062 513.225C338.043 528.51 348.674 545.149 353.083 543.424C357.491 541.699 354.525 520.474 348.025 506.978C345.317 500.056 339.547 495.843 335.139 497.568C330.731 499.293 329.353 506.303 332.062 513.225Z" fill="#A89624"/>
<path d="M379.877 581.922C373.706 566.712 361.793 550.643 356.081 552.961C350.369 555.278 352.207 577.029 359.192 590.314C361.986 597.202 368.882 600.907 374.594 598.59C380.306 596.272 382.671 588.81 379.877 581.922Z" fill="#A89624"/>
<path d="M354.547 509.548C361.138 522.747 373.604 533.041 377.297 530.451C376.664 526.049 370.837 507.203 368.872 503.961C364.183 496.221 357.714 490.452 354.021 493.041C350.328 495.631 350.707 501.859 354.547 509.548Z" fill="#A89624"/>
<path d="M320.169 587.161C322.044 570.855 332.706 556.086 338.6 557.891C339.94 562.891 341.765 585.173 340.87 589.276C338.736 599.069 333.411 607.201 327.517 605.396C321.622 603.592 319.077 596.661 320.169 587.161Z" fill="#A89624"/>
<path d="M382.895 568.235C376.443 555.876 376.902 540.411 381.906 538.87C385.231 541.748 397.132 556.546 398.459 559.857C401.625 567.76 401.756 576.015 396.752 577.555C391.747 579.095 386.655 575.435 382.895 568.235Z" fill="#A89624"/>
<path d="M322.127 533.274C324.333 536.648 326.763 542.058 332.895 546.192C336.213 548.43 340.512 550.099 342.247 550.654" stroke="#432918" stroke-width="3" stroke-linecap="round"/>
<path d="M302.863 559.677C309.622 559.44 328.5 557.056 357.561 545.021C376.122 537.334 401.478 518.638 414.189 507.757" stroke="#432918" stroke-width="3" stroke-linecap="round"/>
<path d="M331.806 580.81C331.672 578.41 332.085 572.771 333.198 568.882C336.093 558.76 340.287 555.597 342.936 551.319" stroke="#432918" stroke-width="3" stroke-linecap="round"/>
<path d="M343.844 522.347C344.326 524.165 346.282 529.696 350.251 537.281C354.219 544.866 354.766 546.001 354.543 545.62" stroke="#432918" stroke-width="3" stroke-linecap="round"/>
<path d="M363.932 575.771C363.417 575.116 361.896 572.612 359.936 567.835C357.977 563.059 355.825 551.434 354.994 546.219" stroke="#432918" stroke-width="3" stroke-linecap="round"/>
<path d="M365.993 513.704C367.453 516.825 370.956 523.726 373.293 526.362C375.631 528.998 378.509 531.875 379.656 532.984" stroke="#432918" stroke-width="3" stroke-linecap="round"/>
<path d="M379.454 532.869C379.522 533.757 380.246 537.346 382.598 544.601C384.949 551.855 386.575 555.43 387.095 556.311" stroke="#432918" stroke-width="3" stroke-linecap="round"/>
<path d="M282.727 1609.57C293.489 1619.21 309.145 1627.29 312.792 1623.22C316.439 1619.15 306.602 1602.63 295.934 1594.83C291.06 1590.46 284.153 1590.22 280.505 1594.29C276.858 1598.36 277.853 1605.2 282.727 1609.57Z" fill="#EE6A26"/>
<path d="M322.484 1594.51C318.384 1611 324.235 1629.06 331.2 1629.37C334.501 1624.98 344.785 1603.99 345.366 1599.69C346.753 1589.44 344.113 1579.68 337.148 1579.37C330.183 1579.07 324.874 1584.91 322.484 1594.51Z" fill="#EE6A26"/>
<path d="M355.084 1602.75C347.089 1617.68 341.145 1637.16 345.45 1639.47C349.755 1641.77 364.43 1625.24 370.674 1611.1C374.294 1604.34 373.74 1596.99 369.435 1594.69C365.13 1592.38 358.705 1595.99 355.084 1602.75Z" fill="#EE6A26"/>
<path d="M333.165 1686.27C340.974 1671.25 345.614 1651.14 339.971 1648.21C334.328 1645.27 318.484 1661.28 312.731 1675.65C309.195 1682.46 310.902 1690.35 316.545 1693.28C322.188 1696.21 329.629 1693.08 333.165 1686.27Z" fill="#EE6A26"/>
<path d="M373.022 1617.94C367.073 1631.95 367.337 1648.63 371.842 1649.79C374.874 1646.35 385.767 1629.16 386.997 1625.45C389.934 1616.58 390.133 1607.64 385.628 1606.48C381.123 1605.31 376.487 1609.78 373.022 1617.94Z" fill="#EE6A26"/>
<path d="M289.084 1642.91C303.14 1633.47 321.87 1631.95 324.399 1637.78C321.37 1642.18 305.101 1658.53 301.281 1660.57C292.165 1665.45 282.218 1666.72 279.688 1660.88C277.159 1655.05 280.896 1648.41 289.084 1642.91Z" fill="#EE6A26"/>
<path d="M345.93 1679.48C351.312 1666.14 363.759 1656.15 368.318 1659.05C368.285 1663.58 364.636 1682.83 362.924 1686.09C358.84 1693.86 352.447 1699.49 347.889 1696.59C343.33 1693.7 342.794 1687.25 345.93 1679.48Z" fill="#EE6A26"/>
<path d="M332.695 1608.37C331.523 1612.36 328.903 1617.89 329.762 1625.47C330.227 1629.58 331.795 1634.07 332.521 1635.8" stroke="#432918" stroke-width="3" stroke-linecap="round"/>
<path d="M299.073 1610.93C303.784 1616.07 318.292 1629.3 347.193 1644.05C365.652 1653.48 397.301 1660.87 414.351 1663.56" stroke="#432918" stroke-width="3" stroke-linecap="round"/>
<path d="M301.859 1647.79C303.653 1646.08 308.356 1642.63 312.154 1640.9C322.038 1636.4 327.328 1637.57 332.459 1636.79" stroke="#432918" stroke-width="3" stroke-linecap="round"/>
<path d="M355.81 1618.11C354.706 1619.7 351.673 1624.94 348.376 1633.13C345.078 1641.33 344.553 1642.51 344.703 1642.08" stroke="#432918" stroke-width="3" stroke-linecap="round"/>
<path d="M327.319 1669.64C327.489 1668.79 328.436 1665.92 330.874 1661.19C333.312 1656.45 340.997 1646.98 344.534 1642.84" stroke="#432918" stroke-width="3" stroke-linecap="round"/>
<path d="M377.421 1629.71C375.948 1632.94 372.876 1640.31 372.372 1643.91C371.867 1647.51 371.536 1651.7 371.433 1653.34" stroke="#432918" stroke-width="3" stroke-linecap="round"/>
<path d="M371.388 1653.1C370.736 1653.75 368.403 1656.72 364.283 1663.42C360.162 1670.13 358.445 1673.8 358.101 1674.79" stroke="#432918" stroke-width="3" stroke-linecap="round"/>
<path d="M143.418 293.11C129.953 296.967 115.247 305.647 116.706 310.741C118.165 315.834 136.798 316.284 148.701 311.553C154.799 309.807 158.56 304.262 157.101 299.169C155.642 294.076 149.516 291.363 143.418 293.11Z" fill="#A89624"/>
<path d="M135.262 333.503C123.848 321.632 106.006 317.115 102.161 322.673C104.058 327.645 115.983 346.916 119.209 349.609C126.908 356.038 136.275 358.904 140.12 353.347C143.965 347.789 141.912 340.419 135.262 333.503Z" fill="#A89624"/>
<path d="M111.682 356.005C103.557 341.744 90.6351 326.814 86.5221 329.157C82.409 331.501 88.4077 352.074 96.7872 364.491C100.467 370.95 106.784 374.286 110.897 371.943C115.01 369.6 115.362 362.464 111.682 356.005Z" fill="#A89624"/>
<path d="M54.4516 294.93C62.7534 309.09 76.8604 323.271 82.1781 320.153C87.4958 317.035 82.5377 295.778 73.7087 283.64C69.949 277.227 62.5904 274.556 57.2727 277.674C51.955 280.792 50.6919 288.517 54.4516 294.93Z" fill="#A89624"/>
<path d="M89.9634 362.889C81.5363 350.78 67.7142 342.393 64.4336 345.489C65.6957 349.753 74.1824 367.561 76.5945 370.486C82.3519 377.468 89.5856 382.243 92.8663 379.147C96.1469 376.052 94.8729 369.943 89.9634 362.889Z" fill="#A89624"/>
<path d="M112.777 281.127C113.276 297.533 104.857 313.686 98.7643 312.751C96.7165 307.996 91.6952 286.211 91.9878 282.022C92.6862 272.023 96.7817 263.208 102.875 264.143C108.968 265.078 112.487 271.569 112.777 281.127Z" fill="#A89624"/>
<path d="M53.4404 308.909C61.6095 320.207 63.3877 335.577 58.658 337.823C54.9522 335.456 41.0398 322.531 39.2492 319.446C34.9753 312.083 33.6542 303.933 38.3839 301.687C43.1135 299.44 48.6812 302.327 53.4404 308.909Z" fill="#A89624"/>
<path d="M118.619 334.73C115.948 331.711 112.763 326.708 106.098 323.502C102.492 321.767 97.997 320.736 96.2005 320.437" stroke="#432918" stroke-width="3" stroke-linecap="round"/>
<path d="M133.87 305.824C127.215 307.035 108.88 312.118 81.8598 328.222C64.6028 338.508 42.2117 360.668 31.2044 373.27" stroke="#432918" stroke-width="3" stroke-linecap="round"/>
<path d="M102.179 289.09C102.658 291.445 103.063 297.085 102.524 301.094C101.12 311.528 97.4265 315.263 95.423 319.879" stroke="#432918" stroke-width="3" stroke-linecap="round"/>
<path d="M98.7056 348.679C97.9663 346.95 95.2323 341.759 90.2107 334.826C85.189 327.894 84.4844 326.849 84.7599 327.194" stroke="#432918" stroke-width="3" stroke-linecap="round"/>
<path d="M71.1171 298.715C71.7216 299.288 73.5877 301.547 76.2163 305.991C78.8449 310.434 82.652 321.626 84.2271 326.667" stroke="#432918" stroke-width="3" stroke-linecap="round"/>
<path d="M78.0364 360.429C76.1419 357.551 71.6794 351.228 68.9857 348.957C66.292 346.686 63.0289 344.255 61.7342 343.323" stroke="#432918" stroke-width="3" stroke-linecap="round"/>
<path d="M61.9504 343.408C61.7549 342.539 60.5203 339.092 57.1461 332.253C53.7719 325.413 51.6468 322.111 51.0061 321.315" stroke="#432918" stroke-width="3" stroke-linecap="round"/>
<path d="M205.834 1282.16C192.651 1280.38 177.642 1274.24 178.314 1269.25C178.987 1264.27 196.436 1261.29 208.271 1264.1C214.241 1264.91 218.535 1269.6 217.862 1274.59C217.189 1279.58 211.804 1282.96 205.834 1282.16Z" fill="#A89624"/>
<path d="M192.633 1245.32C183.533 1258.04 167.385 1264.73 163.01 1260.03C164.111 1255.1 172.676 1235.35 175.338 1232.38C181.692 1225.29 190.102 1221.31 194.478 1226C198.853 1230.7 197.934 1237.91 192.633 1245.32Z" fill="#A89624"/>
<path d="M167.388 1227.4C161.708 1241.92 151.611 1257.72 147.424 1256.08C143.238 1254.44 146.055 1234.29 152.227 1221.47C154.8 1214.9 160.279 1210.89 164.466 1212.53C168.652 1214.17 169.961 1220.83 167.388 1227.4Z" fill="#A89624"/>
<path d="M121.978 1292.64C127.838 1278.2 139.152 1262.94 144.576 1265.14C150.001 1267.34 148.256 1288 141.623 1300.61C138.969 1307.16 132.419 1310.67 126.995 1308.47C121.57 1306.27 119.324 1299.19 121.978 1292.64Z" fill="#A89624"/>
<path d="M146.034 1223.91C139.775 1236.45 127.935 1246.22 124.428 1243.76C125.029 1239.58 130.563 1221.68 132.429 1218.6C136.883 1211.25 143.026 1205.77 146.533 1208.23C150.041 1210.69 149.681 1216.61 146.034 1223.91Z" fill="#A89624"/>
<path d="M178.682 1297.62C176.902 1282.13 166.776 1268.11 161.178 1269.82C159.906 1274.57 158.173 1295.73 159.022 1299.63C161.049 1308.93 166.107 1316.65 171.704 1314.94C177.302 1313.22 179.72 1306.64 178.682 1297.62Z" fill="#A89624"/>
<path d="M119.111 1279.65C125.239 1267.91 124.803 1253.22 120.051 1251.76C116.893 1254.49 105.59 1268.54 104.33 1271.69C101.323 1279.19 101.199 1287.03 105.952 1288.5C110.705 1289.96 115.541 1286.48 119.111 1279.65Z" fill="#A89624"/>
<path d="M176.823 1246.44C174.728 1249.65 172.42 1254.79 166.597 1258.71C163.445 1260.84 159.363 1262.42 157.715 1262.95" stroke="#432918" stroke-width="3" stroke-linecap="round"/>
<path d="M195.118 1271.52C188.699 1271.29 170.771 1269.03 143.171 1257.6C125.544 1250.3 101.464 1232.54 89.392 1222.21" stroke="#432918" stroke-width="3" stroke-linecap="round"/>
<path d="M167.631 1291.59C167.758 1289.31 167.366 1283.95 166.309 1280.26C163.559 1270.65 159.577 1267.64 157.061 1263.58" stroke="#432918" stroke-width="3" stroke-linecap="round"/>
<path d="M156.198 1236.07C155.74 1237.79 153.883 1243.05 150.114 1250.25C146.345 1257.45 145.826 1258.53 146.038 1258.17" stroke="#432918" stroke-width="3" stroke-linecap="round"/>
<path d="M137.121 1286.8C137.61 1286.18 139.054 1283.8 140.915 1279.27C142.776 1274.73 144.82 1263.69 145.609 1258.74" stroke="#432918" stroke-width="3" stroke-linecap="round"/>
<path d="M135.163 1227.86C133.777 1230.82 130.45 1237.38 128.23 1239.88C126.01 1242.38 123.277 1245.12 122.188 1246.17" stroke="#432918" stroke-width="3" stroke-linecap="round"/>
<path d="M122.38 1246.06C122.315 1246.9 121.627 1250.31 119.394 1257.2C117.161 1264.09 115.616 1267.48 115.123 1268.32" stroke="#432918" stroke-width="3" stroke-linecap="round"/>
<path d="M252.446 999.531C257.056 1006.89 261.061 1020.1 262.488 1025.79C255.546 1032.52 239.669 1047.08 231.696 1051.56C223.723 1056.03 213.336 1055.89 209.139 1055.26L211.929 1047.05C207.305 1047.75 199.578 1050.53 191.3 1049.11C184.768 1047.99 171.733 1043.01 169.322 1038.33L174.424 1032.78C172.791 1031.09 164.958 1030.42 155.004 1020.74C147.674 1013.61 142.487 1004.27 141.433 1002.48C142.642 1001.26 155.082 993.364 165.832 988.516C176.624 983.65 190.264 983.516 191.136 983.285L189.099 976.912C191.054 976.537 196.683 975.811 203.559 975.913C212.155 976.041 218.09 977.717 222.919 979.967C226.783 981.768 230.987 986.158 232.605 988.128L238.691 982.712C241.356 985.253 247.837 992.173 252.446 999.531Z" fill="#D47F41"/>
<path d="M163.865 1006.03C173.803 1005.22 197.169 1006.07 212.8 1009.52C238.318 1015.15 261.955 1025.68 276.972 1030.81" stroke="#432918" stroke-width="3" stroke-linecap="round"/>
<path d="M6.88045 1877.63C8.40134 1886.07 14.2543 1898.38 16.9906 1903.48C26.5278 1903.78 47.8015 1903.88 56.5986 1901.85C65.3958 1899.82 72.888 1892.82 75.5344 1889.57L68.0414 1885.42C71.8871 1882.87 79.3755 1879.76 84.4805 1873.23C88.5084 1868.07 94.7197 1855.77 93.3746 1850.75L85.9599 1850.09C86.0343 1847.77 91.3059 1842.07 92.1463 1828.39C92.7651 1818.31 90.3492 1808.04 89.9304 1806.04C88.2412 1805.95 73.9066 1808.45 62.834 1812.05C51.7186 1815.66 41.6652 1824.62 40.8752 1825.03L38.1291 1819.03C36.4518 1820.05 31.8584 1823.26 26.903 1827.9C20.7088 1833.7 17.4871 1838.87 15.4537 1843.72C13.8271 1847.61 13.6732 1853.6 13.7995 1856.12L5.7561 1856.21C5.49718 1859.83 5.35957 1869.19 6.88045 1877.63Z" fill="#A89624"/>
<path d="M75.9045 1823.53C68.1108 1829.55 51.6013 1845.68 42.4758 1858.59C27.5787 1879.66 17.3031 1903.04 9.74067 1916.77" stroke="#432918" stroke-width="3" stroke-linecap="round"/>
<path d="M250.269 112.962C253.654 110.254 259.295 103.654 261.692 100.692C265.5 102.385 275.062 105.769 282.846 105.769C290.631 105.769 295.679 101.256 297.231 99L280.731 88C286.654 85.1795 299.938 78.1846 305.692 72.7692C311.446 67.3538 314.295 56.6923 315 52.0385H304.423C300.362 52.0385 293.141 53.4487 290.038 54.1538V47.3846C287.782 48.3718 282.338 50.9385 278.615 53.3077C274.892 55.6769 269.167 59.9359 266.769 61.7692L263.808 19.0385L254.5 25.3846L243.923 0C242.09 3.24359 237.915 11.5923 235.885 19.0385C233.854 26.4846 232.782 34.5513 232.5 37.6538H224.038C224.885 41.6026 227.169 50.6846 229.538 55.4231C231.908 60.1615 238.423 65.5769 241.385 67.6923C238.846 67.2692 232.923 66.2538 229.538 65.5769C226.154 64.9 219.949 61.3461 217.269 59.6538V66.4231L194 69.3846C196.256 74.8846 202.8 86.8154 210.923 90.5385C219.046 94.2615 228.692 95.4743 232.5 95.6154C231.513 97.3077 229.285 101.708 228.269 105.769C227.254 109.831 226.718 116.487 226.577 119.308C233.064 118.321 246.885 115.669 250.269 112.962Z" fill="#D47F41"/>
<path d="M249.846 53.7305C250.269 58.9484 252.469 73.3612 257.885 89.2689C263.3 105.177 268.603 118.179 270.577 122.692" stroke="#603813" stroke-width="3" stroke-linecap="round"/>
<path d="M255.769 84.6149C269.646 75.138 284.115 68.8201 289.615 66.8457" stroke="#603813" stroke-width="3" stroke-linecap="round"/>
<path d="M256.615 85.0381C241.723 80.6381 230.667 80.1022 227 80.3843" stroke="#603813" stroke-width="3" stroke-linecap="round"/>
<path d="M256.615 85.4619L271.846 92.2311" stroke="#603813" stroke-width="3" stroke-linecap="round"/>
<path d="M255.769 84.6152C247.308 90.0306 244.064 94.487 243.5 96.0383" stroke="#603813" stroke-width="3" stroke-linecap="round"/>
</svg>
