<svg width="365" height="1263" viewBox="0 0 365 1263" fill="none" xmlns="http://www.w3.org/2000/svg">
<path d="M240.587 275.411C241.013 280.758 243.896 288.786 245.284 292.132C251.203 292.908 264.442 294.281 270.044 293.563C275.646 292.844 280.743 288.947 282.591 287.088L278.183 284.043C280.735 282.689 285.589 281.218 289.171 277.465C291.997 274.504 296.624 267.231 296.097 264.024L291.522 263.151C291.711 261.714 295.345 258.492 296.714 250.025C297.722 243.79 296.852 237.248 296.715 235.972C295.669 235.816 286.59 236.482 279.475 238.039C272.331 239.602 265.518 244.561 265.001 244.768L263.663 240.858C262.555 241.392 259.497 243.106 256.125 245.69C251.91 248.92 249.585 251.938 248.02 254.833C246.767 257.149 246.3 260.875 246.224 262.448L241.211 262.005C240.826 264.246 240.161 270.065 240.587 275.411Z" fill="#F5C602"/>
<path d="M286.902 245.998C281.678 249.261 270.403 258.286 263.924 265.757C253.348 277.952 245.505 291.878 239.949 299.954" stroke="#432918" stroke-width="3" stroke-linecap="round"/>
<path d="M52.6375 548.065C57.6577 546.28 64.6182 541.446 67.471 539.252C66.6909 533.373 64.5978 520.317 62.4657 515.127C60.3336 509.937 55.281 506.05 53.0212 504.756L51.236 509.77C49.2791 507.67 46.6178 503.392 42.0943 500.922C38.5252 498.973 30.3548 496.407 27.414 497.739L27.7549 502.353C26.3275 502.541 22.3001 499.885 13.8235 500.752C7.58155 501.391 1.52851 503.911 0.339344 504.37C0.459512 505.415 3.43712 513.953 6.7639 520.38C10.1035 526.831 16.616 532.091 16.9479 532.534L13.5408 534.825C14.3385 535.75 16.7709 538.243 20.1186 540.812C24.3032 544.024 27.7975 545.478 30.9787 546.234C33.5236 546.84 37.2183 546.328 38.7476 545.996L39.6136 550.92C41.8632 550.712 47.6173 549.851 52.6375 548.065Z" fill="#F5C602"/>
<path d="M12.4865 511.204C16.9628 515.375 28.5267 523.869 37.3631 528.161C51.788 535.167 67.1702 539.105 76.3499 542.355" stroke="#432918" stroke-width="3" stroke-linecap="round"/>
<path d="M352.915 414.551C351.82 416.596 348.898 420.207 347.574 421.757C348.836 423.595 351.549 428.295 352.308 432.391C353.068 436.486 351.186 439.582 350.15 440.618L342.754 433.011C341.848 436.402 339.464 444.073 337.176 447.628C334.888 451.183 329.557 453.722 327.178 454.547L326.146 448.982C325.75 446.846 325.788 442.91 325.856 441.209L322.295 441.869C322.594 440.586 323.414 437.472 324.297 435.282C325.18 433.092 326.862 429.665 327.593 428.225L304.824 430.834L307.255 425.319L292.869 422.23C294.397 420.949 298.382 417.939 302.101 416.144C305.82 414.35 309.959 412.999 311.564 412.548L310.739 408.097C312.898 408.157 317.899 408.473 320.623 409.257C323.347 410.041 326.831 412.941 328.233 414.293C327.763 412.998 326.651 409.981 325.965 408.267C325.279 406.552 322.804 403.635 321.652 402.39L325.213 401.73L324.502 389.199C327.615 389.85 334.53 392.129 337.281 396.039C340.032 399.949 341.611 404.906 342.056 406.895C342.85 406.211 344.948 404.609 346.985 403.679C349.023 402.749 352.472 401.818 353.942 401.468C354.056 404.977 354.009 412.507 352.915 414.551Z" fill="#EE6A26"/>
<path d="M321.714 420.106C324.5 419.82 332.297 419.572 341.194 420.869C350.091 422.167 357.448 423.688 360.015 424.286" stroke="#603813" stroke-width="3" stroke-linecap="round"/>
<path d="M338.538 420.21C334.906 428.435 332.994 436.663 332.492 439.749" stroke="#603813" stroke-width="3" stroke-linecap="round"/>
<path d="M338.844 420.614C335.076 413.209 333.716 407.445 333.507 405.488" stroke="#603813" stroke-width="3" stroke-linecap="round"/>
<path d="M339.066 420.572L344.113 427.925" stroke="#603813" stroke-width="3" stroke-linecap="round"/>
<path d="M338.539 420.209C340.562 415.23 342.59 413.089 343.351 412.641" stroke="#603813" stroke-width="3" stroke-linecap="round"/>
<path d="M247.488 646.625C248.511 653.968 251.969 662.318 254.746 661.932C257.523 661.545 259.142 651.814 257.546 645.225C257.083 641.899 254.456 639.517 251.679 639.904C248.901 640.291 247.025 643.3 247.488 646.625Z" fill="#A89624"/>
<path d="M268.051 653.896C260.983 658.996 257.293 668.012 259.92 670.439C262.666 669.814 273.65 664.994 275.301 663.504C279.241 659.946 281.438 655.249 278.811 652.822C276.184 650.395 272.169 650.924 268.051 653.896Z" fill="#A89624"/>
<path d="M278.094 667.922C270.017 671.121 261.235 676.785 262.158 679.115C263.08 681.444 274.307 679.827 281.436 676.357C285.094 674.908 287.311 671.845 286.388 669.515C285.465 667.186 281.752 666.472 278.094 667.922Z" fill="#A89624"/>
<path d="M241.841 693.382C249.878 690.082 258.356 683.742 257.116 680.724C255.877 677.705 244.369 678.727 237.353 682.453C233.714 683.947 231.768 687.606 233.007 690.624C234.247 693.642 238.202 694.877 241.841 693.382Z" fill="#A89624"/>
<path d="M280.09 679.815C273.12 683.333 267.699 689.954 269.078 691.903C271.406 691.558 281.368 688.432 283.08 687.385C287.166 684.886 290.205 681.449 288.826 679.5C287.447 677.551 284.152 677.766 280.09 679.815Z" fill="#A89624"/>
<path d="M238.935 661.792C247.57 662.748 255.41 668.358 254.468 671.482C251.824 672.202 240.035 673.217 237.862 672.753C232.674 671.645 228.358 668.845 229.3 665.722C230.242 662.598 233.905 661.235 238.935 661.792Z" fill="#A89624"/>
<path d="M249.092 694.95C255.619 691.507 263.806 691.716 264.632 694.361C263.116 696.128 255.311 702.459 253.561 703.169C249.385 704.862 245.016 704.95 244.19 702.305C243.364 699.659 245.29 696.956 249.092 694.95Z" fill="#A89624"/>
<path d="M267.46 662.71C265.679 663.885 262.821 665.184 260.647 668.438C259.47 670.199 258.596 672.479 258.306 673.398" stroke="#432918" stroke-width="3" stroke-linecap="round"/>
<path d="M253.442 652.573C253.583 656.15 254.887 666.136 261.321 681.491C265.431 691.298 275.383 704.676 281.171 711.38" stroke="#432918" stroke-width="3" stroke-linecap="round"/>
<path d="M242.322 667.939C243.592 667.863 246.577 668.069 248.638 668.649C254.002 670.159 255.685 672.371 257.956 673.764" stroke="#432918" stroke-width="3" stroke-linecap="round"/>
<path d="M273.291 674.18C272.331 674.439 269.408 675.487 265.402 677.604C261.396 679.721 260.797 680.013 260.998 679.894" stroke="#432918" stroke-width="3" stroke-linecap="round"/>
<path d="M245.061 684.931C245.406 684.657 246.728 683.847 249.252 682.799C251.776 681.751 257.923 680.586 260.682 680.135" stroke="#432918" stroke-width="3" stroke-linecap="round"/>
<path d="M277.916 685.884C276.267 686.663 272.623 688.533 271.233 689.776C269.842 691.019 268.326 692.549 267.742 693.158" stroke="#432918" stroke-width="3" stroke-linecap="round"/>
<path d="M267.802 693.052C267.333 693.089 265.434 693.481 261.6 694.742C257.765 696.002 255.877 696.871 255.412 697.148" stroke="#432918" stroke-width="3" stroke-linecap="round"/>
<path d="M240.587 874.12C241.013 879.467 243.896 887.495 245.284 890.841C251.203 891.617 264.442 892.99 270.044 892.272C275.646 891.553 280.743 887.656 282.591 885.797L278.183 882.752C280.735 881.398 285.589 879.927 289.171 876.174C291.997 873.213 296.624 865.94 296.097 862.733L291.522 861.86C291.711 860.423 295.345 857.201 296.714 848.734C297.722 842.499 296.852 835.957 296.715 834.681C295.669 834.525 286.59 835.191 279.475 836.748C272.331 838.311 265.518 843.27 265.001 843.477L263.663 839.567C262.555 840.101 259.497 841.815 256.125 844.399C251.91 847.629 249.585 850.647 248.02 853.542C246.767 855.858 246.3 859.584 246.224 861.157L241.211 860.714C240.826 862.955 240.161 868.774 240.587 874.12Z" fill="#F5C602"/>
<path d="M286.902 844.707C281.678 847.97 270.403 856.995 263.924 864.466C253.348 876.661 245.505 890.587 239.949 898.663" stroke="#432918" stroke-width="3" stroke-linecap="round"/>
<path d="M52.6375 1146.77C57.6577 1144.99 64.6182 1140.15 67.471 1137.96C66.6909 1132.08 64.5978 1119.03 62.4657 1113.84C60.3336 1108.65 55.281 1104.76 53.0212 1103.46L51.236 1108.48C49.2791 1106.38 46.6178 1102.1 42.0943 1099.63C38.5252 1097.68 30.3548 1095.12 27.414 1096.45L27.7549 1101.06C26.3275 1101.25 22.3001 1098.59 13.8235 1099.46C7.58155 1100.1 1.52851 1102.62 0.339344 1103.08C0.459512 1104.12 3.43712 1112.66 6.7639 1119.09C10.1035 1125.54 16.616 1130.8 16.9479 1131.24L13.5408 1133.53C14.3385 1134.46 16.7709 1136.95 20.1186 1139.52C24.3032 1142.73 27.7975 1144.19 30.9787 1144.94C33.5236 1145.55 37.2183 1145.04 38.7476 1144.7L39.6136 1149.63C41.8632 1149.42 47.6173 1148.56 52.6375 1146.77Z" fill="#F5C602"/>
<path d="M12.4865 1109.91C16.9628 1114.08 28.5267 1122.58 37.3631 1126.87C51.788 1133.88 67.1702 1137.81 76.3499 1141.06" stroke="#432918" stroke-width="3" stroke-linecap="round"/>
<path d="M293.915 1217.55C292.82 1219.6 289.898 1223.21 288.574 1224.76C289.836 1226.6 292.549 1231.3 293.308 1235.39C294.068 1239.49 292.186 1242.58 291.15 1243.62L283.754 1236.01C282.848 1239.4 280.464 1247.07 278.176 1250.63C275.888 1254.18 270.557 1256.72 268.178 1257.55L267.146 1251.98C266.75 1249.85 266.788 1245.91 266.856 1244.21L263.295 1244.87C263.594 1243.59 264.414 1240.47 265.297 1238.28C266.18 1236.09 267.862 1232.66 268.593 1231.22L245.824 1233.83L248.255 1228.32L233.869 1225.23C235.397 1223.95 239.382 1220.94 243.101 1219.14C246.82 1217.35 250.959 1216 252.564 1215.55L251.739 1211.1C253.898 1211.16 258.899 1211.47 261.623 1212.26C264.347 1213.04 267.831 1215.94 269.233 1217.29C268.763 1216 267.651 1212.98 266.965 1211.27C266.279 1209.55 263.804 1206.63 262.652 1205.39L266.213 1204.73L265.502 1192.2C268.615 1192.85 275.53 1195.13 278.281 1199.04C281.032 1202.95 282.611 1207.91 283.056 1209.9C283.85 1209.21 285.948 1207.61 287.985 1206.68C290.023 1205.75 293.472 1204.82 294.942 1204.47C295.056 1207.98 295.009 1215.51 293.915 1217.55Z" fill="#EE6A26"/>
<path d="M262.714 1223.11C265.5 1222.82 273.297 1222.57 282.194 1223.87C291.091 1225.17 298.448 1226.69 301.015 1227.29" stroke="#603813" stroke-width="3" stroke-linecap="round"/>
<path d="M279.538 1223.21C275.906 1231.43 273.994 1239.66 273.492 1242.75" stroke="#603813" stroke-width="3" stroke-linecap="round"/>
<path d="M279.844 1223.61C276.076 1216.21 274.716 1210.44 274.507 1208.49" stroke="#603813" stroke-width="3" stroke-linecap="round"/>
<path d="M280.066 1223.57L285.113 1230.92" stroke="#603813" stroke-width="3" stroke-linecap="round"/>
<path d="M279.539 1223.21C281.562 1218.23 283.59 1216.09 284.351 1215.64" stroke="#603813" stroke-width="3" stroke-linecap="round"/>
<path d="M41.7533 1015.59C48.729 1013.08 56.1911 1007.98 55.2419 1005.34C54.2928 1002.7 44.4367 1003.12 38.3162 1006.03C35.157 1007.17 33.3654 1010.23 34.3146 1012.87C35.2637 1015.51 38.5941 1016.73 41.7533 1015.59Z" fill="#A89624"/>
<path d="M44.6436 993.971C51.088 999.84 60.6691 1001.6 62.5049 998.53C61.3285 995.971 54.3549 986.211 52.5569 984.902C48.2654 981.777 43.2179 980.592 41.3821 983.662C39.5463 986.732 40.8892 990.552 44.6436 993.971Z" fill="#A89624"/>
<path d="M56.3074 981.261C61.0985 988.508 68.4464 995.939 70.5364 994.557C72.6264 993.175 68.7368 982.52 63.876 976.257C61.7063 972.975 58.253 971.434 56.163 972.816C54.073 974.198 54.1376 977.979 56.3074 981.261Z" fill="#A89624"/>
<path d="M88.6738 1011.51C83.7929 1004.32 75.8455 997.327 73.1464 999.16C70.4474 1000.99 73.8113 1012.05 78.8998 1018.15C81.1102 1021.4 85.0901 1022.55 87.7891 1020.72C90.4882 1018.89 90.8843 1014.76 88.6738 1011.51Z" fill="#A89624"/>
<path d="M67.5366 976.863C72.4118 982.962 80.0056 986.906 81.6296 985.157C80.8135 982.949 75.707 973.842 74.3306 972.382C71.0451 968.896 67.0574 966.628 65.4334 968.378C63.8094 970.128 64.6965 973.309 67.5366 976.863Z" fill="#A89624"/>
<path d="M58.3549 1020.84C57.5162 1012.2 61.3958 1003.37 64.6464 1003.65C65.8946 1006.09 69.3104 1017.42 69.3028 1019.64C69.2846 1024.95 67.4309 1029.75 64.1803 1029.47C60.9297 1029.19 58.8435 1025.88 58.3549 1020.84Z" fill="#A89624"/>
<path d="M88.718 1004.09C84.0075 998.41 82.5294 990.355 84.9485 989.003C86.9886 990.124 94.7893 996.462 95.8431 998.028C98.3584 1001.77 99.3419 1006.02 96.9229 1007.38C94.5039 1008.73 91.4622 1007.4 88.718 1004.09Z" fill="#A89624"/>
<path d="M53.3916 992.738C54.9079 994.239 56.7655 996.77 60.3975 998.229C62.3631 999.019 64.773 999.406 65.7323 999.5" stroke="#432918" stroke-width="3" stroke-linecap="round"/>
<path d="M46.3516 1008.54C49.8233 1007.67 59.3284 1004.34 73.0335 994.886C81.7864 988.849 92.8345 976.361 98.2057 969.32" stroke="#432918" stroke-width="3" stroke-linecap="round"/>
<path d="M63.674 1016.27C63.3388 1015.04 62.9268 1012.07 63.0711 1009.94C63.4467 1004.38 65.2662 1002.28 66.1624 999.768" stroke="#432918" stroke-width="3" stroke-linecap="round"/>
<path d="M63.4188 984.674C63.8698 985.561 65.4957 988.207 68.3909 991.692C71.2861 995.177 71.6948 995.704 71.5372 995.532" stroke="#432918" stroke-width="3" stroke-linecap="round"/>
<path d="M79.7417 1010.09C79.4023 1009.81 78.3376 1008.68 76.7936 1006.43C75.2495 1004.18 72.8464 998.398 71.8378 995.792" stroke="#432918" stroke-width="3" stroke-linecap="round"/>
<path d="M73.9226 977.744C75.024 979.197 77.6025 982.38 79.1047 983.485C80.607 984.59 82.4155 985.76 83.132 986.206" stroke="#432918" stroke-width="3" stroke-linecap="round"/>
<path d="M83.0151 986.168C83.1488 986.62 83.9217 988.398 85.9435 991.891C87.9654 995.385 89.2035 997.054 89.5698 997.453" stroke="#432918" stroke-width="3" stroke-linecap="round"/>
<path d="M69.8579 14.3165C70.8803 21.659 74.3381 30.0097 77.1154 29.623C79.8927 29.2363 81.5112 19.5051 79.9153 12.9161C79.4522 9.59084 76.8255 7.20869 74.0482 7.59541C71.2709 7.98213 69.3949 10.9913 69.8579 14.3165Z" fill="#EE6A26"/>
<path d="M90.4211 21.587C83.353 26.6879 79.6622 35.703 82.2893 38.1304C85.0357 37.505 96.0198 32.6855 97.6705 31.1949C101.61 27.637 103.808 22.9408 101.181 20.5134C98.5534 18.086 94.5388 18.6153 90.4211 21.587Z" fill="#EE6A26"/>
<path d="M100.464 35.613C92.387 38.8128 83.6044 44.4769 84.5273 46.8062C85.4501 49.1355 96.6769 47.5183 103.806 44.0482C107.463 42.5991 109.68 39.5361 108.758 37.2068C107.835 34.8774 104.122 34.1639 100.464 35.613Z" fill="#EE6A26"/>
<path d="M64.2108 61.0738C72.2472 57.7738 80.7254 51.4331 79.486 48.415C78.2467 45.3969 66.7388 46.418 59.7227 50.1443C56.0833 51.6388 54.1376 55.297 55.3769 58.3151C56.6163 61.3332 60.5713 62.5683 64.2108 61.0738Z" fill="#EE6A26"/>
<path d="M102.46 47.5064C95.4892 51.0243 90.0684 57.6455 91.4474 59.5945C93.7757 59.2494 103.738 56.1231 105.45 55.0761C109.536 52.5769 112.575 49.1403 111.196 47.1914C109.817 45.2425 106.521 45.457 102.46 47.5064Z" fill="#EE6A26"/>
<path d="M61.3047 29.4834C69.9395 30.4394 77.7798 36.0497 76.8378 39.1734C74.1941 39.8937 62.405 40.9089 60.2314 40.4447C55.0434 39.3369 50.7277 36.5366 51.6696 33.4129C52.6116 30.2892 56.2742 28.9265 61.3047 29.4834Z" fill="#EE6A26"/>
<path d="M71.4619 62.6416C77.9889 59.1988 86.1753 59.4073 87.0016 62.0526C85.486 63.8189 77.6804 70.1509 75.9309 70.8603C71.7551 72.5538 67.3861 72.6415 66.5597 69.9962C65.7334 67.3509 67.6594 64.6473 71.4619 62.6416Z" fill="#EE6A26"/>
<path d="M89.8293 30.4004C88.0486 31.5759 85.1908 32.8739 83.0161 36.1286C81.8393 37.8899 80.9655 40.169 80.6757 41.0883" stroke="#432918" stroke-width="3" stroke-linecap="round"/>
<path d="M75.8122 20.2639C75.9529 23.8408 77.2566 33.8269 83.6913 49.1817C87.801 58.9884 97.753 72.3668 103.54 79.0702" stroke="#432918" stroke-width="3" stroke-linecap="round"/>
<path d="M64.6917 35.6291C65.9616 35.5533 68.9471 35.7591 71.0081 36.3393C76.3718 37.8493 78.0552 40.0619 80.3254 41.4542" stroke="#432918" stroke-width="3" stroke-linecap="round"/>
<path d="M95.6611 41.8703C94.7003 42.1295 91.7771 43.1771 87.7714 45.2944C83.7657 47.4117 83.1662 47.7034 83.3672 47.5846" stroke="#432918" stroke-width="3" stroke-linecap="round"/>
<path d="M67.4303 52.6219C67.7757 52.3477 69.0977 51.5373 71.6215 50.4895C74.1453 49.4416 80.293 48.2769 83.0514 47.8254" stroke="#432918" stroke-width="3" stroke-linecap="round"/>
<path d="M100.285 53.5742C98.6369 54.3535 94.9923 56.223 93.6022 57.4661C92.2121 58.7093 90.6959 60.2389 90.1116 60.8483" stroke="#432918" stroke-width="3" stroke-linecap="round"/>
<path d="M90.1724 60.7419C89.7025 60.7799 87.8041 61.1711 83.9697 62.4319C80.1353 63.6928 78.2469 64.5614 77.7821 64.8381" stroke="#432918" stroke-width="3" stroke-linecap="round"/>
</svg>
