<svg width="368" height="1858" viewBox="0 0 368 1858" fill="none" xmlns="http://www.w3.org/2000/svg">
<path d="M51 1808.57C63.9978 1808.57 75.4827 1803.23 88.1699 1801.28C99.0289 1799.61 109.536 1796.51 120.595 1795.96C126.402 1795.67 131.999 1795.78 137.774 1795.12C144.51 1794.35 151.076 1792.5 157.721 1791.17C162.438 1790.23 167.219 1788.8 172 1788.8" stroke="#7989B2" stroke-width="5" stroke-linecap="round"/>
<path d="M127.104 1855C127.104 1842 121.763 1830.52 119.811 1817.83C118.14 1806.97 115.048 1796.46 114.495 1785.41C114.204 1779.6 114.32 1774 113.66 1768.23C112.89 1761.49 111.034 1754.92 109.706 1748.28C108.762 1743.56 107.333 1738.78 107.333 1734" stroke="#7989B2" stroke-width="5" stroke-linecap="round"/>
<path d="M82.4224 1846.21C91.6741 1837.08 96.0969 1825.22 103.757 1814.92C110.312 1806.1 115.619 1796.52 123.102 1788.36C127.031 1784.07 131.096 1780.22 134.743 1775.7C138.997 1770.42 142.368 1764.48 146.164 1758.87C148.859 1754.88 151.258 1750.51 154.661 1747.15" stroke="#7989B2" stroke-width="5" stroke-linecap="round"/>
<path d="M62.601 1764.06C72.299 1772.71 84.4246 1776.37 95.1905 1783.36C104.405 1789.35 114.304 1794.03 122.923 1800.98C127.449 1804.63 131.548 1808.45 136.297 1811.8C141.836 1815.71 147.97 1818.7 153.813 1822.13C157.96 1824.57 162.479 1826.68 166.046 1829.87" stroke="#7989B2" stroke-width="5" stroke-linecap="round"/>
<path d="M132.763 1752.55C133.063 1755.24 134.858 1757.91 135.713 1760.47C136.224 1762.01 136.802 1763.49 137.241 1765.02C137.568 1766.17 138.52 1767.35 138.52 1768.54" stroke="#7989B2" stroke-width="5" stroke-linecap="round"/>
<path d="M142.038 1746.79C142.038 1750.31 144.719 1754.07 146.196 1757.03" stroke="#7989B2" stroke-width="5" stroke-linecap="round"/>
<path d="M139.16 1770.14C144.518 1770.14 149.473 1771.1 154.832 1771.1" stroke="#7989B2" stroke-width="5" stroke-linecap="round"/>
<path d="M147.475 1757.35C149.084 1757.35 152.571 1756.69 154.032 1757.51C154.97 1758.03 158.278 1757.52 158.67 1758.31" stroke="#7989B2" stroke-width="5" stroke-linecap="round"/>
<path d="M104.249 1840.5C103.982 1837.8 102.219 1835.11 101.396 1832.54C100.903 1830.99 100.344 1829.51 99.9234 1827.97C99.6108 1826.82 98.6725 1825.63 98.6871 1824.43" stroke="#7989B2" stroke-width="5" stroke-linecap="round"/>
<path d="M94.9038 1846.14C94.9467 1842.63 92.3122 1838.83 90.8712 1835.86" stroke="#7989B2" stroke-width="5" stroke-linecap="round"/>
<path d="M98.0669 1822.83C92.7094 1822.76 87.7656 1821.74 82.4074 1821.68" stroke="#7989B2" stroke-width="5" stroke-linecap="round"/>
<path d="M89.5958 1835.52C87.987 1835.5 84.4922 1836.11 83.0414 1835.28C82.1097 1834.75 78.7961 1835.21 78.4138 1834.42" stroke="#7989B2" stroke-width="5" stroke-linecap="round"/>
<path d="M69.5688 1820.68C71.1741 1818.5 71.6586 1815.32 72.7667 1812.85C73.4298 1811.38 74.006 1809.9 74.7236 1808.47C75.2576 1807.41 75.3582 1805.89 76.1655 1805.02" stroke="#7989B2" stroke-width="5" stroke-linecap="round"/>
<path d="M61.7339 1817.54C64.1146 1814.95 64.6931 1810.37 65.6075 1807.19" stroke="#7989B2" stroke-width="5" stroke-linecap="round"/>
<path d="M76.7773 1803.41C72.8357 1799.78 69.8396 1795.72 65.8974 1792.09" stroke="#7989B2" stroke-width="5" stroke-linecap="round"/>
<path d="M64.8829 1806.09C63.6993 1805 60.6925 1803.12 60.1676 1801.53C59.8304 1800.51 57.0546 1798.65 57.2973 1797.8" stroke="#7989B2" stroke-width="5" stroke-linecap="round"/>
<path d="M70.3677 1786.91C72.9656 1786.13 75.2659 1783.89 77.6355 1782.58C79.0534 1781.81 80.404 1780.97 81.8367 1780.27C82.9027 1779.74 83.896 1778.59 85.0686 1778.38" stroke="#7989B2" stroke-width="5" stroke-linecap="round"/>
<path d="M63.9326 1777.42C67.3906 1776.79 70.6146 1773.47 73.2563 1771.49" stroke="#7989B2" stroke-width="5" stroke-linecap="round"/>
<path d="M86.5254 1777.46C85.5648 1772.19 85.6202 1767.14 84.6594 1761.87" stroke="#7989B2" stroke-width="5" stroke-linecap="round"/>
<path d="M73.3416 1770.18C73.0531 1768.59 71.7868 1765.28 72.3233 1763.7C72.6679 1762.68 71.5775 1759.52 72.2785 1758.99" stroke="#7989B2" stroke-width="5" stroke-linecap="round"/>
<path d="M95.9351 1755.19C98.1341 1756.77 101.315 1757.23 103.79 1758.32C105.27 1758.97 106.754 1759.53 108.187 1760.24C109.254 1760.76 110.771 1760.85 111.654 1761.65" stroke="#7989B2" stroke-width="5" stroke-linecap="round"/>
<path d="M98.5654 1743.79C101.171 1746.15 105.762 1746.69 108.943 1747.58" stroke="#7989B2" stroke-width="5" stroke-linecap="round"/>
<path d="M113.267 1762.25C116.863 1758.28 120.9 1755.25 124.497 1751.28" stroke="#7989B2" stroke-width="5" stroke-linecap="round"/>
<path d="M110.037 1746.85C111.117 1745.66 112.975 1742.63 114.557 1742.09C115.573 1741.75 117.418 1738.96 118.262 1739.19" stroke="#7989B2" stroke-width="5" stroke-linecap="round"/>
<path d="M139.237 1836.96C137.061 1835.35 133.887 1834.84 131.428 1833.72C129.957 1833.05 128.482 1832.46 127.058 1831.74C125.999 1831.2 124.484 1831.09 123.612 1830.27" stroke="#7989B2" stroke-width="5" stroke-linecap="round"/>
<path d="M137.126 1847.67C134.555 1845.28 129.972 1844.67 126.804 1843.74" stroke="#7989B2" stroke-width="5" stroke-linecap="round"/>
<path d="M122.007 1829.65C118.354 1833.57 114.274 1836.55 110.621 1840.47" stroke="#7989B2" stroke-width="5" stroke-linecap="round"/>
<path d="M125.698 1844.46C124.601 1845.64 122.701 1848.63 121.111 1849.15C120.09 1849.48 118.205 1852.24 117.365 1851.99" stroke="#7989B2" stroke-width="5" stroke-linecap="round"/>
<path d="M161.448 1811.12C158.76 1811.48 156.136 1813.33 153.591 1814.24C152.068 1814.79 150.604 1815.4 149.078 1815.87C147.942 1816.22 146.781 1817.2 145.589 1817.23" stroke="#7989B2" stroke-width="5" stroke-linecap="round"/>
<path d="M167.413 1820.26C163.899 1820.34 160.195 1823.1 157.274 1824.65" stroke="#7989B2" stroke-width="5" stroke-linecap="round"/>
<path d="M144.005 1817.91C144.125 1823.26 143.277 1828.24 143.398 1833.6" stroke="#7989B2" stroke-width="5" stroke-linecap="round"/>
<path d="M156.983 1825.93C157.019 1827.54 157.749 1831.01 156.97 1832.49C156.47 1833.44 157.05 1836.74 156.275 1837.14" stroke="#7989B2" stroke-width="5" stroke-linecap="round"/>
<path d="M157.458 1778.94C155.941 1780.66 155.295 1783.3 154.176 1785.3C153.507 1786.49 152.911 1787.69 152.199 1788.84C151.669 1789.7 151.471 1790.97 150.725 1791.65" stroke="#7989B2" stroke-width="5" stroke-linecap="round"/>
<path d="M166.346 1781.46C164.145 1783.46 163.314 1787.29 162.306 1789.89" stroke="#7989B2" stroke-width="5" stroke-linecap="round"/>
<path d="M150.088 1792.96C153.14 1796.31 155.362 1799.96 158.414 1803.32" stroke="#7989B2" stroke-width="5" stroke-linecap="round"/>
<path d="M162.834 1790.88C163.75 1791.89 166.144 1793.7 166.468 1795.07C166.676 1795.96 168.877 1797.74 168.609 1798.43" stroke="#7989B2" stroke-width="5" stroke-linecap="round"/>
<line x1="303" y1="347" x2="303" y2="478" stroke="#202B52" stroke-width="6" stroke-linecap="round"/>
<line x1="283.196" y1="349.371" x2="301.371" y2="362.804" stroke="#202B52" stroke-width="6" stroke-linecap="round"/>
<line x1="322.371" y1="350.196" x2="304.196" y2="363.629" stroke="#202B52" stroke-width="6" stroke-linecap="round"/>
<line x1="343.712" y1="364.303" x2="341.303" y2="386.775" stroke="#202B52" stroke-width="6" stroke-linecap="round"/>
<line x1="362.794" y1="398.526" x2="342.018" y2="389.63" stroke="#202B52" stroke-width="6" stroke-linecap="round"/>
<line x1="364.74" y1="425.933" x2="343.933" y2="434.759" stroke="#202B52" stroke-width="6" stroke-linecap="round"/>
<line x1="344.119" y1="459.252" x2="341.787" y2="436.772" stroke="#202B52" stroke-width="6" stroke-linecap="round"/>
<line x1="321.752" y1="473.358" x2="303.387" y2="460.186" stroke="#202B52" stroke-width="6" stroke-linecap="round"/>
<line x1="282.569" y1="473.094" x2="300.55" y2="459.401" stroke="#202B52" stroke-width="6" stroke-linecap="round"/>
<line x1="260.396" y1="458.632" x2="261.842" y2="436.077" stroke="#202B52" stroke-width="6" stroke-linecap="round"/>
<line x1="239.868" y1="425.256" x2="261.005" y2="433.255" stroke="#202B52" stroke-width="6" stroke-linecap="round"/>
<line x1="240.645" y1="396.748" x2="261.573" y2="388.214" stroke="#202B52" stroke-width="6" stroke-linecap="round"/>
<line x1="261.73" y1="363.72" x2="263.748" y2="386.231" stroke="#202B52" stroke-width="6" stroke-linecap="round"/>
<line x1="300.603" y1="383.006" x2="277.006" y2="394.397" stroke="#202B52" stroke-width="6" stroke-linecap="round"/>
<line x1="328.765" y1="429.059" x2="304.059" y2="442.235" stroke="#202B52" stroke-width="6" stroke-linecap="round"/>
<line x1="330" y1="397" x2="330" y2="426" stroke="#202B52" stroke-width="6" stroke-linecap="round"/>
<line x1="275" y1="396" x2="275" y2="425" stroke="#202B52" stroke-width="6" stroke-linecap="round"/>
<line x1="304.043" y1="381.714" x2="327.714" y2="393.957" stroke="#202B52" stroke-width="6" stroke-linecap="round"/>
<line x1="275.042" y1="427.71" x2="300.71" y2="440.958" stroke="#202B52" stroke-width="6" stroke-linecap="round"/>
<line x1="358.087" y1="378.106" x2="245.106" y2="444.41" stroke="#202B52" stroke-width="6" stroke-linecap="round"/>
<line x1="358.797" y1="444.819" x2="246.054" y2="378.11" stroke="#202B52" stroke-width="6" stroke-linecap="round"/>
<line x1="61.7735" y1="692.275" x2="188.094" y2="657.575" stroke="#5469B5" stroke-width="6" stroke-linecap="round"/>
<line x1="69.3057" y1="710.744" x2="77.4451" y2="689.66" stroke="#5469B5" stroke-width="6" stroke-linecap="round"/>
<line x1="59.7243" y1="672.75" x2="77.4924" y2="686.718" stroke="#5469B5" stroke-width="6" stroke-linecap="round"/>
<line x1="67.6741" y1="648.435" x2="89.9814" y2="644.805" stroke="#5469B5" stroke-width="6" stroke-linecap="round"/>
<line x1="95.6206" y1="620.968" x2="92.5457" y2="643.359" stroke="#5469B5" stroke-width="6" stroke-linecap="round"/>
<line x1="121.533" y1="611.832" x2="135.555" y2="629.558" stroke="#5469B5" stroke-width="6" stroke-linecap="round"/>
<line x1="159.124" y1="622.891" x2="138.065" y2="631.095" stroke="#5469B5" stroke-width="6" stroke-linecap="round"/>
<line x1="178.651" y1="640.722" x2="170.815" y2="661.921" stroke="#5469B5" stroke-width="6" stroke-linecap="round"/>
<line x1="188.775" y1="678.576" x2="170.809" y2="664.864" stroke="#5469B5" stroke-width="6" stroke-linecap="round"/>
<line x1="180.703" y1="703.787" x2="158.571" y2="708.368" stroke="#5469B5" stroke-width="6" stroke-linecap="round"/>
<line x1="153.957" y1="732.424" x2="156.072" y2="709.922" stroke="#5469B5" stroke-width="6" stroke-linecap="round"/>
<line x1="126.261" y1="739.225" x2="112.489" y2="721.305" stroke="#5469B5" stroke-width="6" stroke-linecap="round"/>
<line x1="88.8284" y1="727.642" x2="110" y2="719.733" stroke="#5469B5" stroke-width="6" stroke-linecap="round"/>
<line x1="97.1285" y1="685.05" x2="114.364" y2="704.786" stroke="#5469B5" stroke-width="6" stroke-linecap="round"/>
<line x1="134.077" y1="645.694" x2="153.327" y2="666.027" stroke="#5469B5" stroke-width="6" stroke-linecap="round"/>
<line x1="102.835" y1="652.995" x2="130.8" y2="645.313" stroke="#5469B5" stroke-width="6" stroke-linecap="round"/>
<line x1="116.44" y1="706.296" x2="144.405" y2="698.614" stroke="#5469B5" stroke-width="6" stroke-linecap="round"/>
<line x1="94.9709" y1="682.074" x2="100.507" y2="656.006" stroke="#5469B5" stroke-width="6" stroke-linecap="round"/>
<line x1="147.006" y1="697.855" x2="152.982" y2="669.595" stroke="#5469B5" stroke-width="6" stroke-linecap="round"/>
<line x1="77.1763" y1="630.917" x2="171.04" y2="722.299" stroke="#5469B5" stroke-width="6" stroke-linecap="round"/>
<line x1="141.319" y1="612.56" x2="106.857" y2="738.946" stroke="#5469B5" stroke-width="6" stroke-linecap="round"/>
<line x1="228" y1="1517" x2="228" y2="1648" stroke="#5469B5" stroke-width="6" stroke-linecap="round"/>
<line x1="208.196" y1="1519.37" x2="226.371" y2="1532.8" stroke="#5469B5" stroke-width="6" stroke-linecap="round"/>
<line x1="247.371" y1="1520.2" x2="229.196" y2="1533.63" stroke="#5469B5" stroke-width="6" stroke-linecap="round"/>
<line x1="268.712" y1="1534.3" x2="266.303" y2="1556.77" stroke="#5469B5" stroke-width="6" stroke-linecap="round"/>
<line x1="287.794" y1="1568.53" x2="267.018" y2="1559.63" stroke="#5469B5" stroke-width="6" stroke-linecap="round"/>
<line x1="289.74" y1="1595.93" x2="268.933" y2="1604.76" stroke="#5469B5" stroke-width="6" stroke-linecap="round"/>
<line x1="269.119" y1="1629.25" x2="266.787" y2="1606.77" stroke="#5469B5" stroke-width="6" stroke-linecap="round"/>
<line x1="246.752" y1="1643.36" x2="228.387" y2="1630.19" stroke="#5469B5" stroke-width="6" stroke-linecap="round"/>
<line x1="207.569" y1="1643.09" x2="225.55" y2="1629.4" stroke="#5469B5" stroke-width="6" stroke-linecap="round"/>
<line x1="185.396" y1="1628.63" x2="186.842" y2="1606.08" stroke="#5469B5" stroke-width="6" stroke-linecap="round"/>
<line x1="164.868" y1="1595.26" x2="186.005" y2="1603.26" stroke="#5469B5" stroke-width="6" stroke-linecap="round"/>
<line x1="165.645" y1="1566.75" x2="186.573" y2="1558.21" stroke="#5469B5" stroke-width="6" stroke-linecap="round"/>
<line x1="186.73" y1="1533.72" x2="188.748" y2="1556.23" stroke="#5469B5" stroke-width="6" stroke-linecap="round"/>
<line x1="225.603" y1="1553.01" x2="202.006" y2="1564.4" stroke="#5469B5" stroke-width="6" stroke-linecap="round"/>
<line x1="253.765" y1="1599.06" x2="229.059" y2="1612.24" stroke="#5469B5" stroke-width="6" stroke-linecap="round"/>
<line x1="255" y1="1567" x2="255" y2="1596" stroke="#5469B5" stroke-width="6" stroke-linecap="round"/>
<line x1="200" y1="1566" x2="200" y2="1595" stroke="#5469B5" stroke-width="6" stroke-linecap="round"/>
<line x1="229.043" y1="1551.71" x2="252.714" y2="1563.96" stroke="#5469B5" stroke-width="6" stroke-linecap="round"/>
<line x1="200.042" y1="1597.71" x2="225.71" y2="1610.96" stroke="#5469B5" stroke-width="6" stroke-linecap="round"/>
<line x1="283.087" y1="1548.11" x2="170.106" y2="1614.41" stroke="#5469B5" stroke-width="6" stroke-linecap="round"/>
<line x1="283.797" y1="1614.82" x2="171.054" y2="1548.11" stroke="#5469B5" stroke-width="6" stroke-linecap="round"/>
<line x1="79.1427" y1="106.792" x2="53.7726" y2="46.4699" stroke="#7989B2" stroke-width="3"/>
<line x1="49.7283" y1="104.077" x2="84.8176" y2="47.976" stroke="#7989B2" stroke-width="3"/>
<line x1="37.5104" y1="76.1314" x2="96.5605" y2="78.8101" stroke="#7989B2" stroke-width="3"/>
<line x1="60.826" y1="148.172" x2="61.5587" y2="132.022" stroke="#7989B2" stroke-width="6" stroke-linecap="round"/>
<line x1="74.7689" y1="140.636" x2="63.7534" y2="131.835" stroke="#7989B2" stroke-width="6" stroke-linecap="round"/>
<line x1="62.2682" y1="129.347" x2="77.825" y2="107.024" stroke="#7989B2" stroke-width="6" stroke-linecap="round"/>
<line x1="60.637" y1="127.911" x2="49.8176" y2="107.45" stroke="#7989B2" stroke-width="6" stroke-linecap="round"/>
<line x1="48.5734" y1="139.019" x2="61.9329" y2="129.915" stroke="#7989B2" stroke-width="6" stroke-linecap="round"/>
<line x1="3.9365" y1="106.641" x2="18.8716" y2="100.452" stroke="#7989B2" stroke-width="6" stroke-linecap="round"/>
<line x1="16.6765" y1="116.069" x2="19.9726" y2="102.36" stroke="#7989B2" stroke-width="6" stroke-linecap="round"/>
<line x1="21.5949" y1="99.9597" x2="48.4092" y2="104.576" stroke="#7989B2" stroke-width="6" stroke-linecap="round"/>
<line x1="22.0126" y1="97.9047" x2="36.2927" y2="77.066" stroke="#7989B2" stroke-width="6" stroke-linecap="round"/>
<line x1="7.02577" y1="91.6623" x2="20.9379" y2="99.897" stroke="#7989B2" stroke-width="6" stroke-linecap="round"/>
<line x1="123.256" y1="116.831" x2="109.825" y2="107.833" stroke="#7989B2" stroke-width="6" stroke-linecap="round"/>
<line x1="124.039" y1="101" x2="110.803" y2="105.859" stroke="#7989B2" stroke-width="6" stroke-linecap="round"/>
<line x1="107.906" y1="105.84" x2="96.879" y2="80.9662" stroke="#7989B2" stroke-width="6" stroke-linecap="round"/>
<line x1="105.95" y1="106.619" x2="80.6543" y2="106.177" stroke="#7989B2" stroke-width="6" stroke-linecap="round"/>
<line x1="109.078" y1="122.564" x2="108.217" y2="106.421" stroke="#7989B2" stroke-width="6" stroke-linecap="round"/>
<line x1="129.879" y1="46.6124" x2="115.185" y2="53.3526" stroke="#7989B2" stroke-width="6" stroke-linecap="round"/>
<line x1="116.797" y1="37.6641" x2="114.013" y2="51.4864" stroke="#7989B2" stroke-width="6" stroke-linecap="round"/>
<line x1="112.482" y1="53.9469" x2="85.514" y2="50.3319" stroke="#7989B2" stroke-width="6" stroke-linecap="round"/>
<line x1="112.069" y1="56.029" x2="97.7613" y2="77.8352" stroke="#7989B2" stroke-width="6" stroke-linecap="round"/>
<line x1="127.348" y1="61.696" x2="113.139" y2="53.9846" stroke="#7989B2" stroke-width="6" stroke-linecap="round"/>
<line x1="74.8635" y1="6.57402" x2="73.6791" y2="22.6972" stroke="#7989B2" stroke-width="6" stroke-linecap="round"/>
<line x1="60.7157" y1="13.7164" x2="71.4806" y2="22.8227" stroke="#7989B2" stroke-width="6" stroke-linecap="round"/>
<line x1="72.912" y1="25.3494" x2="56.2626" y2="48.0619" stroke="#7989B2" stroke-width="6" stroke-linecap="round"/>
<line x1="74.4856" y1="26.8315" x2="84.7281" y2="47.5881" stroke="#7989B2" stroke-width="6" stroke-linecap="round"/>
<line x1="86.8552" y1="16.0676" x2="73.246" y2="24.794" stroke="#7989B2" stroke-width="6" stroke-linecap="round"/>
<line x1="11.2822" y1="36.8337" x2="24.8984" y2="45.5492" stroke="#7989B2" stroke-width="6" stroke-linecap="round"/>
<line x1="10.8308" y1="52.6742" x2="23.9631" y2="47.541" stroke="#7989B2" stroke-width="6" stroke-linecap="round"/>
<line x1="26.7621" y1="47.7445" x2="37.5877" y2="75.1466" stroke="#7989B2" stroke-width="6" stroke-linecap="round"/>
<line x1="28.8747" y1="46.76" x2="53.4997" y2="47.3172" stroke="#7989B2" stroke-width="6" stroke-linecap="round"/>
<line x1="25.338" y1="30.8038" x2="26.5353" y2="46.9259" stroke="#7989B2" stroke-width="6" stroke-linecap="round"/>
</svg>
