<svg width="396" height="1215" viewBox="0 0 396 1215" fill="none" xmlns="http://www.w3.org/2000/svg">
<path d="M150.023 141.916C144.007 141.916 138.692 139.444 132.82 138.54C127.795 137.767 122.932 136.336 117.814 136.08C115.126 135.946 112.536 135.999 109.863 135.694C106.746 135.337 103.707 134.479 100.632 133.864C98.4483 133.427 96.2355 132.766 94.0229 132.766" stroke="#202B52" stroke-width="3" stroke-linecap="round"/>
<path d="M114.801 163.404C114.801 157.389 117.273 152.073 118.177 146.202C118.95 141.176 120.381 136.313 120.637 131.195C120.772 128.508 120.718 125.917 121.024 123.245C121.38 120.127 122.239 117.088 122.854 114.013C123.29 111.83 123.952 109.617 123.952 107.404" stroke="#202B52" stroke-width="3" stroke-linecap="round"/>
<path d="M135.48 159.338C131.198 155.113 129.151 149.62 125.606 144.853C122.572 140.772 120.116 136.338 116.653 132.561C114.835 130.577 112.953 128.796 111.265 126.701C109.297 124.258 107.737 121.512 105.98 118.914C104.733 117.07 103.622 115.045 102.047 113.491" stroke="#202B52" stroke-width="3" stroke-linecap="round"/>
<path d="M144.654 121.315C140.165 125.32 134.554 127.014 129.571 130.25C125.306 133.019 120.725 135.189 116.736 138.405C114.641 140.094 112.744 141.859 110.547 143.41C107.983 145.22 105.144 146.603 102.44 148.191C100.52 149.319 98.429 150.299 96.7782 151.772" stroke="#202B52" stroke-width="3" stroke-linecap="round"/>
<path d="M112.182 115.989C112.044 117.237 111.213 118.47 110.817 119.657C110.58 120.367 110.313 121.051 110.11 121.762C109.959 122.291 109.518 122.839 109.518 123.391" stroke="#202B52" stroke-width="3" stroke-linecap="round"/>
<path d="M107.89 113.324C107.89 114.951 106.649 116.694 105.965 118.061" stroke="#202B52" stroke-width="3" stroke-linecap="round"/>
<path d="M109.222 124.13C106.742 124.13 104.448 124.574 101.968 124.574" stroke="#202B52" stroke-width="3" stroke-linecap="round"/>
<path d="M105.373 118.209C104.628 118.209 103.015 117.908 102.338 118.283C101.904 118.524 100.373 118.291 100.192 118.653" stroke="#202B52" stroke-width="3" stroke-linecap="round"/>
<path d="M125.379 156.691C125.502 155.442 126.318 154.199 126.699 153.007C126.927 152.294 127.186 151.607 127.381 150.893C127.525 150.363 127.96 149.81 127.953 149.258" stroke="#202B52" stroke-width="3" stroke-linecap="round"/>
<path d="M129.704 159.304C129.684 157.677 130.904 155.919 131.57 154.544" stroke="#202B52" stroke-width="3" stroke-linecap="round"/>
<path d="M128.24 148.515C130.719 148.484 133.007 148.012 135.487 147.982" stroke="#202B52" stroke-width="3" stroke-linecap="round"/>
<path d="M132.161 154.388C132.905 154.379 134.523 154.661 135.194 154.277C135.625 154.031 137.159 154.246 137.336 153.881" stroke="#202B52" stroke-width="3" stroke-linecap="round"/>
<path d="M141.429 147.521C140.686 146.51 140.462 145.04 139.949 143.899C139.642 143.216 139.376 142.531 139.044 141.871C138.796 141.379 138.75 140.678 138.376 140.272" stroke="#202B52" stroke-width="3" stroke-linecap="round"/>
<path d="M145.055 146.067C143.953 144.871 143.686 142.748 143.262 141.279" stroke="#202B52" stroke-width="3" stroke-linecap="round"/>
<path d="M138.093 139.527C139.917 137.848 141.304 135.968 143.128 134.288" stroke="#202B52" stroke-width="3" stroke-linecap="round"/>
<path d="M143.598 140.769C144.146 140.265 145.537 139.394 145.78 138.659C145.936 138.188 147.221 137.323 147.108 136.933" stroke="#202B52" stroke-width="3" stroke-linecap="round"/>
<path d="M141.06 131.891C139.857 131.531 138.793 130.492 137.696 129.89C137.04 129.53 136.415 129.144 135.752 128.817C135.258 128.573 134.799 128.041 134.256 127.942" stroke="#202B52" stroke-width="3" stroke-linecap="round"/>
<path d="M144.038 127.498C142.437 127.206 140.945 125.673 139.722 124.756" stroke="#202B52" stroke-width="3" stroke-linecap="round"/>
<path d="M133.582 127.519C134.026 125.079 134 122.743 134.445 120.303" stroke="#202B52" stroke-width="3" stroke-linecap="round"/>
<path d="M139.683 124.147C139.817 123.415 140.403 121.881 140.154 121.149C139.995 120.678 140.5 119.214 140.175 118.971" stroke="#202B52" stroke-width="3" stroke-linecap="round"/>
<path d="M129.227 117.209C128.209 117.943 126.737 118.155 125.591 118.659C124.906 118.96 124.22 119.221 123.556 119.548C123.062 119.791 122.361 119.831 121.952 120.202" stroke="#202B52" stroke-width="3" stroke-linecap="round"/>
<path d="M128.009 111.937C126.803 113.028 124.679 113.278 123.206 113.689" stroke="#202B52" stroke-width="3" stroke-linecap="round"/>
<path d="M121.205 120.479C119.541 118.64 117.672 117.238 116.008 115.4" stroke="#202B52" stroke-width="3" stroke-linecap="round"/>
<path d="M122.7 113.35C122.2 112.798 121.34 111.4 120.608 111.151C120.138 110.991 119.284 109.699 118.893 109.808" stroke="#202B52" stroke-width="3" stroke-linecap="round"/>
<path d="M109.186 155.057C110.193 154.308 111.662 154.075 112.8 153.555C113.481 153.244 114.164 152.974 114.823 152.638C115.313 152.387 116.014 152.337 116.418 151.961" stroke="#202B52" stroke-width="3" stroke-linecap="round"/>
<path d="M110.163 160.015C111.353 158.906 113.474 158.625 114.94 158.194" stroke="#202B52" stroke-width="3" stroke-linecap="round"/>
<path d="M117.16 151.674C118.851 153.488 120.739 154.864 122.43 156.678" stroke="#202B52" stroke-width="3" stroke-linecap="round"/>
<path d="M115.452 158.525C115.96 159.07 116.839 160.457 117.575 160.695C118.047 160.848 118.92 162.128 119.309 162.013" stroke="#202B52" stroke-width="3" stroke-linecap="round"/>
<path d="M98.9067 143.094C100.151 143.26 101.365 144.119 102.543 144.541C103.248 144.794 103.926 145.076 104.632 145.295C105.157 145.458 105.695 145.912 106.246 145.924" stroke="#202B52" stroke-width="3" stroke-linecap="round"/>
<path d="M96.146 147.325C97.7723 147.362 99.4868 148.641 100.838 149.356" stroke="#202B52" stroke-width="3" stroke-linecap="round"/>
<path d="M106.979 146.237C106.924 148.716 107.316 151.019 107.26 153.499" stroke="#202B52" stroke-width="3" stroke-linecap="round"/>
<path d="M100.973 149.951C100.956 150.695 100.618 152.302 100.979 152.986C101.21 153.426 100.942 154.951 101.3 155.14" stroke="#202B52" stroke-width="3" stroke-linecap="round"/>
<path d="M100.753 128.201C101.455 128.998 101.754 130.221 102.272 131.145C102.582 131.698 102.858 132.255 103.187 132.787C103.432 133.183 103.524 133.771 103.869 134.085" stroke="#202B52" stroke-width="3" stroke-linecap="round"/>
<path d="M96.6396 129.37C97.6581 130.297 98.0426 132.066 98.5093 133.273" stroke="#202B52" stroke-width="3" stroke-linecap="round"/>
<path d="M104.164 134.69C102.752 136.243 101.723 137.932 100.311 139.485" stroke="#202B52" stroke-width="3" stroke-linecap="round"/>
<path d="M98.2651 133.728C97.8409 134.195 96.7329 135.033 96.583 135.67C96.4867 136.08 95.4683 136.905 95.5922 137.225" stroke="#202B52" stroke-width="3" stroke-linecap="round"/>
<path d="M197.023 759.512C191.007 759.512 185.692 757.04 179.82 756.136C174.795 755.363 169.932 753.932 164.814 753.676C162.126 753.541 159.536 753.595 156.863 753.289C153.746 752.933 150.707 752.074 147.632 751.459C145.448 751.023 143.235 750.361 141.023 750.361" stroke="#202B52" stroke-width="3" stroke-linecap="round"/>
<path d="M161.801 781C161.801 774.984 164.273 769.669 165.177 763.797C165.95 758.772 167.381 753.909 167.637 748.791C167.772 746.103 167.718 743.513 168.024 740.84C168.38 737.723 169.239 734.684 169.854 731.609C170.29 729.425 170.952 727.213 170.952 725" stroke="#202B52" stroke-width="3" stroke-linecap="round"/>
<path d="M182.48 776.934C178.198 772.709 176.151 767.216 172.606 762.448C169.572 758.368 167.116 753.933 163.653 750.156C161.835 748.173 159.953 746.392 158.265 744.297C156.297 741.854 154.737 739.108 152.98 736.51C151.733 734.666 150.622 732.641 149.047 731.087" stroke="#202B52" stroke-width="3" stroke-linecap="round"/>
<path d="M191.654 738.91C187.165 742.915 181.554 744.61 176.571 747.845C172.306 750.614 167.725 752.784 163.736 756.001C161.641 757.69 159.744 759.454 157.547 761.006C154.983 762.816 152.144 764.199 149.44 765.787C147.52 766.915 145.429 767.895 143.778 769.368" stroke="#202B52" stroke-width="3" stroke-linecap="round"/>
<path d="M159.182 733.585C159.044 734.832 158.213 736.066 157.817 737.253C157.58 737.963 157.313 738.647 157.11 739.358C156.959 739.887 156.518 740.435 156.518 740.986" stroke="#202B52" stroke-width="3" stroke-linecap="round"/>
<path d="M154.89 730.92C154.89 732.547 153.649 734.289 152.965 735.657" stroke="#202B52" stroke-width="3" stroke-linecap="round"/>
<path d="M156.222 741.726C153.742 741.726 151.448 742.17 148.968 742.17" stroke="#202B52" stroke-width="3" stroke-linecap="round"/>
<path d="M152.373 735.805C151.628 735.805 150.015 735.503 149.338 735.879C148.904 736.12 147.373 735.886 147.192 736.249" stroke="#202B52" stroke-width="3" stroke-linecap="round"/>
<path d="M172.379 774.287C172.502 773.038 173.318 771.794 173.699 770.603C173.927 769.89 174.186 769.203 174.381 768.489C174.525 767.958 174.96 767.405 174.953 766.854" stroke="#202B52" stroke-width="3" stroke-linecap="round"/>
<path d="M176.704 776.899C176.684 775.273 177.904 773.515 178.57 772.139" stroke="#202B52" stroke-width="3" stroke-linecap="round"/>
<path d="M175.24 766.11C177.719 766.08 180.007 765.608 182.487 765.578" stroke="#202B52" stroke-width="3" stroke-linecap="round"/>
<path d="M179.161 771.984C179.905 771.975 181.523 772.257 182.194 771.873C182.625 771.627 184.159 771.842 184.336 771.477" stroke="#202B52" stroke-width="3" stroke-linecap="round"/>
<path d="M188.429 765.117C187.686 764.106 187.462 762.635 186.949 761.494C186.642 760.811 186.376 760.127 186.044 759.466C185.796 758.975 185.75 758.273 185.376 757.867" stroke="#202B52" stroke-width="3" stroke-linecap="round"/>
<path d="M192.055 763.663C190.953 762.466 190.686 760.344 190.262 758.875" stroke="#202B52" stroke-width="3" stroke-linecap="round"/>
<path d="M185.093 757.123C186.917 755.443 188.304 753.563 190.128 751.883" stroke="#202B52" stroke-width="3" stroke-linecap="round"/>
<path d="M190.598 758.365C191.146 757.861 192.537 756.989 192.78 756.255C192.936 755.784 194.221 754.919 194.108 754.529" stroke="#202B52" stroke-width="3" stroke-linecap="round"/>
<path d="M188.06 749.486C186.857 749.126 185.793 748.088 184.696 747.486C184.04 747.125 183.415 746.74 182.752 746.412C182.258 746.169 181.799 745.637 181.256 745.538" stroke="#202B52" stroke-width="3" stroke-linecap="round"/>
<path d="M191.038 745.094C189.437 744.802 187.945 743.269 186.722 742.351" stroke="#202B52" stroke-width="3" stroke-linecap="round"/>
<path d="M180.582 745.114C181.026 742.675 181 740.339 181.445 737.899" stroke="#202B52" stroke-width="3" stroke-linecap="round"/>
<path d="M186.683 741.743C186.817 741.011 187.403 739.477 187.154 738.744C186.995 738.274 187.5 736.81 187.175 736.567" stroke="#202B52" stroke-width="3" stroke-linecap="round"/>
<path d="M176.227 734.805C175.209 735.539 173.737 735.751 172.591 736.255C171.906 736.556 171.22 736.817 170.556 737.143C170.062 737.386 169.361 737.427 168.952 737.797" stroke="#202B52" stroke-width="3" stroke-linecap="round"/>
<path d="M175.009 729.532C173.803 730.624 171.679 730.874 170.206 731.285" stroke="#202B52" stroke-width="3" stroke-linecap="round"/>
<path d="M168.205 738.074C166.541 736.236 164.672 734.834 163.008 732.995" stroke="#202B52" stroke-width="3" stroke-linecap="round"/>
<path d="M169.7 730.946C169.2 730.394 168.34 728.995 167.608 728.746C167.138 728.586 166.284 727.294 165.893 727.403" stroke="#202B52" stroke-width="3" stroke-linecap="round"/>
<path d="M156.186 772.652C157.193 771.903 158.662 771.67 159.8 771.151C160.481 770.84 161.164 770.569 161.823 770.233C162.313 769.983 163.014 769.932 163.418 769.556" stroke="#202B52" stroke-width="3" stroke-linecap="round"/>
<path d="M157.163 777.61C158.353 776.501 160.474 776.221 161.94 775.789" stroke="#202B52" stroke-width="3" stroke-linecap="round"/>
<path d="M164.16 769.27C165.851 771.084 167.739 772.459 169.43 774.274" stroke="#202B52" stroke-width="3" stroke-linecap="round"/>
<path d="M162.452 776.121C162.96 776.666 163.839 778.052 164.575 778.291C165.047 778.444 165.92 779.724 166.309 779.609" stroke="#202B52" stroke-width="3" stroke-linecap="round"/>
<path d="M145.907 760.689C147.151 760.856 148.365 761.715 149.543 762.137C150.248 762.389 150.926 762.672 151.632 762.891C152.157 763.054 152.695 763.507 153.246 763.52" stroke="#202B52" stroke-width="3" stroke-linecap="round"/>
<path d="M143.146 764.921C144.772 764.957 146.487 766.237 147.838 766.951" stroke="#202B52" stroke-width="3" stroke-linecap="round"/>
<path d="M153.979 763.833C153.924 766.312 154.316 768.615 154.26 771.095" stroke="#202B52" stroke-width="3" stroke-linecap="round"/>
<path d="M147.973 767.547C147.956 768.291 147.618 769.898 147.979 770.582C148.21 771.021 147.942 772.547 148.3 772.736" stroke="#202B52" stroke-width="3" stroke-linecap="round"/>
<path d="M147.753 745.797C148.455 746.594 148.754 747.817 149.272 748.741C149.582 749.293 149.858 749.85 150.187 750.383C150.432 750.779 150.524 751.367 150.869 751.681" stroke="#202B52" stroke-width="3" stroke-linecap="round"/>
<path d="M143.64 746.966C144.658 747.892 145.043 749.662 145.509 750.869" stroke="#202B52" stroke-width="3" stroke-linecap="round"/>
<path d="M151.164 752.286C149.752 753.839 148.723 755.528 147.311 757.08" stroke="#202B52" stroke-width="3" stroke-linecap="round"/>
<path d="M145.265 751.324C144.841 751.79 143.733 752.629 143.583 753.266C143.487 753.675 142.468 754.5 142.592 754.821" stroke="#202B52" stroke-width="3" stroke-linecap="round"/>
<path d="M195.908 1086.19C198.689 1080.03 203.681 1075.72 207.322 1070.11C210.438 1065.32 214.154 1060.99 216.783 1055.87C218.163 1053.17 219.306 1050.49 220.855 1047.89C222.661 1044.86 224.947 1042.14 226.999 1039.27C228.456 1037.23 230.157 1035.27 231.18 1033" stroke="#7989B2" stroke-width="3" stroke-linecap="round"/>
<path d="M190.158 1040.14C196.326 1042.93 200.633 1047.92 206.236 1051.56C211.032 1054.67 215.356 1058.39 220.486 1061.02C223.18 1062.4 225.86 1063.54 228.46 1065.09C231.492 1066.9 234.211 1069.18 237.079 1071.24C239.116 1072.69 241.079 1074.39 243.348 1075.42" stroke="#7989B2" stroke-width="3" stroke-linecap="round"/>
<path d="M184.766 1063.23C191.078 1060.79 197.657 1061.23 204.184 1059.8C209.771 1058.58 215.454 1058.11 220.927 1056.3C223.802 1055.36 226.498 1054.25 229.426 1053.49C232.842 1052.6 236.379 1052.27 239.855 1051.67C242.322 1051.24 244.912 1051.04 247.234 1050.14" stroke="#7989B2" stroke-width="3" stroke-linecap="round"/>
<path d="M219.513 1090.21C217.482 1083.76 218.339 1077.22 217.325 1070.62C216.457 1064.96 216.35 1059.26 214.896 1053.69C214.133 1050.76 213.201 1048 212.626 1045.03C211.955 1041.56 211.85 1038.01 211.471 1034.5C211.202 1032.01 211.165 1029.42 210.417 1027.04" stroke="#7989B2" stroke-width="3" stroke-linecap="round"/>
<path d="M239.987 1059.38C238.772 1058.66 237.891 1057.24 236.857 1056.28C236.238 1055.71 235.661 1055.12 235.025 1054.59C234.553 1054.19 234.195 1053.48 233.63 1053.23" stroke="#7989B2" stroke-width="3" stroke-linecap="round"/>
<path d="M244.704 1056.21C243.036 1055.46 241.822 1053.38 240.736 1052.05" stroke="#7989B2" stroke-width="3" stroke-linecap="round"/>
<path d="M233.008 1052.58C234.154 1050.04 234.759 1047.48 235.906 1044.94" stroke="#7989B2" stroke-width="3" stroke-linecap="round"/>
<path d="M240.858 1051.37C241.202 1050.61 242.258 1049.09 242.185 1048.23C242.139 1047.67 243.086 1046.21 242.798 1045.85" stroke="#7989B2" stroke-width="3" stroke-linecap="round"/>
<path d="M192.15 1054.09C193.374 1054.8 194.272 1056.21 195.318 1057.15C195.943 1057.71 196.528 1058.3 197.17 1058.83C197.647 1059.22 198.014 1059.92 198.582 1060.17" stroke="#7989B2" stroke-width="3" stroke-linecap="round"/>
<path d="M187.472 1057.32C189.149 1058.05 190.388 1060.11 191.49 1061.43" stroke="#7989B2" stroke-width="3" stroke-linecap="round"/>
<path d="M199.212 1060.81C198.097 1063.36 197.523 1065.93 196.407 1068.49" stroke="#7989B2" stroke-width="3" stroke-linecap="round"/>
<path d="M191.377 1062.11C191.042 1062.88 190.005 1064.41 190.088 1065.27C190.142 1065.83 189.212 1067.3 189.504 1067.65" stroke="#7989B2" stroke-width="3" stroke-linecap="round"/>
<path d="M194.133 1074.79C195.514 1074.5 197.125 1074.95 198.532 1074.95C199.374 1074.95 200.199 1074.99 201.03 1074.96C201.648 1074.93 202.389 1075.21 202.978 1075.01" stroke="#7989B2" stroke-width="3" stroke-linecap="round"/>
<path d="M193.947 1079.18C195.684 1078.6 197.984 1079.31 199.686 1079.56" stroke="#7989B2" stroke-width="3" stroke-linecap="round"/>
<path d="M203.873 1075.07C204.751 1077.71 206.038 1080 206.917 1082.65" stroke="#7989B2" stroke-width="3" stroke-linecap="round"/>
<path d="M200.054 1080.14C200.318 1080.93 200.568 1082.76 201.208 1083.35C201.62 1083.73 201.912 1085.44 202.364 1085.51" stroke="#7989B2" stroke-width="3" stroke-linecap="round"/>
<path d="M210.331 1081.64C211.256 1080.57 212.813 1079.96 213.938 1079.11C214.61 1078.61 215.295 1078.14 215.937 1077.62C216.415 1077.22 217.173 1077 217.525 1076.49" stroke="#7989B2" stroke-width="3" stroke-linecap="round"/>
<path d="M213.458 1086.72C214.497 1085.22 216.759 1084.4 218.266 1083.57" stroke="#7989B2" stroke-width="3" stroke-linecap="round"/>
<path d="M218.271 1075.99C220.567 1077.57 222.975 1078.63 225.271 1080.21" stroke="#7989B2" stroke-width="3" stroke-linecap="round"/>
<path d="M218.907 1083.81C219.597 1084.28 220.898 1085.59 221.764 1085.68C222.32 1085.73 223.588 1086.92 223.988 1086.7" stroke="#7989B2" stroke-width="3" stroke-linecap="round"/>
<path d="M230.855 1076.29C230.573 1074.91 231.036 1073.3 231.049 1071.89C231.058 1071.05 231.107 1070.23 231.079 1069.4C231.058 1068.78 231.341 1068.04 231.15 1067.45" stroke="#7989B2" stroke-width="3" stroke-linecap="round"/>
<path d="M236.825 1077.48C236.263 1075.74 236.989 1073.45 237.248 1071.75" stroke="#7989B2" stroke-width="3" stroke-linecap="round"/>
<path d="M231.211 1066.56C233.866 1065.7 236.167 1064.43 238.822 1063.57" stroke="#7989B2" stroke-width="3" stroke-linecap="round"/>
<path d="M237.83 1071.38C238.627 1071.13 240.458 1070.89 241.052 1070.26C241.434 1069.85 243.153 1069.57 243.222 1069.12" stroke="#7989B2" stroke-width="3" stroke-linecap="round"/>
<path d="M201.313 1038.25C201.615 1039.62 201.175 1041.24 201.182 1042.65C201.186 1043.49 201.148 1044.31 201.188 1045.14C201.217 1045.76 200.945 1046.5 201.144 1047.09" stroke="#7989B2" stroke-width="3" stroke-linecap="round"/>
<path d="M195.778 1036.96C196.365 1038.69 195.672 1040.99 195.437 1042.7" stroke="#7989B2" stroke-width="3" stroke-linecap="round"/>
<path d="M201.095 1047.99C198.453 1048.88 196.17 1050.18 193.528 1051.08" stroke="#7989B2" stroke-width="3" stroke-linecap="round"/>
<path d="M194.859 1043.07C194.066 1043.33 192.238 1043.6 191.653 1044.24C191.277 1044.65 189.562 1044.96 189.5 1045.41" stroke="#7989B2" stroke-width="3" stroke-linecap="round"/>
<path d="M218.332 1033.24C217.586 1034.43 216.144 1035.28 215.166 1036.29C214.582 1036.9 213.978 1037.46 213.427 1038.09C213.017 1038.55 212.304 1038.89 212.036 1039.45" stroke="#7989B2" stroke-width="3" stroke-linecap="round"/>
<path d="M215.269 1028.45C214.48 1030.1 212.375 1031.27 211.018 1032.32" stroke="#7989B2" stroke-width="3" stroke-linecap="round"/>
<path d="M211.377 1040.06C208.861 1038.86 206.318 1038.19 203.801 1036.99" stroke="#7989B2" stroke-width="3" stroke-linecap="round"/>
<path d="M210.345 1032.18C209.59 1031.82 208.098 1030.73 207.23 1030.79C206.673 1030.82 205.233 1029.84 204.873 1030.12" stroke="#7989B2" stroke-width="3" stroke-linecap="round"/>
<path d="M232.749 1042.01C231.607 1042.37 230.215 1042.11 229.028 1042.21C228.318 1042.27 227.62 1042.3 226.922 1042.39C226.402 1042.46 225.757 1042.28 225.275 1042.49" stroke="#7989B2" stroke-width="3" stroke-linecap="round"/>
<path d="M233.452 1037.26C232.031 1037.87 230.039 1037.45 228.585 1037.37" stroke="#7989B2" stroke-width="3" stroke-linecap="round"/>
<path d="M224.518 1042.51C223.579 1040.35 222.322 1038.51 221.383 1036.34" stroke="#7989B2" stroke-width="3" stroke-linecap="round"/>
<path d="M228.232 1036.91C227.95 1036.26 227.602 1034.73 227.018 1034.29C226.643 1034 226.268 1032.57 225.882 1032.55" stroke="#7989B2" stroke-width="3" stroke-linecap="round"/>
<path d="M85.0229 734.36C78.6852 734.36 73.0851 731.756 66.8988 730.804C61.6039 729.989 56.4804 728.481 51.0883 728.212C48.2567 728.07 45.5277 728.127 42.7118 727.805C39.4272 727.429 36.2255 726.525 32.9855 725.877C30.6854 725.417 28.354 724.72 26.0229 724.72" stroke="#7989B2" stroke-width="3" stroke-linecap="round"/>
<path d="M47.9142 757C47.9142 750.662 50.5187 745.062 51.4704 738.876C52.285 733.581 53.7931 728.457 54.0627 723.065C54.2043 720.234 54.1479 717.505 54.4697 714.689C54.8451 711.404 55.7498 708.203 56.3978 704.963C56.8579 702.662 57.5547 700.331 57.5547 698" stroke="#7989B2" stroke-width="3" stroke-linecap="round"/>
<path d="M69.7012 752.716C65.19 748.265 63.0334 742.477 59.2986 737.455C56.102 733.156 53.5144 728.484 49.8657 724.504C47.9497 722.415 45.9677 720.538 44.1894 718.331C42.1151 715.757 40.4717 712.864 38.6207 710.127C37.3066 708.184 36.1366 706.05 34.4774 704.413" stroke="#7989B2" stroke-width="3" stroke-linecap="round"/>
<path d="M79.3664 712.656C74.6376 716.876 68.7251 718.661 63.4756 722.07C58.9826 724.987 54.1558 727.273 49.9531 730.662C47.7461 732.442 45.7474 734.301 43.4321 735.935C40.7314 737.842 37.7401 739.299 34.8913 740.973C32.8688 742.161 30.6653 743.193 28.926 744.745" stroke="#7989B2" stroke-width="3" stroke-linecap="round"/>
<path d="M45.1548 707.045C45.0088 708.359 44.1333 709.659 43.7165 710.909C43.4671 711.657 43.1854 712.378 42.9714 713.127C42.8121 713.685 42.3475 714.262 42.3475 714.843" stroke="#7989B2" stroke-width="3" stroke-linecap="round"/>
<path d="M40.6323 704.237C40.6323 705.951 39.3252 707.787 38.6049 709.228" stroke="#7989B2" stroke-width="3" stroke-linecap="round"/>
<path d="M42.0361 715.622C39.4236 715.622 37.0071 716.09 34.3942 716.09" stroke="#7989B2" stroke-width="3" stroke-linecap="round"/>
<path d="M37.9814 709.383C37.1969 709.383 35.4966 709.066 34.7843 709.461C34.3269 709.715 32.7141 709.469 32.5229 709.851" stroke="#7989B2" stroke-width="3" stroke-linecap="round"/>
<path d="M59.0586 749.928C59.1886 748.612 60.0481 747.302 60.4496 746.046C60.6898 745.295 60.9627 744.571 61.1675 743.819C61.32 743.26 61.7775 742.677 61.7704 742.096" stroke="#7989B2" stroke-width="3" stroke-linecap="round"/>
<path d="M63.6152 752.68C63.5943 750.966 64.8789 749.114 65.5816 747.665" stroke="#7989B2" stroke-width="3" stroke-linecap="round"/>
<path d="M62.0728 741.312C64.6851 741.281 67.0957 740.783 69.7084 740.751" stroke="#7989B2" stroke-width="3" stroke-linecap="round"/>
<path d="M66.2036 747.501C66.9881 747.492 68.6921 747.789 69.3995 747.384C69.8539 747.125 71.4695 747.351 71.656 746.967" stroke="#7989B2" stroke-width="3" stroke-linecap="round"/>
<path d="M75.9688 740.267C75.186 739.201 74.9498 737.652 74.4094 736.45C74.0861 735.73 73.8052 735.009 73.4553 734.313C73.1949 733.795 73.1459 733.056 72.7522 732.628" stroke="#7989B2" stroke-width="3" stroke-linecap="round"/>
<path d="M79.7891 738.734C78.6282 737.474 78.3461 735.237 77.9003 733.69" stroke="#7989B2" stroke-width="3" stroke-linecap="round"/>
<path d="M72.4536 731.844C74.3756 730.074 75.8365 728.093 77.7587 726.323" stroke="#7989B2" stroke-width="3" stroke-linecap="round"/>
<path d="M78.2537 733.152C78.8309 732.621 80.297 731.703 80.553 730.93C80.7174 730.433 82.0708 729.522 81.9525 729.111" stroke="#7989B2" stroke-width="3" stroke-linecap="round"/>
<path d="M75.5791 723.798C74.3123 723.419 73.1907 722.324 72.0353 721.69C71.3439 721.311 70.6854 720.904 69.9868 720.559C69.467 720.303 68.9827 719.742 68.4109 719.638" stroke="#7989B2" stroke-width="3" stroke-linecap="round"/>
<path d="M78.7168 719.17C77.0307 718.863 75.4586 717.247 74.1705 716.281" stroke="#7989B2" stroke-width="3" stroke-linecap="round"/>
<path d="M67.7007 719.191C68.1691 716.621 68.1421 714.16 68.6105 711.589" stroke="#7989B2" stroke-width="3" stroke-linecap="round"/>
<path d="M74.1293 715.639C74.27 714.868 74.8874 713.252 74.6258 712.48C74.4578 711.985 74.9895 710.442 74.6477 710.186" stroke="#7989B2" stroke-width="3" stroke-linecap="round"/>
<path d="M63.1123 708.33C62.0401 709.104 60.4891 709.327 59.2824 709.858C58.5604 710.175 57.837 710.45 57.1381 710.794C56.618 711.05 55.8785 711.093 55.4477 711.483" stroke="#7989B2" stroke-width="3" stroke-linecap="round"/>
<path d="M61.8301 702.775C60.5596 703.926 58.3211 704.189 56.7698 704.622" stroke="#7989B2" stroke-width="3" stroke-linecap="round"/>
<path d="M54.6616 711.774C52.9081 709.838 50.9393 708.36 49.1856 706.424" stroke="#7989B2" stroke-width="3" stroke-linecap="round"/>
<path d="M56.2362 704.265C55.7097 703.683 54.804 702.209 54.0326 701.947C53.5371 701.778 52.6374 700.417 52.2257 700.532" stroke="#7989B2" stroke-width="3" stroke-linecap="round"/>
<path d="M41.998 748.205C43.0592 747.416 44.6068 747.171 45.8058 746.623C46.5232 746.296 47.2426 746.01 47.9366 745.656C48.453 745.393 49.1918 745.34 49.617 744.943" stroke="#7989B2" stroke-width="3" stroke-linecap="round"/>
<path d="M43.0273 753.428C44.2813 752.259 46.5158 751.964 48.0608 751.509" stroke="#7989B2" stroke-width="3" stroke-linecap="round"/>
<path d="M50.3999 744.641C52.1808 746.552 54.1704 748.001 55.9516 749.913" stroke="#7989B2" stroke-width="3" stroke-linecap="round"/>
<path d="M48.6 751.86C49.1348 752.434 50.0614 753.895 50.8365 754.146C51.3343 754.308 52.2533 755.656 52.6633 755.535" stroke="#7989B2" stroke-width="3" stroke-linecap="round"/>
<path d="M31.1685 735.602C32.4791 735.777 33.7587 736.682 34.9994 737.126C35.7419 737.393 36.4561 737.69 37.2002 737.921C37.7539 738.093 38.3202 738.57 38.9013 738.583" stroke="#7989B2" stroke-width="3" stroke-linecap="round"/>
<path d="M28.2598 740.061C29.9732 740.099 31.7796 741.447 33.2036 742.2" stroke="#7989B2" stroke-width="3" stroke-linecap="round"/>
<path d="M39.6733 738.913C39.6146 741.525 40.028 743.951 39.9693 746.564" stroke="#7989B2" stroke-width="3" stroke-linecap="round"/>
<path d="M33.3457 742.826C33.3281 743.61 32.9722 745.303 33.3518 746.024C33.5956 746.487 33.3129 748.094 33.6908 748.294" stroke="#7989B2" stroke-width="3" stroke-linecap="round"/>
<path d="M33.1138 719.911C33.8534 720.751 34.1685 722.039 34.7139 723.013C35.0403 723.595 35.3311 724.182 35.6782 724.742C35.9365 725.16 36.0331 725.779 36.397 726.11" stroke="#7989B2" stroke-width="3" stroke-linecap="round"/>
<path d="M28.7798 721.143C29.8528 722.119 30.2579 723.983 30.7496 725.254" stroke="#7989B2" stroke-width="3" stroke-linecap="round"/>
<path d="M36.7075 726.748C35.2195 728.384 34.136 730.163 32.6478 731.799" stroke="#7989B2" stroke-width="3" stroke-linecap="round"/>
<path d="M30.4925 725.734C30.0457 726.225 28.8783 727.109 28.7204 727.78C28.6189 728.211 27.546 729.08 27.6764 729.418" stroke="#7989B2" stroke-width="3" stroke-linecap="round"/>
<line x1="2" y1="-2" x2="64.0201" y2="-2" transform="matrix(-1.31134e-07 1 1 1.31134e-07 56.1816 0)" stroke="#5469B5" stroke-width="4" stroke-linecap="round"/>
<line x1="2" y1="-2" x2="11.7826" y2="-2" transform="matrix(-0.804176 0.594391 0.594391 0.804176 66.3013 2.8916)" stroke="#5469B5" stroke-width="4" stroke-linecap="round"/>
<line x1="2" y1="-2" x2="11.7826" y2="-2" transform="matrix(0.804176 0.594391 0.594391 -0.804176 45.0977 0.963867)" stroke="#5469B5" stroke-width="4" stroke-linecap="round"/>
<line x1="2" y1="-2" x2="11.7826" y2="-2" transform="matrix(0.106581 0.994304 0.994304 -0.106581 36.4004 8.19238)" stroke="#5469B5" stroke-width="4" stroke-linecap="round"/>
<line x1="2" y1="-2" x2="11.7826" y2="-2" transform="matrix(0.919274 -0.393618 -0.393618 -0.919274 24.0229 25.5166)" stroke="#5469B5" stroke-width="4" stroke-linecap="round"/>
<line x1="2" y1="-2" x2="11.7826" y2="-2" transform="matrix(0.920606 0.390493 0.390493 -0.920606 24.2173 37.5879)" stroke="#5469B5" stroke-width="4" stroke-linecap="round"/>
<line x1="2" y1="-2" x2="11.7826" y2="-2" transform="matrix(0.103203 -0.99466 -0.99466 -0.103203 33.3335 56.8291)" stroke="#5469B5" stroke-width="4" stroke-linecap="round"/>
<line x1="2" y1="-2" x2="11.7826" y2="-2" transform="matrix(0.812608 -0.582811 -0.582811 -0.812608 43.6816 62.0059)" stroke="#5469B5" stroke-width="4" stroke-linecap="round"/>
<line x1="2" y1="-2" x2="11.7826" y2="-2" transform="matrix(-0.795579 -0.605849 -0.605849 0.795579 64.8555 64.2363)" stroke="#5469B5" stroke-width="4" stroke-linecap="round"/>
<line x1="2" y1="-2" x2="11.7826" y2="-2" transform="matrix(-0.063949 -0.997953 -0.997953 0.063949 73.916 56.7764)" stroke="#5469B5" stroke-width="4" stroke-linecap="round"/>
<line x1="2" y1="-2" x2="11.7826" y2="-2" transform="matrix(-0.935271 0.353933 0.353933 0.935271 87.0229 39.998)" stroke="#5469B5" stroke-width="4" stroke-linecap="round"/>
<line x1="2" y1="-2" x2="11.7826" y2="-2" transform="matrix(-0.925974 -0.377588 -0.377588 0.925974 85.5771 27.3037)" stroke="#5469B5" stroke-width="4" stroke-linecap="round"/>
<line x1="2" y1="-2" x2="11.7826" y2="-2" transform="matrix(-0.0892912 0.996005 0.996005 0.0892912 76.1929 8.19238)" stroke="#5469B5" stroke-width="4" stroke-linecap="round"/>
<line x1="2" y1="-2" x2="13.5183" y2="-2" transform="matrix(0.900551 0.434749 0.434749 -0.900551 55.2178 16.8662)" stroke="#5469B5" stroke-width="4" stroke-linecap="round"/>
<line x1="2" y1="-2" x2="14.3846" y2="-2" transform="matrix(0.882353 0.470588 0.470588 -0.882353 41.7246 39.0342)" stroke="#5469B5" stroke-width="4" stroke-linecap="round"/>
<line x1="2" y1="-2" x2="14.8664" y2="-2" transform="matrix(-8.74228e-08 1 1 8.74228e-08 43.1704 24.0947)" stroke="#5469B5" stroke-width="4" stroke-linecap="round"/>
<line x1="2" y1="-2" x2="14.8664" y2="-2" transform="matrix(-8.74228e-08 1 1 8.74228e-08 69.6748 23.6133)" stroke="#5469B5" stroke-width="4" stroke-linecap="round"/>
<line x1="2" y1="-2" x2="13.7338" y2="-2" transform="matrix(-0.888218 0.459423 0.459423 0.888218 56.1816 18.7939)" stroke="#5469B5" stroke-width="4" stroke-linecap="round"/>
<line x1="2" y1="-2" x2="14.8113" y2="-2" transform="matrix(-0.888621 0.458643 0.458643 0.888621 70.1567 40.9609)" stroke="#5469B5" stroke-width="4" stroke-linecap="round"/>
<line x1="2" y1="-2" x2="64.0201" y2="-2" transform="matrix(0.862451 0.506141 0.506141 -0.862451 27.6743 14.457)" stroke="#5469B5" stroke-width="4" stroke-linecap="round"/>
<line x1="2" y1="-2" x2="64.0201" y2="-2" transform="matrix(0.860631 -0.509229 -0.509229 -0.860631 25.8672 48.0762)" stroke="#5469B5" stroke-width="4" stroke-linecap="round"/>
<line y1="-1" x2="36.2911" y2="-1" transform="matrix(-0.432986 0.901401 0.905124 0.425148 367.731 368.352)" stroke="#5469B5" stroke-width="2"/>
<line y1="-1" x2="36.7196" y2="-1" transform="matrix(0.4955 0.868608 0.873316 -0.487155 351.191 368.352)" stroke="#5469B5" stroke-width="2"/>
<line y1="-1" x2="33.0811" y2="-1" transform="matrix(1 9.03275e-08 9.03933e-08 -1 342.921 383.072)" stroke="#5469B5" stroke-width="2"/>
<line x1="2" y1="-2" x2="10.2673" y2="-2" transform="matrix(-8.74228e-08 1 1 8.74228e-08 359.46 343)" stroke="#5469B5" stroke-width="4" stroke-linecap="round"/>
<line x1="2" y1="-2" x2="9.20562" y2="-2" transform="matrix(-0.811851 0.583864 0.592477 0.805587 367.731 349.542)" stroke="#5469B5" stroke-width="4" stroke-linecap="round"/>
<line x1="2" y1="-2" x2="16.4374" y2="-2" transform="matrix(0.53827 0.842773 0.848171 -0.529723 358.634 352.814)" stroke="#5469B5" stroke-width="4" stroke-linecap="round"/>
<line x1="2" y1="-2" x2="14.1768" y2="-2" transform="matrix(-0.511243 0.859437 0.864398 0.502809 359.46 355.267)" stroke="#5469B5" stroke-width="4" stroke-linecap="round"/>
<line x1="2" y1="-2" x2="10.3559" y2="-2" transform="matrix(0.803208 0.595699 0.604297 -0.796759 350.363 347.09)" stroke="#5469B5" stroke-width="4" stroke-linecap="round"/>
<line x1="2" y1="-2" x2="10.3807" y2="-2" transform="matrix(0.907338 0.420403 0.428192 -0.903688 324.115 363.986)" stroke="#5469B5" stroke-width="4" stroke-linecap="round"/>
<line x1="2" y1="-2" x2="9.12807" y2="-2" transform="matrix(0.191524 0.981488 0.982277 -0.187434 333.615 359.356)" stroke="#5469B5" stroke-width="4" stroke-linecap="round"/>
<line x1="2" y1="-2" x2="16.5819" y2="-2" transform="matrix(0.992351 -0.123447 -0.126198 -0.992005 332.751 368.891)" stroke="#5469B5" stroke-width="4" stroke-linecap="round"/>
<line x1="2" y1="-2" x2="15.3552" y2="-2" transform="matrix(0.531581 0.847007 0.852297 -0.523058 335.348 369.191)" stroke="#5469B5" stroke-width="4" stroke-linecap="round"/>
<line x1="2" y1="-2" x2="10.375" y2="-2" transform="matrix(0.884912 -0.465758 -0.473956 -0.880549 324 373.867)" stroke="#5469B5" stroke-width="4" stroke-linecap="round"/>
<line x1="2" y1="-2" x2="10.3685" y2="-2" transform="matrix(-0.857747 0.514073 0.52256 0.852603 394.196 364.112)" stroke="#5469B5" stroke-width="4" stroke-linecap="round"/>
<line x1="2" y1="-2" x2="9.23014" y2="-2" transform="matrix(-0.923708 -0.383097 -0.390462 0.920619 392.824 374.497)" stroke="#5469B5" stroke-width="4" stroke-linecap="round"/>
<line x1="2" y1="-2" x2="16.4196" y2="-2" transform="matrix(-0.450291 0.892882 0.896873 0.442288 385.28 368.499)" stroke="#5469B5" stroke-width="4" stroke-linecap="round"/>
<line x1="2" y1="-2" x2="15.5168" y2="-2" transform="matrix(-0.999621 -0.0275386 -0.0281617 0.999603 383.587 370.47)" stroke="#5469B5" stroke-width="4" stroke-linecap="round"/>
<line x1="2" y1="-2" x2="10.2686" y2="-2" transform="matrix(-0.0995635 0.995031 0.995247 0.0973801 385.944 358.539)" stroke="#5469B5" stroke-width="4" stroke-linecap="round"/>
<line x1="2" y1="-2" x2="10.3766" y2="-2" transform="matrix(-0.891182 -0.453645 -0.461746 0.887012 394.536 404.775)" stroke="#5469B5" stroke-width="4" stroke-linecap="round"/>
<line x1="2" y1="-2" x2="9.12649" y2="-2" transform="matrix(-0.154483 -0.987996 -0.988512 0.151141 384.868 409.052)" stroke="#5469B5" stroke-width="4" stroke-linecap="round"/>
<line x1="2" y1="-2" x2="16.5835" y2="-2" transform="matrix(-0.996222 0.0868406 0.0887916 0.99605 386.091 399.556)" stroke="#5469B5" stroke-width="4" stroke-linecap="round"/>
<line x1="2" y1="-2" x2="15.8062" y2="-2" transform="matrix(-0.514353 -0.857579 -0.86259 0.505903 383.506 399.161)" stroke="#5469B5" stroke-width="4" stroke-linecap="round"/>
<line x1="2" y1="-2" x2="10.3792" y2="-2" transform="matrix(-0.901523 0.432731 0.440644 0.897682 395.023 394.905)" stroke="#5469B5" stroke-width="4" stroke-linecap="round"/>
<line x1="2" y1="-2" x2="10.2683" y2="-2" transform="matrix(-0.0283032 -0.999599 -0.999617 0.027677 360.407 425)" stroke="#5469B5" stroke-width="4" stroke-linecap="round"/>
<line x1="2" y1="-2" x2="9.20226" y2="-2" transform="matrix(0.795246 -0.606286 -0.614861 -0.788636 351.955 418.689)" stroke="#5469B5" stroke-width="4" stroke-linecap="round"/>
<line x1="2" y1="-2" x2="16.9709" y2="-2" transform="matrix(-0.558362 -0.829598 -0.83532 0.549765 360.956 415.167)" stroke="#5469B5" stroke-width="4" stroke-linecap="round"/>
<line x1="2" y1="-2" x2="14.1724" y2="-2" transform="matrix(0.486849 -0.873486 -0.878055 -0.47856 360.06 412.738)" stroke="#5469B5" stroke-width="4" stroke-linecap="round"/>
<line x1="2" y1="-2" x2="10.3595" y2="-2" transform="matrix(-0.81951 -0.573065 -0.581683 0.813415 369.385 420.66)" stroke="#5469B5" stroke-width="4" stroke-linecap="round"/>
<line x1="2" y1="-2" x2="10.371" y2="-2" transform="matrix(0.868215 -0.496188 -0.504586 -0.863361 324.966 404.364)" stroke="#5469B5" stroke-width="4" stroke-linecap="round"/>
<line x1="2" y1="-2" x2="9.22824" y2="-2" transform="matrix(0.91559 0.402113 0.409704 -0.912218 326.556 394.011)" stroke="#5469B5" stroke-width="4" stroke-linecap="round"/>
<line x1="2" y1="-2" x2="17.6629" y2="-2" transform="matrix(0.413025 -0.91072 -0.914141 -0.405397 333.972 400.163)" stroke="#5469B5" stroke-width="4" stroke-linecap="round"/>
<line x1="2" y1="-2" x2="15.1425" y2="-2" transform="matrix(0.999748 0.022456 0.0229642 -0.999736 335.707 398.227)" stroke="#5469B5" stroke-width="4" stroke-linecap="round"/>
<line x1="2" y1="-2" x2="10.2693" y2="-2" transform="matrix(0.120501 -0.992713 -0.993029 -0.11787 333.098 410.107)" stroke="#5469B5" stroke-width="4" stroke-linecap="round"/>
<line y1="-1" x2="36.2911" y2="-1" transform="matrix(-0.432986 0.901401 0.905124 0.425148 44.7314 1158.35)" stroke="#5469B5" stroke-width="2"/>
<line y1="-1" x2="36.7196" y2="-1" transform="matrix(0.4955 0.868608 0.873316 -0.487155 28.1909 1158.35)" stroke="#5469B5" stroke-width="2"/>
<line y1="-1" x2="33.0811" y2="-1" transform="matrix(1 9.03275e-08 9.03933e-08 -1 19.9209 1173.07)" stroke="#5469B5" stroke-width="2"/>
<line x1="2" y1="-2" x2="10.2673" y2="-2" transform="matrix(-8.74228e-08 1 1 8.74228e-08 36.4604 1133)" stroke="#5469B5" stroke-width="4" stroke-linecap="round"/>
<line x1="2" y1="-2" x2="9.20562" y2="-2" transform="matrix(-0.811851 0.583864 0.592477 0.805587 44.731 1139.54)" stroke="#5469B5" stroke-width="4" stroke-linecap="round"/>
<line x1="2" y1="-2" x2="16.4374" y2="-2" transform="matrix(0.53827 0.842773 0.848171 -0.529723 35.6338 1142.81)" stroke="#5469B5" stroke-width="4" stroke-linecap="round"/>
<line x1="2" y1="-2" x2="14.1768" y2="-2" transform="matrix(-0.511243 0.859437 0.864398 0.502809 36.4604 1145.27)" stroke="#5469B5" stroke-width="4" stroke-linecap="round"/>
<line x1="2" y1="-2" x2="10.3559" y2="-2" transform="matrix(0.803208 0.595699 0.604297 -0.796759 27.3633 1137.09)" stroke="#5469B5" stroke-width="4" stroke-linecap="round"/>
<line x1="2" y1="-2" x2="10.3807" y2="-2" transform="matrix(0.907338 0.420403 0.428192 -0.903688 1.11523 1153.99)" stroke="#5469B5" stroke-width="4" stroke-linecap="round"/>
<line x1="2" y1="-2" x2="9.12807" y2="-2" transform="matrix(0.191524 0.981488 0.982277 -0.187434 10.6152 1149.36)" stroke="#5469B5" stroke-width="4" stroke-linecap="round"/>
<line x1="2" y1="-2" x2="16.5819" y2="-2" transform="matrix(0.992351 -0.123447 -0.126198 -0.992005 9.75098 1158.89)" stroke="#5469B5" stroke-width="4" stroke-linecap="round"/>
<line x1="2" y1="-2" x2="15.3552" y2="-2" transform="matrix(0.531581 0.847007 0.852297 -0.523058 12.3481 1159.19)" stroke="#5469B5" stroke-width="4" stroke-linecap="round"/>
<line x1="2" y1="-2" x2="10.375" y2="-2" transform="matrix(0.884912 -0.465758 -0.473956 -0.880549 1 1163.87)" stroke="#5469B5" stroke-width="4" stroke-linecap="round"/>
<line x1="2" y1="-2" x2="10.3685" y2="-2" transform="matrix(-0.857747 0.514073 0.52256 0.852603 71.1958 1154.11)" stroke="#5469B5" stroke-width="4" stroke-linecap="round"/>
<line x1="2" y1="-2" x2="9.23014" y2="-2" transform="matrix(-0.923708 -0.383097 -0.390462 0.920619 69.8242 1164.5)" stroke="#5469B5" stroke-width="4" stroke-linecap="round"/>
<line x1="2" y1="-2" x2="16.4196" y2="-2" transform="matrix(-0.450291 0.892882 0.896873 0.442288 62.2798 1158.5)" stroke="#5469B5" stroke-width="4" stroke-linecap="round"/>
<line x1="2" y1="-2" x2="15.5168" y2="-2" transform="matrix(-0.999621 -0.0275386 -0.0281617 0.999603 60.5869 1160.47)" stroke="#5469B5" stroke-width="4" stroke-linecap="round"/>
<line x1="2" y1="-2" x2="10.2686" y2="-2" transform="matrix(-0.0995635 0.995031 0.995247 0.0973801 62.9443 1148.54)" stroke="#5469B5" stroke-width="4" stroke-linecap="round"/>
<line x1="2" y1="-2" x2="10.3766" y2="-2" transform="matrix(-0.891182 -0.453645 -0.461746 0.887012 71.5361 1194.78)" stroke="#5469B5" stroke-width="4" stroke-linecap="round"/>
<line x1="2" y1="-2" x2="9.12649" y2="-2" transform="matrix(-0.154483 -0.987996 -0.988512 0.151141 61.8682 1199.05)" stroke="#5469B5" stroke-width="4" stroke-linecap="round"/>
<line x1="2" y1="-2" x2="16.5835" y2="-2" transform="matrix(-0.996222 0.0868406 0.0887916 0.99605 63.0908 1189.56)" stroke="#5469B5" stroke-width="4" stroke-linecap="round"/>
<line x1="2" y1="-2" x2="15.8062" y2="-2" transform="matrix(-0.514353 -0.857579 -0.86259 0.505903 60.5059 1189.16)" stroke="#5469B5" stroke-width="4" stroke-linecap="round"/>
<line x1="2" y1="-2" x2="10.3792" y2="-2" transform="matrix(-0.901523 0.432731 0.440644 0.897682 72.0229 1184.91)" stroke="#5469B5" stroke-width="4" stroke-linecap="round"/>
<line x1="2" y1="-2" x2="10.2683" y2="-2" transform="matrix(-0.0283032 -0.999599 -0.999617 0.027677 37.4067 1215)" stroke="#5469B5" stroke-width="4" stroke-linecap="round"/>
<line x1="2" y1="-2" x2="9.20226" y2="-2" transform="matrix(0.795246 -0.606286 -0.614861 -0.788636 28.9546 1208.69)" stroke="#5469B5" stroke-width="4" stroke-linecap="round"/>
<line x1="2" y1="-2" x2="16.9709" y2="-2" transform="matrix(-0.558362 -0.829598 -0.83532 0.549765 37.9561 1205.17)" stroke="#5469B5" stroke-width="4" stroke-linecap="round"/>
<line x1="2" y1="-2" x2="14.1724" y2="-2" transform="matrix(0.486849 -0.873486 -0.878055 -0.47856 37.0596 1202.74)" stroke="#5469B5" stroke-width="4" stroke-linecap="round"/>
<line x1="2" y1="-2" x2="10.3595" y2="-2" transform="matrix(-0.81951 -0.573065 -0.581683 0.813415 46.3848 1210.66)" stroke="#5469B5" stroke-width="4" stroke-linecap="round"/>
<line x1="2" y1="-2" x2="10.371" y2="-2" transform="matrix(0.868215 -0.496188 -0.504586 -0.863361 1.96582 1194.36)" stroke="#5469B5" stroke-width="4" stroke-linecap="round"/>
<line x1="2" y1="-2" x2="9.22824" y2="-2" transform="matrix(0.91559 0.402113 0.409704 -0.912218 3.55566 1184.01)" stroke="#5469B5" stroke-width="4" stroke-linecap="round"/>
<line x1="2" y1="-2" x2="17.6629" y2="-2" transform="matrix(0.413025 -0.91072 -0.914141 -0.405397 10.9717 1190.16)" stroke="#5469B5" stroke-width="4" stroke-linecap="round"/>
<line x1="2" y1="-2" x2="15.1425" y2="-2" transform="matrix(0.999748 0.022456 0.0229642 -0.999736 12.7065 1188.23)" stroke="#5469B5" stroke-width="4" stroke-linecap="round"/>
<line x1="2" y1="-2" x2="10.2693" y2="-2" transform="matrix(0.120501 -0.992713 -0.993029 -0.11787 10.0977 1200.11)" stroke="#5469B5" stroke-width="4" stroke-linecap="round"/>
<line y1="-1" x2="33.606" y2="-1" transform="matrix(-0.997837 -0.0657375 -0.0657375 0.997837 273.92 993.975)" stroke="#202B52" stroke-width="2"/>
<line y1="-1" x2="33.9809" y2="-1" transform="matrix(-0.628425 0.77787 0.77787 0.628425 268.324 979.866)" stroke="#202B52" stroke-width="2"/>
<line y1="-1" x2="30.3555" y2="-1" transform="matrix(0.36875 0.929529 0.929529 -0.36875 252.828 977.849)" stroke="#202B52" stroke-width="2"/>
<line x1="2" y1="-2" x2="9.38333" y2="-2" transform="matrix(-0.929529 0.36875 0.36875 0.929529 292.99 978.247)" stroke="#202B52" stroke-width="4" stroke-linecap="round"/>
<line x1="2" y1="-2" x2="8.322" y2="-2" transform="matrix(-0.844944 -0.534855 -0.534855 0.844944 290.145 987.539)" stroke="#202B52" stroke-width="4" stroke-linecap="round"/>
<line x1="2" y1="-2" x2="15.0539" y2="-2" transform="matrix(-0.588997 0.808136 0.808136 0.588997 284.245 980.899)" stroke="#202B52" stroke-width="4" stroke-linecap="round"/>
<line x1="2" y1="-2" x2="12.9676" y2="-2" transform="matrix(-0.988156 -0.153452 -0.153452 0.988156 282.409 982.444)" stroke="#202B52" stroke-width="4" stroke-linecap="round"/>
<line x1="2" y1="-2" x2="9.38333" y2="-2" transform="matrix(-0.262718 0.964873 0.964873 0.262718 286.385 971.887)" stroke="#202B52" stroke-width="4" stroke-linecap="round"/>
<line x1="2" y1="-2" x2="9.38333" y2="-2" transform="matrix(-0.0604746 0.99817 0.99817 0.0604746 262.929 955.28)" stroke="#202B52" stroke-width="4" stroke-linecap="round"/>
<line x1="2" y1="-2" x2="8.322" y2="-2" transform="matrix(-0.842825 0.538187 0.538187 0.842825 270.137 961.799)" stroke="#202B52" stroke-width="4" stroke-linecap="round"/>
<line x1="2" y1="-2" x2="15.0539" y2="-2" transform="matrix(0.481885 0.876234 0.876234 -0.481885 261.62 964.323)" stroke="#202B52" stroke-width="4" stroke-linecap="round"/>
<line x1="2" y1="-2" x2="14.0542" y2="-2" transform="matrix(-0.595345 0.80347 0.80347 0.595345 262.24 966.643)" stroke="#202B52" stroke-width="4" stroke-linecap="round"/>
<line x1="2" y1="-2" x2="9.38333" y2="-2" transform="matrix(0.762251 0.647282 0.647282 -0.762251 254.367 958.562)" stroke="#202B52" stroke-width="4" stroke-linecap="round"/>
<line x1="2" y1="-2" x2="9.38333" y2="-2" transform="matrix(-0.797137 -0.603798 -0.603798 0.797137 286.533 1015.1)" stroke="#202B52" stroke-width="4" stroke-linecap="round"/>
<line x1="2" y1="-2" x2="8.322" y2="-2" transform="matrix(0.0194599 -0.999811 -0.999811 -0.0194599 277.111 1017.48)" stroke="#202B52" stroke-width="4" stroke-linecap="round"/>
<line x1="2" y1="-2" x2="15.0539" y2="-2" transform="matrix(-0.996395 -0.084839 -0.084839 0.996395 279.732 1009)" stroke="#202B52" stroke-width="4" stroke-linecap="round"/>
<line x1="2" y1="-2" x2="14.0737" y2="-2" transform="matrix(-0.342721 -0.939437 -0.939437 0.342721 277.459 1008.22)" stroke="#202B52" stroke-width="4" stroke-linecap="round"/>
<line x1="2" y1="-2" x2="9.38333" y2="-2" transform="matrix(-0.961321 0.275431 0.275431 0.961321 288.548 1006.15)" stroke="#202B52" stroke-width="4" stroke-linecap="round"/>
<line x1="2" y1="-2" x2="9.38333" y2="-2" transform="matrix(0.0975733 -0.995228 -0.995228 -0.0975733 251.575 1029.3)" stroke="#202B52" stroke-width="4" stroke-linecap="round"/>
<line x1="2" y1="-2" x2="8.322" y2="-2" transform="matrix(0.862267 -0.506454 -0.506454 -0.862267 244.614 1022.52)" stroke="#202B52" stroke-width="4" stroke-linecap="round"/>
<line x1="2" y1="-2" x2="15.0539" y2="-2" transform="matrix(-0.448948 -0.893558 -0.893558 0.448948 253.219 1020.31)" stroke="#202B52" stroke-width="4" stroke-linecap="round"/>
<line x1="2" y1="-2" x2="14.4747" y2="-2" transform="matrix(0.611381 -0.791336 -0.791336 -0.611381 252.685 1017.97)" stroke="#202B52" stroke-width="4" stroke-linecap="round"/>
<line x1="2" y1="-2" x2="9.38333" y2="-2" transform="matrix(-0.737639 -0.675196 -0.675196 0.737639 260.252 1026.34)" stroke="#202B52" stroke-width="4" stroke-linecap="round"/>
<line x1="2" y1="-2" x2="9.38333" y2="-2" transform="matrix(0.918844 -0.394621 -0.394621 -0.918844 222.581 1007.11)" stroke="#202B52" stroke-width="4" stroke-linecap="round"/>
<line x1="2" y1="-2" x2="8.322" y2="-2" transform="matrix(0.859582 0.510997 0.510997 -0.859582 225.164 997.744)" stroke="#202B52" stroke-width="4" stroke-linecap="round"/>
<line x1="2" y1="-2" x2="15.543" y2="-2" transform="matrix(0.5695 -0.821991 -0.821991 -0.5695 231.248 1004.22)" stroke="#202B52" stroke-width="4" stroke-linecap="round"/>
<line x1="2" y1="-2" x2="12.9676" y2="-2" transform="matrix(0.992064 0.125735 0.125735 -0.992064 233.041 1002.62)" stroke="#202B52" stroke-width="4" stroke-linecap="round"/>
<line x1="2" y1="-2" x2="9.38333" y2="-2" transform="matrix(0.235609 -0.971848 -0.971848 -0.235609 229.362 1013.29)" stroke="#202B52" stroke-width="4" stroke-linecap="round"/>
<line x1="2" y1="-2" x2="9.38333" y2="-2" transform="matrix(0.784384 0.620276 0.620276 -0.784384 228.388 969.822)" stroke="#202B52" stroke-width="4" stroke-linecap="round"/>
<line x1="2" y1="-2" x2="8.322" y2="-2" transform="matrix(-0.040287 0.999188 0.999188 0.040287 237.857 967.636)" stroke="#202B52" stroke-width="4" stroke-linecap="round"/>
<line x1="2" y1="-2" x2="16.2115" y2="-2" transform="matrix(0.999036 0.0438998 0.0438998 -0.999036 235.06 976.065)" stroke="#202B52" stroke-width="4" stroke-linecap="round"/>
<line x1="2" y1="-2" x2="13.7302" y2="-2" transform="matrix(0.347546 0.937663 0.937663 -0.347546 237.316 976.883)" stroke="#202B52" stroke-width="4" stroke-linecap="round"/>
<line x1="2" y1="-2" x2="9.38333" y2="-2" transform="matrix(0.966851 -0.255342 -0.255342 -0.966851 226.186 978.724)" stroke="#202B52" stroke-width="4" stroke-linecap="round"/>
</svg>
