<svg width="365" height="1263" viewBox="0 0 365 1263" fill="none" xmlns="http://www.w3.org/2000/svg">
<path d="M240.587 987.211C241.013 981.864 243.896 973.836 245.284 970.49C251.203 969.714 264.442 968.341 270.044 969.06C275.646 969.778 280.743 973.675 282.591 975.535L278.183 978.579C280.735 979.933 285.589 981.404 289.171 985.157C291.997 988.118 296.624 995.391 296.097 998.598L291.522 999.471C291.711 1000.91 295.345 1004.13 296.714 1012.6C297.722 1018.83 296.852 1025.37 296.715 1026.65C295.669 1026.81 286.59 1026.14 279.475 1024.58C272.331 1023.02 265.518 1018.06 265.001 1017.85L263.663 1021.76C262.555 1021.23 259.497 1019.52 256.125 1016.93C251.91 1013.7 249.585 1010.68 248.02 1007.79C246.767 1005.47 246.3 1001.75 246.224 1000.17L241.211 1000.62C240.826 998.376 240.161 992.557 240.587 987.211Z" fill="#F5C602"/>
<path d="M286.902 1016.62C281.678 1013.36 270.403 1004.34 263.924 996.865C253.348 984.67 245.505 970.744 239.949 962.668" stroke="#432918" stroke-width="3" stroke-linecap="round"/>
<path d="M52.6375 714.557C57.6577 716.342 64.6182 721.176 67.471 723.37C66.6909 729.249 64.5978 742.305 62.4657 747.495C60.3336 752.685 55.281 756.572 53.0212 757.866L51.236 752.852C49.2791 754.952 46.6178 759.23 42.0943 761.701C38.5252 763.65 30.3548 766.215 27.414 764.884L27.7549 760.269C26.3275 760.081 22.3001 762.738 13.8235 761.87C7.58155 761.231 1.52851 758.711 0.339344 758.252C0.459512 757.207 3.43712 748.669 6.7639 742.242C10.1035 735.791 16.616 730.531 16.9479 730.088L13.5408 727.797C14.3385 726.872 16.7709 724.38 20.1186 721.81C24.3032 718.598 27.7975 717.144 30.9787 716.388C33.5236 715.782 37.2183 716.294 38.7476 716.626L39.6136 711.702C41.8632 711.91 47.6173 712.772 52.6375 714.557Z" fill="#F5C602"/>
<path d="M12.4865 751.418C16.9628 747.247 28.5267 738.753 37.3631 734.461C51.788 727.455 67.1702 723.517 76.3499 720.267" stroke="#432918" stroke-width="3" stroke-linecap="round"/>
<path d="M352.915 848.071C351.82 846.026 348.898 842.415 347.574 840.865C348.836 839.027 351.549 834.327 352.308 830.231C353.068 826.136 351.186 823.04 350.15 822.004L342.754 829.611C341.848 826.22 339.464 818.549 337.176 814.994C334.888 811.439 329.557 808.9 327.178 808.075L326.146 813.64C325.75 815.776 325.788 819.712 325.856 821.413L322.295 820.753C322.594 822.036 323.414 825.151 324.297 827.34C325.18 829.53 326.862 832.957 327.593 834.398L304.824 831.788L307.255 837.303L292.869 840.392C294.397 841.673 298.382 844.683 302.101 846.478C305.82 848.272 309.959 849.623 311.564 850.074L310.739 854.525C312.898 854.465 317.899 854.149 320.623 853.365C323.347 852.581 326.831 849.681 328.233 848.33C327.763 849.624 326.651 852.641 325.965 854.355C325.279 856.07 322.804 858.988 321.652 860.232L325.213 860.892L324.502 873.423C327.615 872.772 334.53 870.493 337.281 866.583C340.032 862.673 341.611 857.716 342.056 855.727C342.85 856.411 344.948 858.013 346.985 858.943C349.023 859.873 352.472 860.804 353.942 861.154C354.056 857.645 354.009 850.115 352.915 848.071Z" fill="#EE6A26"/>
<path d="M321.714 842.516C324.5 842.802 332.297 843.05 341.194 841.753C350.091 840.456 357.448 838.934 360.015 838.336" stroke="#603813" stroke-width="3" stroke-linecap="round"/>
<path d="M338.538 842.412C334.906 834.187 332.994 825.959 332.492 822.873" stroke="#603813" stroke-width="3" stroke-linecap="round"/>
<path d="M338.844 842.008C335.076 849.413 333.716 855.178 333.507 857.134" stroke="#603813" stroke-width="3" stroke-linecap="round"/>
<path d="M339.066 842.05L344.113 834.697" stroke="#603813" stroke-width="3" stroke-linecap="round"/>
<path d="M338.539 842.413C340.562 847.392 342.59 849.533 343.351 849.981" stroke="#603813" stroke-width="3" stroke-linecap="round"/>
<path d="M247.488 615.997C248.511 608.654 251.969 600.304 254.746 600.69C257.523 601.077 259.142 610.808 257.546 617.397C257.083 620.723 254.456 623.105 251.679 622.718C248.901 622.331 247.025 619.322 247.488 615.997Z" fill="#A89624"/>
<path d="M268.051 608.726C260.983 603.626 257.293 594.61 259.92 592.183C262.666 592.808 273.65 597.628 275.301 599.119C279.241 602.676 281.438 607.373 278.811 609.8C276.184 612.227 272.169 611.698 268.051 608.726Z" fill="#A89624"/>
<path d="M278.094 594.701C270.017 591.501 261.235 585.837 262.158 583.507C263.08 581.178 274.307 582.795 281.436 586.265C285.094 587.714 287.311 590.777 286.388 593.107C285.465 595.436 281.752 596.15 278.094 594.701Z" fill="#A89624"/>
<path d="M241.841 569.24C249.878 572.54 258.356 578.88 257.116 581.898C255.877 584.917 244.369 583.895 237.353 580.169C233.714 578.675 231.768 575.016 233.007 571.998C234.247 568.98 238.202 567.745 241.841 569.24Z" fill="#A89624"/>
<path d="M280.09 582.807C273.12 579.289 267.699 572.668 269.078 570.719C271.406 571.064 281.368 574.19 283.08 575.237C287.166 577.737 290.205 581.173 288.826 583.122C287.447 585.071 284.152 584.857 280.09 582.807Z" fill="#A89624"/>
<path d="M238.935 600.83C247.57 599.874 255.41 594.264 254.468 591.14C251.824 590.42 240.035 589.405 237.862 589.869C232.674 590.977 228.358 593.777 229.3 596.901C230.242 600.024 233.905 601.387 238.935 600.83Z" fill="#A89624"/>
<path d="M249.092 567.672C255.619 571.115 263.806 570.906 264.632 568.261C263.116 566.495 255.311 560.163 253.561 559.453C249.385 557.76 245.016 557.672 244.19 560.317C243.364 562.963 245.29 565.666 249.092 567.672Z" fill="#A89624"/>
<path d="M267.46 599.912C265.679 598.737 262.821 597.439 260.647 594.184C259.47 592.423 258.596 590.144 258.306 589.224" stroke="#432918" stroke-width="3" stroke-linecap="round"/>
<path d="M253.442 610.049C253.583 606.472 254.887 596.486 261.321 581.131C265.431 571.324 275.383 557.946 281.171 551.242" stroke="#432918" stroke-width="3" stroke-linecap="round"/>
<path d="M242.322 594.683C243.592 594.759 246.577 594.553 248.638 593.973C254.002 592.463 255.685 590.251 257.956 588.858" stroke="#432918" stroke-width="3" stroke-linecap="round"/>
<path d="M273.291 588.442C272.331 588.183 269.408 587.135 265.402 585.018C261.396 582.901 260.797 582.609 260.998 582.728" stroke="#432918" stroke-width="3" stroke-linecap="round"/>
<path d="M245.061 577.691C245.406 577.965 246.728 578.775 249.252 579.823C251.776 580.871 257.923 582.036 260.682 582.487" stroke="#432918" stroke-width="3" stroke-linecap="round"/>
<path d="M277.916 576.738C276.267 575.959 272.623 574.09 271.233 572.846C269.842 571.603 268.326 570.074 267.742 569.464" stroke="#432918" stroke-width="3" stroke-linecap="round"/>
<path d="M267.802 569.571C267.333 569.533 265.434 569.141 261.6 567.881C257.765 566.62 255.877 565.751 255.412 565.474" stroke="#432918" stroke-width="3" stroke-linecap="round"/>
<path d="M240.587 388.502C241.013 383.155 243.896 375.127 245.284 371.781C251.203 371.005 264.442 369.632 270.044 370.351C275.646 371.069 280.743 374.966 282.591 376.826L278.183 379.87C280.735 381.224 285.589 382.695 289.171 386.448C291.997 389.409 296.624 396.682 296.097 399.889L291.522 400.762C291.711 402.199 295.345 405.421 296.714 413.888C297.722 420.123 296.852 426.665 296.715 427.941C295.669 428.097 286.59 427.431 279.475 425.874C272.331 424.311 265.518 419.352 265.001 419.145L263.663 423.055C262.555 422.521 259.497 420.807 256.125 418.223C251.91 414.993 249.585 411.976 248.02 409.08C246.767 406.764 246.3 403.039 246.224 401.465L241.211 401.908C240.826 399.667 240.161 393.848 240.587 388.502Z" fill="#F5C602"/>
<path d="M286.902 417.915C281.678 414.652 270.403 405.627 263.924 398.156C253.348 385.961 245.505 372.035 239.949 363.959" stroke="#432918" stroke-width="3" stroke-linecap="round"/>
<path d="M52.6375 115.848C57.6577 117.633 64.6182 122.467 67.471 124.661C66.6909 130.54 64.5978 143.596 62.4657 148.786C60.3336 153.976 55.281 157.863 53.0212 159.157L51.236 154.143C49.2791 156.243 46.6178 160.521 42.0943 162.992C38.5252 164.941 30.3548 167.506 27.414 166.175L27.7549 161.56C26.3275 161.372 22.3001 164.029 13.8235 163.161C7.58155 162.522 1.52851 160.002 0.339344 159.543C0.459512 158.498 3.43712 149.96 6.7639 143.533C10.1035 137.082 16.616 131.822 16.9479 131.379L13.5408 129.088C14.3385 128.163 16.7709 125.671 20.1186 123.101C24.3032 119.889 27.7975 118.435 30.9787 117.679C33.5236 117.073 37.2183 117.585 38.7476 117.917L39.6136 112.993C41.8632 113.201 47.6173 114.063 52.6375 115.848Z" fill="#F5C602"/>
<path d="M12.4865 152.709C16.9628 148.538 28.5267 140.044 37.3631 135.752C51.788 128.746 67.1702 124.808 76.3499 121.558" stroke="#432918" stroke-width="3" stroke-linecap="round"/>
<path d="M293.915 45.0708C292.82 43.0261 289.898 39.4148 288.574 37.8647C289.836 36.0266 292.549 31.3266 293.308 27.2313C294.068 23.136 292.186 20.0398 291.15 19.0036L283.754 26.6111C282.848 23.22 280.464 15.549 278.176 11.9938C275.888 8.43868 270.557 5.90018 268.178 5.07532L267.146 10.6396C266.75 12.7763 266.788 16.7124 266.856 18.4134L263.295 17.7531C263.594 19.0365 264.414 22.1506 265.297 24.3403C266.18 26.53 267.862 29.9575 268.593 31.3975L245.824 28.7879L248.255 34.3034L233.869 37.3918C235.397 38.6727 239.382 41.683 243.101 43.4776C246.82 45.2722 250.959 46.6228 252.564 47.0738L251.739 51.5252C253.898 51.4652 258.899 51.1491 261.623 50.3649C264.347 49.5806 267.831 46.6812 269.233 45.3295C268.763 46.6237 267.651 49.6406 266.965 51.3552C266.279 53.0697 263.804 55.9875 262.652 57.2321L266.213 57.8923L265.502 70.4226C268.615 69.772 275.53 67.4932 278.281 63.5829C281.032 59.6727 282.611 54.7163 283.056 52.7269C283.85 53.4113 285.948 55.0127 287.985 55.943C290.023 56.8733 293.472 57.8044 294.942 58.1537C295.056 54.6447 295.009 47.1154 293.915 45.0708Z" fill="#EE6A26"/>
<path d="M262.714 39.5156C265.5 39.802 273.297 40.0503 282.194 38.7529C291.091 37.4556 298.448 35.9342 301.015 35.3357" stroke="#603813" stroke-width="3" stroke-linecap="round"/>
<path d="M279.538 39.4118C275.906 31.1871 273.994 22.959 273.492 19.873" stroke="#603813" stroke-width="3" stroke-linecap="round"/>
<path d="M279.844 39.0079C276.076 46.4133 274.716 52.1775 274.507 54.134" stroke="#603813" stroke-width="3" stroke-linecap="round"/>
<path d="M280.066 39.0498L285.113 31.6975" stroke="#603813" stroke-width="3" stroke-linecap="round"/>
<path d="M279.539 39.4126C281.562 44.3922 283.59 46.5333 284.351 46.9813" stroke="#603813" stroke-width="3" stroke-linecap="round"/>
<path d="M41.7533 247.033C48.729 249.542 56.1911 254.642 55.2419 257.28C54.2928 259.919 44.4367 259.503 38.3162 256.588C35.157 255.451 33.3654 252.391 34.3146 249.752C35.2637 247.114 38.5941 245.896 41.7533 247.033Z" fill="#A89624"/>
<path d="M44.6436 268.651C51.088 262.782 60.6691 261.022 62.5049 264.092C61.3285 266.651 54.3549 276.411 52.5569 277.72C48.2654 280.845 43.2179 282.03 41.3821 278.96C39.5463 275.89 40.8892 272.07 44.6436 268.651Z" fill="#A89624"/>
<path d="M56.3074 281.361C61.0985 274.114 68.4464 266.683 70.5364 268.065C72.6264 269.447 68.7368 280.102 63.876 286.365C61.7063 289.647 58.253 291.188 56.163 289.806C54.073 288.424 54.1376 284.643 56.3074 281.361Z" fill="#A89624"/>
<path d="M88.6738 251.114C83.7929 258.301 75.8455 265.295 73.1464 263.462C70.4474 261.629 73.8113 250.577 78.8998 244.476C81.1102 241.221 85.0901 240.069 87.7891 241.902C90.4882 243.735 90.8843 247.859 88.6738 251.114Z" fill="#A89624"/>
<path d="M67.5366 285.759C72.4118 279.66 80.0056 275.716 81.6296 277.466C80.8135 279.673 75.707 288.78 74.3306 290.241C71.0451 293.726 67.0574 295.994 65.4334 294.244C63.8094 292.494 64.6965 289.313 67.5366 285.759Z" fill="#A89624"/>
<path d="M58.3549 241.778C57.5162 250.425 61.3958 259.251 64.6464 258.971C65.8946 256.532 69.3104 245.203 69.3028 242.98C69.2846 237.675 67.4309 232.876 64.1803 233.156C60.9297 233.436 58.8435 236.741 58.3549 241.778Z" fill="#A89624"/>
<path d="M88.718 258.532C84.0075 264.212 82.5294 272.267 84.9485 273.619C86.9886 272.499 94.7893 266.161 95.8431 264.594C98.3584 260.855 99.3419 256.598 96.9229 255.245C94.5039 253.893 91.4622 255.222 88.718 258.532Z" fill="#A89624"/>
<path d="M53.3916 269.884C54.9079 268.383 56.7655 265.852 60.3975 264.393C62.3631 263.603 64.773 263.216 65.7323 263.122" stroke="#432918" stroke-width="3" stroke-linecap="round"/>
<path d="M46.3516 254.083C49.8233 254.955 59.3284 258.283 73.0335 267.736C81.7864 273.773 92.8345 286.261 98.2057 293.303" stroke="#432918" stroke-width="3" stroke-linecap="round"/>
<path d="M63.674 246.357C63.3388 247.584 62.9268 250.548 63.0711 252.685C63.4467 258.244 65.2662 260.346 66.1624 262.854" stroke="#432918" stroke-width="3" stroke-linecap="round"/>
<path d="M63.4188 277.948C63.8698 277.061 65.4957 274.415 68.3909 270.93C71.2861 267.445 71.6948 266.918 71.5372 267.09" stroke="#432918" stroke-width="3" stroke-linecap="round"/>
<path d="M79.7417 252.528C79.4023 252.81 78.3376 253.937 76.7936 256.192C75.2495 258.447 72.8464 264.224 71.8378 266.83" stroke="#432918" stroke-width="3" stroke-linecap="round"/>
<path d="M73.9226 284.878C75.024 283.425 77.6025 280.242 79.1047 279.137C80.607 278.032 82.4155 276.863 83.132 276.416" stroke="#432918" stroke-width="3" stroke-linecap="round"/>
<path d="M83.0151 276.454C83.1488 276.002 83.9217 274.224 85.9435 270.731C87.9654 267.237 89.2035 265.568 89.5698 265.17" stroke="#432918" stroke-width="3" stroke-linecap="round"/>
<path d="M69.8579 1248.31C70.8803 1240.96 74.3381 1232.61 77.1154 1233C79.8927 1233.39 81.5112 1243.12 79.9153 1249.71C79.4522 1253.03 76.8255 1255.41 74.0482 1255.03C71.2709 1254.64 69.3949 1251.63 69.8579 1248.31Z" fill="#EE6A26"/>
<path d="M90.4211 1241.04C83.353 1235.93 79.6622 1226.92 82.2893 1224.49C85.0357 1225.12 96.0198 1229.94 97.6705 1231.43C101.61 1234.99 103.808 1239.68 101.181 1242.11C98.5534 1244.54 94.5388 1244.01 90.4211 1241.04Z" fill="#EE6A26"/>
<path d="M100.464 1227.01C92.387 1223.81 83.6044 1218.15 84.5273 1215.82C85.4501 1213.49 96.6769 1215.1 103.806 1218.57C107.463 1220.02 109.68 1223.09 108.758 1225.42C107.835 1227.74 104.122 1228.46 100.464 1227.01Z" fill="#EE6A26"/>
<path d="M64.2108 1201.55C72.2472 1204.85 80.7254 1211.19 79.486 1214.21C78.2467 1217.23 66.7388 1216.2 59.7227 1212.48C56.0833 1210.98 54.1376 1207.33 55.3769 1204.31C56.6163 1201.29 60.5713 1200.05 64.2108 1201.55Z" fill="#EE6A26"/>
<path d="M102.46 1215.12C95.4892 1211.6 90.0684 1204.98 91.4474 1203.03C93.7757 1203.37 103.738 1206.5 105.45 1207.55C109.536 1210.05 112.575 1213.48 111.196 1215.43C109.817 1217.38 106.521 1217.17 102.46 1215.12Z" fill="#EE6A26"/>
<path d="M61.3047 1233.14C69.9395 1232.18 77.7798 1226.57 76.8378 1223.45C74.1941 1222.73 62.405 1221.71 60.2314 1222.18C55.0434 1223.29 50.7277 1226.09 51.6696 1229.21C52.6116 1232.33 56.2742 1233.7 61.3047 1233.14Z" fill="#EE6A26"/>
<path d="M71.4619 1199.98C77.9889 1203.42 86.1753 1203.21 87.0016 1200.57C85.486 1198.8 77.6804 1192.47 75.9309 1191.76C71.7551 1190.07 67.3861 1189.98 66.5597 1192.63C65.7334 1195.27 67.6594 1197.97 71.4619 1199.98Z" fill="#EE6A26"/>
<path d="M89.8293 1232.22C88.0486 1231.05 85.1908 1229.75 83.0161 1226.49C81.8393 1224.73 80.9655 1222.45 80.6757 1221.53" stroke="#432918" stroke-width="3" stroke-linecap="round"/>
<path d="M75.8122 1242.36C75.9529 1238.78 77.2566 1228.8 83.6913 1213.44C87.801 1203.63 97.753 1190.26 103.54 1183.55" stroke="#432918" stroke-width="3" stroke-linecap="round"/>
<path d="M64.6917 1226.99C65.9616 1227.07 68.9471 1226.86 71.0081 1226.28C76.3718 1224.77 78.0552 1222.56 80.3254 1221.17" stroke="#432918" stroke-width="3" stroke-linecap="round"/>
<path d="M95.6611 1220.75C94.7003 1220.49 91.7771 1219.44 87.7714 1217.33C83.7657 1215.21 83.1662 1214.92 83.3672 1215.04" stroke="#432918" stroke-width="3" stroke-linecap="round"/>
<path d="M67.4303 1210C67.7757 1210.27 69.0977 1211.08 71.6215 1212.13C74.1453 1213.18 80.293 1214.35 83.0514 1214.8" stroke="#432918" stroke-width="3" stroke-linecap="round"/>
<path d="M100.285 1209.05C98.6369 1208.27 94.9923 1206.4 93.6022 1205.16C92.2121 1203.91 90.6959 1202.38 90.1116 1201.77" stroke="#432918" stroke-width="3" stroke-linecap="round"/>
<path d="M90.1724 1201.88C89.7025 1201.84 87.8041 1201.45 83.9697 1200.19C80.1353 1198.93 78.2469 1198.06 77.7821 1197.78" stroke="#432918" stroke-width="3" stroke-linecap="round"/>
</svg>
