<svg width="396" height="1215" viewBox="0 0 396 1215" fill="none" xmlns="http://www.w3.org/2000/svg">
<path d="M246 141.916C252.016 141.916 257.331 139.444 263.203 138.54C268.228 137.767 273.091 136.336 278.209 136.08C280.897 135.946 283.487 135.999 286.16 135.694C289.277 135.337 292.316 134.479 295.391 133.864C297.575 133.427 299.787 132.766 302 132.766" stroke="#202B52" stroke-width="3" stroke-linecap="round"/>
<path d="M281.222 163.404C281.222 157.389 278.75 152.073 277.846 146.202C277.073 141.176 275.642 136.313 275.386 131.195C275.251 128.508 275.305 125.917 274.999 123.245C274.643 120.127 273.784 117.088 273.169 114.013C272.733 111.83 272.071 109.617 272.071 107.404" stroke="#202B52" stroke-width="3" stroke-linecap="round"/>
<path d="M260.543 159.338C264.825 155.113 266.872 149.62 270.417 144.853C273.451 140.772 275.907 136.338 279.37 132.561C281.188 130.577 283.07 128.796 284.757 126.701C286.726 124.258 288.286 121.512 290.043 118.914C291.29 117.07 292.401 115.045 293.976 113.491" stroke="#202B52" stroke-width="3" stroke-linecap="round"/>
<path d="M251.369 121.315C255.857 125.32 261.469 127.014 266.452 130.25C270.716 133.019 275.298 135.189 279.287 138.405C281.382 140.094 283.279 141.859 285.476 143.41C288.04 145.22 290.879 146.603 293.583 148.191C295.502 149.319 297.594 150.299 299.245 151.772" stroke="#202B52" stroke-width="3" stroke-linecap="round"/>
<path d="M283.841 115.989C283.979 117.237 284.81 118.47 285.206 119.657C285.443 120.367 285.71 121.051 285.913 121.762C286.064 122.291 286.505 122.839 286.505 123.391" stroke="#202B52" stroke-width="3" stroke-linecap="round"/>
<path d="M288.133 113.324C288.133 114.951 289.374 116.694 290.058 118.061" stroke="#202B52" stroke-width="3" stroke-linecap="round"/>
<path d="M286.801 124.13C289.281 124.13 291.575 124.574 294.055 124.574" stroke="#202B52" stroke-width="3" stroke-linecap="round"/>
<path d="M290.65 118.209C291.395 118.209 293.008 117.908 293.684 118.283C294.119 118.524 295.649 118.291 295.831 118.653" stroke="#202B52" stroke-width="3" stroke-linecap="round"/>
<path d="M270.644 156.691C270.521 155.442 269.705 154.199 269.324 153.007C269.096 152.294 268.837 151.607 268.642 150.893C268.498 150.363 268.063 149.81 268.07 149.258" stroke="#202B52" stroke-width="3" stroke-linecap="round"/>
<path d="M266.319 159.304C266.339 157.677 265.119 155.919 264.452 154.544" stroke="#202B52" stroke-width="3" stroke-linecap="round"/>
<path d="M267.783 148.515C265.304 148.484 263.016 148.012 260.536 147.982" stroke="#202B52" stroke-width="3" stroke-linecap="round"/>
<path d="M263.862 154.388C263.118 154.379 261.5 154.661 260.829 154.277C260.398 154.031 258.864 154.246 258.687 153.881" stroke="#202B52" stroke-width="3" stroke-linecap="round"/>
<path d="M254.594 147.521C255.337 146.51 255.561 145.04 256.074 143.899C256.381 143.216 256.647 142.531 256.979 141.871C257.227 141.379 257.273 140.678 257.647 140.272" stroke="#202B52" stroke-width="3" stroke-linecap="round"/>
<path d="M250.968 146.067C252.07 144.871 252.337 142.748 252.761 141.279" stroke="#202B52" stroke-width="3" stroke-linecap="round"/>
<path d="M257.93 139.527C256.106 137.848 254.719 135.968 252.895 134.288" stroke="#202B52" stroke-width="3" stroke-linecap="round"/>
<path d="M252.425 140.769C251.877 140.265 250.486 139.394 250.243 138.659C250.087 138.188 248.802 137.323 248.915 136.933" stroke="#202B52" stroke-width="3" stroke-linecap="round"/>
<path d="M254.963 131.891C256.166 131.531 257.23 130.492 258.327 129.89C258.983 129.53 259.608 129.144 260.271 128.817C260.765 128.573 261.224 128.041 261.767 127.942" stroke="#202B52" stroke-width="3" stroke-linecap="round"/>
<path d="M251.985 127.498C253.586 127.206 255.078 125.673 256.3 124.756" stroke="#202B52" stroke-width="3" stroke-linecap="round"/>
<path d="M262.441 127.519C261.997 125.079 262.022 122.743 261.578 120.303" stroke="#202B52" stroke-width="3" stroke-linecap="round"/>
<path d="M256.34 124.147C256.206 123.415 255.62 121.881 255.868 121.149C256.028 120.678 255.523 119.214 255.848 118.971" stroke="#202B52" stroke-width="3" stroke-linecap="round"/>
<path d="M266.796 117.209C267.814 117.943 269.286 118.155 270.432 118.659C271.117 118.96 271.803 119.221 272.467 119.548C272.96 119.791 273.662 119.831 274.071 120.202" stroke="#202B52" stroke-width="3" stroke-linecap="round"/>
<path d="M268.014 111.937C269.22 113.028 271.344 113.278 272.817 113.689" stroke="#202B52" stroke-width="3" stroke-linecap="round"/>
<path d="M274.818 120.479C276.482 118.64 278.351 117.238 280.015 115.4" stroke="#202B52" stroke-width="3" stroke-linecap="round"/>
<path d="M273.323 113.35C273.823 112.798 274.683 111.4 275.415 111.151C275.885 110.991 276.739 109.699 277.13 109.808" stroke="#202B52" stroke-width="3" stroke-linecap="round"/>
<path d="M286.837 155.057C285.83 154.308 284.361 154.075 283.223 153.555C282.542 153.244 281.859 152.974 281.2 152.638C280.71 152.387 280.009 152.337 279.605 151.961" stroke="#202B52" stroke-width="3" stroke-linecap="round"/>
<path d="M285.86 160.015C284.67 158.906 282.549 158.625 281.083 158.194" stroke="#202B52" stroke-width="3" stroke-linecap="round"/>
<path d="M278.863 151.674C277.172 153.488 275.284 154.864 273.593 156.678" stroke="#202B52" stroke-width="3" stroke-linecap="round"/>
<path d="M280.571 158.525C280.063 159.07 279.184 160.457 278.448 160.695C277.976 160.848 277.103 162.128 276.714 162.013" stroke="#202B52" stroke-width="3" stroke-linecap="round"/>
<path d="M297.116 143.094C295.872 143.26 294.658 144.119 293.48 144.541C292.775 144.794 292.097 145.076 291.391 145.295C290.866 145.458 290.328 145.912 289.777 145.924" stroke="#202B52" stroke-width="3" stroke-linecap="round"/>
<path d="M299.877 147.325C298.251 147.362 296.536 148.641 295.185 149.356" stroke="#202B52" stroke-width="3" stroke-linecap="round"/>
<path d="M289.043 146.237C289.099 148.716 288.707 151.019 288.763 153.499" stroke="#202B52" stroke-width="3" stroke-linecap="round"/>
<path d="M295.05 149.951C295.067 150.695 295.405 152.302 295.044 152.986C294.813 153.426 295.081 154.951 294.723 155.14" stroke="#202B52" stroke-width="3" stroke-linecap="round"/>
<path d="M295.27 128.201C294.568 128.998 294.269 130.221 293.751 131.145C293.441 131.698 293.165 132.255 292.836 132.787C292.591 133.183 292.499 133.771 292.154 134.085" stroke="#202B52" stroke-width="3" stroke-linecap="round"/>
<path d="M299.383 129.37C298.365 130.297 297.98 132.066 297.514 133.273" stroke="#202B52" stroke-width="3" stroke-linecap="round"/>
<path d="M291.859 134.69C293.271 136.243 294.3 137.932 295.712 139.485" stroke="#202B52" stroke-width="3" stroke-linecap="round"/>
<path d="M297.758 133.728C298.182 134.195 299.29 135.033 299.44 135.67C299.536 136.08 300.555 136.905 300.431 137.225" stroke="#202B52" stroke-width="3" stroke-linecap="round"/>
<path d="M199 759.512C205.016 759.512 210.331 757.04 216.203 756.136C221.228 755.363 226.091 753.932 231.209 753.676C233.897 753.541 236.487 753.595 239.16 753.289C242.277 752.933 245.316 752.074 248.391 751.459C250.575 751.023 252.787 750.361 255 750.361" stroke="#202B52" stroke-width="3" stroke-linecap="round"/>
<path d="M234.222 781C234.222 774.984 231.75 769.669 230.846 763.797C230.073 758.772 228.642 753.909 228.386 748.791C228.251 746.103 228.305 743.513 227.999 740.84C227.643 737.723 226.784 734.684 226.169 731.609C225.733 729.425 225.071 727.213 225.071 725" stroke="#202B52" stroke-width="3" stroke-linecap="round"/>
<path d="M213.543 776.934C217.825 772.709 219.872 767.216 223.417 762.448C226.451 758.368 228.907 753.933 232.37 750.156C234.188 748.173 236.07 746.392 237.757 744.297C239.726 741.854 241.286 739.108 243.043 736.51C244.29 734.666 245.401 732.641 246.976 731.087" stroke="#202B52" stroke-width="3" stroke-linecap="round"/>
<path d="M204.369 738.91C208.857 742.915 214.469 744.61 219.452 747.845C223.716 750.614 228.298 752.784 232.287 756.001C234.382 757.69 236.279 759.454 238.476 761.006C241.04 762.816 243.879 764.199 246.583 765.787C248.502 766.915 250.594 767.895 252.245 769.368" stroke="#202B52" stroke-width="3" stroke-linecap="round"/>
<path d="M236.841 733.585C236.979 734.832 237.81 736.066 238.206 737.253C238.443 737.963 238.71 738.647 238.913 739.358C239.064 739.887 239.505 740.435 239.505 740.986" stroke="#202B52" stroke-width="3" stroke-linecap="round"/>
<path d="M241.133 730.92C241.133 732.547 242.374 734.289 243.058 735.657" stroke="#202B52" stroke-width="3" stroke-linecap="round"/>
<path d="M239.801 741.726C242.281 741.726 244.575 742.17 247.055 742.17" stroke="#202B52" stroke-width="3" stroke-linecap="round"/>
<path d="M243.65 735.805C244.395 735.805 246.008 735.503 246.684 735.879C247.119 736.12 248.649 735.886 248.831 736.249" stroke="#202B52" stroke-width="3" stroke-linecap="round"/>
<path d="M223.644 774.287C223.521 773.038 222.705 771.794 222.324 770.603C222.096 769.89 221.837 769.203 221.642 768.489C221.498 767.958 221.063 767.405 221.07 766.854" stroke="#202B52" stroke-width="3" stroke-linecap="round"/>
<path d="M219.319 776.899C219.339 775.273 218.119 773.515 217.452 772.139" stroke="#202B52" stroke-width="3" stroke-linecap="round"/>
<path d="M220.783 766.11C218.304 766.08 216.016 765.608 213.536 765.578" stroke="#202B52" stroke-width="3" stroke-linecap="round"/>
<path d="M216.862 771.984C216.118 771.975 214.5 772.257 213.829 771.873C213.398 771.627 211.864 771.842 211.687 771.477" stroke="#202B52" stroke-width="3" stroke-linecap="round"/>
<path d="M207.594 765.117C208.337 764.106 208.561 762.635 209.074 761.494C209.381 760.811 209.647 760.127 209.979 759.466C210.227 758.975 210.273 758.273 210.647 757.867" stroke="#202B52" stroke-width="3" stroke-linecap="round"/>
<path d="M203.968 763.663C205.07 762.466 205.337 760.344 205.761 758.875" stroke="#202B52" stroke-width="3" stroke-linecap="round"/>
<path d="M210.93 757.123C209.106 755.443 207.719 753.563 205.895 751.883" stroke="#202B52" stroke-width="3" stroke-linecap="round"/>
<path d="M205.425 758.365C204.877 757.861 203.486 756.989 203.243 756.255C203.087 755.784 201.802 754.919 201.915 754.529" stroke="#202B52" stroke-width="3" stroke-linecap="round"/>
<path d="M207.963 749.486C209.166 749.126 210.23 748.088 211.327 747.486C211.983 747.125 212.608 746.74 213.271 746.412C213.765 746.169 214.224 745.637 214.767 745.538" stroke="#202B52" stroke-width="3" stroke-linecap="round"/>
<path d="M204.985 745.094C206.586 744.802 208.078 743.269 209.3 742.351" stroke="#202B52" stroke-width="3" stroke-linecap="round"/>
<path d="M215.441 745.114C214.997 742.675 215.022 740.339 214.578 737.899" stroke="#202B52" stroke-width="3" stroke-linecap="round"/>
<path d="M209.34 741.743C209.206 741.011 208.62 739.477 208.868 738.744C209.028 738.274 208.523 736.81 208.848 736.567" stroke="#202B52" stroke-width="3" stroke-linecap="round"/>
<path d="M219.796 734.805C220.814 735.539 222.286 735.751 223.432 736.255C224.117 736.556 224.803 736.817 225.467 737.143C225.96 737.386 226.662 737.427 227.071 737.797" stroke="#202B52" stroke-width="3" stroke-linecap="round"/>
<path d="M221.014 729.532C222.22 730.624 224.344 730.874 225.817 731.285" stroke="#202B52" stroke-width="3" stroke-linecap="round"/>
<path d="M227.818 738.074C229.482 736.236 231.351 734.834 233.015 732.995" stroke="#202B52" stroke-width="3" stroke-linecap="round"/>
<path d="M226.323 730.946C226.823 730.394 227.683 728.995 228.415 728.746C228.885 728.586 229.739 727.294 230.13 727.403" stroke="#202B52" stroke-width="3" stroke-linecap="round"/>
<path d="M239.837 772.652C238.83 771.903 237.361 771.67 236.223 771.151C235.542 770.84 234.859 770.569 234.2 770.233C233.71 769.983 233.009 769.932 232.605 769.556" stroke="#202B52" stroke-width="3" stroke-linecap="round"/>
<path d="M238.86 777.61C237.67 776.501 235.549 776.221 234.083 775.789" stroke="#202B52" stroke-width="3" stroke-linecap="round"/>
<path d="M231.863 769.27C230.172 771.084 228.284 772.459 226.593 774.274" stroke="#202B52" stroke-width="3" stroke-linecap="round"/>
<path d="M233.571 776.121C233.063 776.666 232.184 778.052 231.448 778.291C230.976 778.444 230.103 779.724 229.714 779.609" stroke="#202B52" stroke-width="3" stroke-linecap="round"/>
<path d="M250.116 760.689C248.872 760.856 247.658 761.715 246.48 762.137C245.775 762.389 245.097 762.672 244.391 762.891C243.866 763.054 243.328 763.507 242.777 763.52" stroke="#202B52" stroke-width="3" stroke-linecap="round"/>
<path d="M252.877 764.921C251.251 764.957 249.536 766.237 248.185 766.951" stroke="#202B52" stroke-width="3" stroke-linecap="round"/>
<path d="M242.043 763.833C242.099 766.312 241.707 768.615 241.763 771.095" stroke="#202B52" stroke-width="3" stroke-linecap="round"/>
<path d="M248.05 767.547C248.067 768.291 248.405 769.898 248.044 770.582C247.813 771.021 248.081 772.547 247.723 772.736" stroke="#202B52" stroke-width="3" stroke-linecap="round"/>
<path d="M248.27 745.797C247.568 746.594 247.269 747.817 246.751 748.741C246.441 749.293 246.165 749.85 245.836 750.383C245.591 750.779 245.499 751.367 245.154 751.681" stroke="#202B52" stroke-width="3" stroke-linecap="round"/>
<path d="M252.383 746.966C251.365 747.892 250.98 749.662 250.514 750.869" stroke="#202B52" stroke-width="3" stroke-linecap="round"/>
<path d="M244.859 752.286C246.271 753.839 247.3 755.528 248.712 757.08" stroke="#202B52" stroke-width="3" stroke-linecap="round"/>
<path d="M250.758 751.324C251.182 751.79 252.29 752.629 252.44 753.266C252.536 753.675 253.555 754.5 253.431 754.821" stroke="#202B52" stroke-width="3" stroke-linecap="round"/>
<path d="M200.115 1086.19C197.334 1080.03 192.342 1075.72 188.701 1070.11C185.585 1065.32 181.869 1060.99 179.24 1055.87C177.86 1053.17 176.717 1050.49 175.168 1047.89C173.362 1044.86 171.076 1042.14 169.024 1039.27C167.567 1037.23 165.865 1035.27 164.843 1033" stroke="#7989B2" stroke-width="3" stroke-linecap="round"/>
<path d="M205.865 1040.14C199.697 1042.93 195.39 1047.92 189.787 1051.56C184.991 1054.67 180.666 1058.39 175.537 1061.02C172.843 1062.4 170.163 1063.54 167.563 1065.09C164.531 1066.9 161.812 1069.18 158.943 1071.24C156.907 1072.69 154.944 1074.39 152.675 1075.42" stroke="#7989B2" stroke-width="3" stroke-linecap="round"/>
<path d="M211.257 1063.23C204.945 1060.79 198.366 1061.23 191.839 1059.8C186.252 1058.58 180.569 1058.11 175.096 1056.3C172.221 1055.36 169.525 1054.25 166.596 1053.49C163.181 1052.6 159.644 1052.27 156.168 1051.67C153.701 1051.24 151.111 1051.04 148.789 1050.14" stroke="#7989B2" stroke-width="3" stroke-linecap="round"/>
<path d="M176.51 1090.21C178.541 1083.76 177.684 1077.22 178.698 1070.62C179.566 1064.96 179.673 1059.26 181.127 1053.69C181.89 1050.76 182.822 1048 183.397 1045.03C184.068 1041.56 184.173 1038.01 184.552 1034.5C184.821 1032.01 184.858 1029.42 185.606 1027.04" stroke="#7989B2" stroke-width="3" stroke-linecap="round"/>
<path d="M156.036 1059.38C157.251 1058.66 158.132 1057.24 159.166 1056.28C159.785 1055.71 160.362 1055.12 160.998 1054.59C161.47 1054.19 161.828 1053.48 162.393 1053.23" stroke="#7989B2" stroke-width="3" stroke-linecap="round"/>
<path d="M151.319 1056.21C152.987 1055.46 154.201 1053.38 155.287 1052.05" stroke="#7989B2" stroke-width="3" stroke-linecap="round"/>
<path d="M163.015 1052.58C161.869 1050.04 161.264 1047.48 160.117 1044.94" stroke="#7989B2" stroke-width="3" stroke-linecap="round"/>
<path d="M155.165 1051.37C154.821 1050.61 153.765 1049.09 153.838 1048.23C153.884 1047.67 152.937 1046.21 153.225 1045.85" stroke="#7989B2" stroke-width="3" stroke-linecap="round"/>
<path d="M203.873 1054.09C202.649 1054.8 201.751 1056.21 200.705 1057.15C200.08 1057.71 199.495 1058.3 198.853 1058.83C198.376 1059.22 198.009 1059.92 197.441 1060.17" stroke="#7989B2" stroke-width="3" stroke-linecap="round"/>
<path d="M208.551 1057.32C206.874 1058.05 205.635 1060.11 204.533 1061.43" stroke="#7989B2" stroke-width="3" stroke-linecap="round"/>
<path d="M196.811 1060.81C197.926 1063.36 198.5 1065.93 199.616 1068.49" stroke="#7989B2" stroke-width="3" stroke-linecap="round"/>
<path d="M204.646 1062.11C204.981 1062.88 206.018 1064.41 205.935 1065.27C205.881 1065.83 206.811 1067.3 206.518 1067.65" stroke="#7989B2" stroke-width="3" stroke-linecap="round"/>
<path d="M201.89 1074.79C200.509 1074.5 198.898 1074.95 197.491 1074.95C196.649 1074.95 195.824 1074.99 194.993 1074.96C194.375 1074.93 193.634 1075.21 193.045 1075.01" stroke="#7989B2" stroke-width="3" stroke-linecap="round"/>
<path d="M202.076 1079.18C200.339 1078.6 198.039 1079.31 196.337 1079.56" stroke="#7989B2" stroke-width="3" stroke-linecap="round"/>
<path d="M192.15 1075.07C191.272 1077.71 189.985 1080 189.106 1082.65" stroke="#7989B2" stroke-width="3" stroke-linecap="round"/>
<path d="M195.969 1080.14C195.705 1080.93 195.455 1082.76 194.815 1083.35C194.403 1083.73 194.11 1085.44 193.659 1085.51" stroke="#7989B2" stroke-width="3" stroke-linecap="round"/>
<path d="M185.692 1081.64C184.767 1080.57 183.21 1079.96 182.085 1079.11C181.413 1078.61 180.728 1078.14 180.086 1077.62C179.608 1077.22 178.85 1077 178.498 1076.49" stroke="#7989B2" stroke-width="3" stroke-linecap="round"/>
<path d="M182.564 1086.72C181.525 1085.22 179.264 1084.4 177.757 1083.57" stroke="#7989B2" stroke-width="3" stroke-linecap="round"/>
<path d="M177.751 1075.99C175.456 1077.57 173.048 1078.63 170.752 1080.21" stroke="#7989B2" stroke-width="3" stroke-linecap="round"/>
<path d="M177.116 1083.81C176.426 1084.28 175.125 1085.59 174.259 1085.68C173.703 1085.73 172.435 1086.92 172.035 1086.7" stroke="#7989B2" stroke-width="3" stroke-linecap="round"/>
<path d="M165.167 1076.29C165.45 1074.91 164.987 1073.3 164.973 1071.89C164.965 1071.05 164.916 1070.23 164.944 1069.4C164.965 1068.78 164.682 1068.04 164.873 1067.45" stroke="#7989B2" stroke-width="3" stroke-linecap="round"/>
<path d="M159.198 1077.48C159.76 1075.74 159.034 1073.45 158.775 1071.75" stroke="#7989B2" stroke-width="3" stroke-linecap="round"/>
<path d="M164.812 1066.56C162.157 1065.7 159.856 1064.43 157.201 1063.57" stroke="#7989B2" stroke-width="3" stroke-linecap="round"/>
<path d="M158.193 1071.38C157.396 1071.13 155.565 1070.89 154.971 1070.26C154.589 1069.85 152.87 1069.57 152.801 1069.12" stroke="#7989B2" stroke-width="3" stroke-linecap="round"/>
<path d="M194.71 1038.25C194.408 1039.62 194.848 1041.24 194.841 1042.65C194.837 1043.49 194.875 1044.31 194.835 1045.14C194.806 1045.76 195.078 1046.5 194.879 1047.09" stroke="#7989B2" stroke-width="3" stroke-linecap="round"/>
<path d="M200.245 1036.96C199.658 1038.69 200.351 1040.99 200.586 1042.7" stroke="#7989B2" stroke-width="3" stroke-linecap="round"/>
<path d="M194.928 1047.99C197.57 1048.88 199.853 1050.18 202.495 1051.08" stroke="#7989B2" stroke-width="3" stroke-linecap="round"/>
<path d="M201.164 1043.07C201.957 1043.33 203.785 1043.6 204.37 1044.24C204.746 1044.65 206.461 1044.96 206.523 1045.41" stroke="#7989B2" stroke-width="3" stroke-linecap="round"/>
<path d="M177.691 1033.24C178.437 1034.43 179.879 1035.28 180.856 1036.29C181.441 1036.9 182.045 1037.46 182.596 1038.09C183.006 1038.55 183.719 1038.89 183.987 1039.45" stroke="#7989B2" stroke-width="3" stroke-linecap="round"/>
<path d="M180.754 1028.45C181.543 1030.1 183.648 1031.27 185.005 1032.32" stroke="#7989B2" stroke-width="3" stroke-linecap="round"/>
<path d="M184.646 1040.06C187.162 1038.86 189.705 1038.19 192.222 1036.99" stroke="#7989B2" stroke-width="3" stroke-linecap="round"/>
<path d="M185.678 1032.18C186.433 1031.82 187.925 1030.73 188.793 1030.79C189.35 1030.82 190.79 1029.84 191.15 1030.12" stroke="#7989B2" stroke-width="3" stroke-linecap="round"/>
<path d="M163.274 1042.01C164.416 1042.37 165.808 1042.11 166.995 1042.21C167.705 1042.27 168.403 1042.3 169.101 1042.39C169.621 1042.46 170.266 1042.28 170.748 1042.49" stroke="#7989B2" stroke-width="3" stroke-linecap="round"/>
<path d="M162.571 1037.26C163.992 1037.87 165.984 1037.45 167.438 1037.37" stroke="#7989B2" stroke-width="3" stroke-linecap="round"/>
<path d="M171.505 1042.51C172.444 1040.35 173.701 1038.51 174.64 1036.34" stroke="#7989B2" stroke-width="3" stroke-linecap="round"/>
<path d="M167.791 1036.91C168.073 1036.26 168.421 1034.73 169.005 1034.29C169.38 1034 169.755 1032.57 170.141 1032.55" stroke="#7989B2" stroke-width="3" stroke-linecap="round"/>
<path d="M311 734.36C317.338 734.36 322.938 731.756 329.124 730.804C334.419 729.989 339.543 728.481 344.935 728.212C347.766 728.07 350.495 728.127 353.311 727.805C356.596 727.429 359.797 726.525 363.037 725.877C365.338 725.417 367.669 724.72 370 724.72" stroke="#7989B2" stroke-width="3" stroke-linecap="round"/>
<path d="M348.109 757C348.109 750.662 345.504 745.062 344.553 738.876C343.738 733.581 342.23 728.457 341.96 723.065C341.819 720.234 341.875 717.505 341.553 714.689C341.178 711.404 340.273 708.203 339.625 704.963C339.165 702.662 338.468 700.331 338.468 698" stroke="#7989B2" stroke-width="3" stroke-linecap="round"/>
<path d="M326.322 752.716C330.833 748.265 332.99 742.477 336.724 737.455C339.921 733.156 342.509 728.484 346.157 724.504C348.073 722.415 350.055 720.538 351.834 718.331C353.908 715.757 355.551 712.864 357.402 710.127C358.716 708.184 359.886 706.05 361.546 704.413" stroke="#7989B2" stroke-width="3" stroke-linecap="round"/>
<path d="M316.657 712.656C321.385 716.876 327.298 718.661 332.547 722.07C337.04 724.987 341.867 727.273 346.07 730.662C348.277 732.442 350.276 734.301 352.591 735.935C355.292 737.842 358.283 739.299 361.132 740.973C363.154 742.161 365.358 743.193 367.097 744.745" stroke="#7989B2" stroke-width="3" stroke-linecap="round"/>
<path d="M350.868 707.045C351.014 708.359 351.89 709.659 352.306 710.909C352.556 711.657 352.838 712.378 353.052 713.127C353.211 713.685 353.675 714.262 353.675 714.843" stroke="#7989B2" stroke-width="3" stroke-linecap="round"/>
<path d="M355.391 704.237C355.391 705.951 356.698 707.787 357.418 709.228" stroke="#7989B2" stroke-width="3" stroke-linecap="round"/>
<path d="M353.987 715.622C356.599 715.622 359.016 716.09 361.629 716.09" stroke="#7989B2" stroke-width="3" stroke-linecap="round"/>
<path d="M358.042 709.383C358.826 709.383 360.526 709.066 361.239 709.461C361.696 709.715 363.309 709.469 363.5 709.851" stroke="#7989B2" stroke-width="3" stroke-linecap="round"/>
<path d="M336.964 749.928C336.834 748.612 335.975 747.302 335.573 746.046C335.333 745.295 335.06 744.571 334.855 743.819C334.703 743.26 334.245 742.677 334.253 742.096" stroke="#7989B2" stroke-width="3" stroke-linecap="round"/>
<path d="M332.408 752.68C332.429 750.966 331.144 749.114 330.441 747.665" stroke="#7989B2" stroke-width="3" stroke-linecap="round"/>
<path d="M333.95 741.312C331.338 741.281 328.927 740.783 326.315 740.751" stroke="#7989B2" stroke-width="3" stroke-linecap="round"/>
<path d="M329.819 747.501C329.035 747.492 327.331 747.789 326.623 747.384C326.169 747.125 324.553 747.351 324.367 746.967" stroke="#7989B2" stroke-width="3" stroke-linecap="round"/>
<path d="M320.054 740.267C320.837 739.201 321.073 737.652 321.614 736.45C321.937 735.73 322.218 735.009 322.568 734.313C322.828 733.795 322.877 733.056 323.271 732.628" stroke="#7989B2" stroke-width="3" stroke-linecap="round"/>
<path d="M316.234 738.734C317.395 737.474 317.677 735.237 318.123 733.69" stroke="#7989B2" stroke-width="3" stroke-linecap="round"/>
<path d="M323.569 731.844C321.647 730.074 320.186 728.093 318.264 726.323" stroke="#7989B2" stroke-width="3" stroke-linecap="round"/>
<path d="M317.769 733.152C317.192 732.621 315.726 731.703 315.47 730.93C315.306 730.433 313.952 729.522 314.07 729.111" stroke="#7989B2" stroke-width="3" stroke-linecap="round"/>
<path d="M320.444 723.798C321.711 723.419 322.832 722.324 323.988 721.69C324.679 721.311 325.338 720.904 326.036 720.559C326.556 720.303 327.04 719.742 327.612 719.638" stroke="#7989B2" stroke-width="3" stroke-linecap="round"/>
<path d="M317.306 719.17C318.992 718.863 320.564 717.247 321.852 716.281" stroke="#7989B2" stroke-width="3" stroke-linecap="round"/>
<path d="M328.322 719.191C327.854 716.621 327.881 714.16 327.412 711.589" stroke="#7989B2" stroke-width="3" stroke-linecap="round"/>
<path d="M321.894 715.639C321.753 714.868 321.136 713.252 321.397 712.48C321.565 711.985 321.033 710.442 321.375 710.186" stroke="#7989B2" stroke-width="3" stroke-linecap="round"/>
<path d="M332.911 708.33C333.983 709.104 335.534 709.327 336.741 709.858C337.463 710.175 338.186 710.45 338.885 710.794C339.405 711.05 340.144 711.093 340.575 711.483" stroke="#7989B2" stroke-width="3" stroke-linecap="round"/>
<path d="M334.193 702.775C335.463 703.926 337.702 704.189 339.253 704.622" stroke="#7989B2" stroke-width="3" stroke-linecap="round"/>
<path d="M341.361 711.774C343.115 709.838 345.084 708.36 346.837 706.424" stroke="#7989B2" stroke-width="3" stroke-linecap="round"/>
<path d="M339.787 704.265C340.313 703.683 341.219 702.209 341.99 701.947C342.486 701.778 343.386 700.417 343.797 700.532" stroke="#7989B2" stroke-width="3" stroke-linecap="round"/>
<path d="M354.025 748.205C352.964 747.416 351.416 747.171 350.217 746.623C349.5 746.296 348.78 746.01 348.086 745.656C347.57 745.393 346.831 745.34 346.406 744.943" stroke="#7989B2" stroke-width="3" stroke-linecap="round"/>
<path d="M352.996 753.428C351.742 752.259 349.507 751.964 347.962 751.509" stroke="#7989B2" stroke-width="3" stroke-linecap="round"/>
<path d="M345.623 744.641C343.842 746.552 341.853 748.001 340.071 749.913" stroke="#7989B2" stroke-width="3" stroke-linecap="round"/>
<path d="M347.423 751.86C346.888 752.434 345.962 753.895 345.186 754.146C344.689 754.308 343.77 755.656 343.36 755.535" stroke="#7989B2" stroke-width="3" stroke-linecap="round"/>
<path d="M364.854 735.602C363.544 735.777 362.264 736.682 361.024 737.126C360.281 737.393 359.567 737.69 358.823 737.921C358.269 738.093 357.703 738.57 357.122 738.583" stroke="#7989B2" stroke-width="3" stroke-linecap="round"/>
<path d="M367.763 740.061C366.05 740.099 364.243 741.447 362.819 742.2" stroke="#7989B2" stroke-width="3" stroke-linecap="round"/>
<path d="M356.35 738.913C356.408 741.525 355.995 743.951 356.054 746.564" stroke="#7989B2" stroke-width="3" stroke-linecap="round"/>
<path d="M362.677 742.826C362.695 743.61 363.051 745.303 362.671 746.024C362.427 746.487 362.71 748.094 362.332 748.294" stroke="#7989B2" stroke-width="3" stroke-linecap="round"/>
<path d="M362.909 719.911C362.17 720.751 361.854 722.039 361.309 723.013C360.983 723.595 360.692 724.182 360.345 724.742C360.086 725.16 359.99 725.779 359.626 726.11" stroke="#7989B2" stroke-width="3" stroke-linecap="round"/>
<path d="M367.243 721.143C366.17 722.119 365.765 723.983 365.273 725.254" stroke="#7989B2" stroke-width="3" stroke-linecap="round"/>
<path d="M359.315 726.748C360.803 728.384 361.887 730.163 363.375 731.799" stroke="#7989B2" stroke-width="3" stroke-linecap="round"/>
<path d="M365.53 725.734C365.977 726.225 367.145 727.109 367.303 727.78C367.404 728.211 368.477 729.08 368.347 729.418" stroke="#7989B2" stroke-width="3" stroke-linecap="round"/>
<line x1="341.841" y1="2" x2="341.841" y2="64.0201" stroke="#5469B5" stroke-width="4" stroke-linecap="round"/>
<line x1="332.519" y1="2.47203" x2="340.386" y2="8.28674" stroke="#5469B5" stroke-width="4" stroke-linecap="round"/>
<line x1="350.506" y1="3.761" x2="342.639" y2="9.57571" stroke="#5469B5" stroke-width="4" stroke-linecap="round"/>
<line x1="361.398" y1="10.3942" x2="360.355" y2="20.1211" stroke="#5469B5" stroke-width="4" stroke-linecap="round"/>
<line x1="369.374" y1="26.5679" x2="360.381" y2="22.7173" stroke="#5469B5" stroke-width="4" stroke-linecap="round"/>
<line x1="370.745" y1="40.2101" x2="361.74" y2="44.0301" stroke="#5469B5" stroke-width="4" stroke-linecap="round"/>
<line x1="360.494" y1="55.0462" x2="359.484" y2="45.3158" stroke="#5469B5" stroke-width="4" stroke-linecap="round"/>
<line x1="349.55" y1="62.4655" x2="341.601" y2="56.764" stroke="#5469B5" stroke-width="4" stroke-linecap="round"/>
<line x1="331.547" y1="61.4335" x2="339.33" y2="55.5067" stroke="#5469B5" stroke-width="4" stroke-linecap="round"/>
<line x1="320.239" y1="54.6526" x2="320.865" y2="44.8899" stroke="#5469B5" stroke-width="4" stroke-linecap="round"/>
<line x1="311.578" y1="38.8354" x2="320.728" y2="42.2978" stroke="#5469B5" stroke-width="4" stroke-linecap="round"/>
<line x1="311.543" y1="24.6966" x2="320.601" y2="21.0028" stroke="#5469B5" stroke-width="4" stroke-linecap="round"/>
<line x1="322.001" y1="10.0058" x2="322.874" y2="19.7494" stroke="#5469B5" stroke-width="4" stroke-linecap="round"/>
<line x1="339.874" y1="19.5368" x2="329.501" y2="24.5444" stroke="#5469B5" stroke-width="4" stroke-linecap="round"/>
<line x1="353.475" y1="41.7401" x2="342.547" y2="47.5681" stroke="#5469B5" stroke-width="4" stroke-linecap="round"/>
<line x1="354.853" y1="26.0947" x2="354.853" y2="38.9612" stroke="#5469B5" stroke-width="4" stroke-linecap="round"/>
<line x1="328.348" y1="25.6133" x2="328.348" y2="38.4797" stroke="#5469B5" stroke-width="4" stroke-linecap="round"/>
<line x1="342.537" y1="17.9364" x2="352.959" y2="23.3271" stroke="#5469B5" stroke-width="4" stroke-linecap="round"/>
<line x1="328.561" y1="40.101" x2="339.945" y2="45.9768" stroke="#5469B5" stroke-width="4" stroke-linecap="round"/>
<line x1="367.636" y1="17.1942" x2="314.147" y2="48.5851" stroke="#5469B5" stroke-width="4" stroke-linecap="round"/>
<line x1="367.416" y1="48.779" x2="314.04" y2="17.1965" stroke="#5469B5" stroke-width="4" stroke-linecap="round"/>
<line y1="-1" x2="36.2911" y2="-1" transform="matrix(0.432986 0.901401 -0.905124 0.425148 28.2915 368.352)" stroke="#5469B5" stroke-width="2"/>
<line y1="-1" x2="36.7196" y2="-1" transform="matrix(-0.4955 0.868608 -0.873316 -0.487155 44.832 368.352)" stroke="#5469B5" stroke-width="2"/>
<line x1="53.1021" y1="384.072" x2="20.021" y2="384.072" stroke="#5469B5" stroke-width="2"/>
<line x1="38.5625" y1="345" x2="38.5625" y2="353.267" stroke="#5469B5" stroke-width="4" stroke-linecap="round"/>
<line x1="2" y1="-2" x2="9.20562" y2="-2" transform="matrix(0.811851 0.583864 -0.592477 0.805587 28.292 349.542)" stroke="#5469B5" stroke-width="4" stroke-linecap="round"/>
<line x1="2" y1="-2" x2="16.4374" y2="-2" transform="matrix(-0.53827 0.842773 -0.848171 -0.529723 37.3892 352.814)" stroke="#5469B5" stroke-width="4" stroke-linecap="round"/>
<line x1="2" y1="-2" x2="14.1768" y2="-2" transform="matrix(0.511242 0.859437 -0.864398 0.502809 36.5625 355.267)" stroke="#5469B5" stroke-width="4" stroke-linecap="round"/>
<line x1="2" y1="-2" x2="10.3559" y2="-2" transform="matrix(-0.803208 0.595699 -0.604297 -0.796759 45.6597 347.09)" stroke="#5469B5" stroke-width="4" stroke-linecap="round"/>
<line x1="2" y1="-2" x2="10.3807" y2="-2" transform="matrix(-0.907338 0.420403 -0.428192 -0.903688 71.9077 363.986)" stroke="#5469B5" stroke-width="4" stroke-linecap="round"/>
<line x1="2" y1="-2" x2="9.12807" y2="-2" transform="matrix(-0.191524 0.981488 -0.982277 -0.187434 62.4077 359.356)" stroke="#5469B5" stroke-width="4" stroke-linecap="round"/>
<line x1="2" y1="-2" x2="16.5819" y2="-2" transform="matrix(-0.992351 -0.123447 0.126198 -0.992005 63.272 368.891)" stroke="#5469B5" stroke-width="4" stroke-linecap="round"/>
<line x1="2" y1="-2" x2="15.3552" y2="-2" transform="matrix(-0.531582 0.847007 -0.852297 -0.523058 60.6748 369.191)" stroke="#5469B5" stroke-width="4" stroke-linecap="round"/>
<line x1="2" y1="-2" x2="10.375" y2="-2" transform="matrix(-0.884912 -0.465758 0.473956 -0.880548 72.0229 373.867)" stroke="#5469B5" stroke-width="4" stroke-linecap="round"/>
<line x1="2" y1="-2" x2="10.3685" y2="-2" transform="matrix(0.857747 0.514073 -0.52256 0.852603 1.82715 364.112)" stroke="#5469B5" stroke-width="4" stroke-linecap="round"/>
<line x1="2" y1="-2" x2="9.23014" y2="-2" transform="matrix(0.923708 -0.383097 0.390462 0.920619 3.19873 374.497)" stroke="#5469B5" stroke-width="4" stroke-linecap="round"/>
<line x1="2" y1="-2" x2="16.4196" y2="-2" transform="matrix(0.450291 0.892882 -0.896873 0.442288 10.7432 368.499)" stroke="#5469B5" stroke-width="4" stroke-linecap="round"/>
<line x1="2" y1="-2" x2="15.5168" y2="-2" transform="matrix(0.999621 -0.0275385 0.0281616 0.999603 12.436 370.47)" stroke="#5469B5" stroke-width="4" stroke-linecap="round"/>
<line x1="2" y1="-2" x2="10.2686" y2="-2" transform="matrix(0.0995634 0.995031 -0.995247 0.09738 10.0786 358.539)" stroke="#5469B5" stroke-width="4" stroke-linecap="round"/>
<line x1="2" y1="-2" x2="10.3766" y2="-2" transform="matrix(0.891182 -0.453645 0.461746 0.887012 1.48682 404.775)" stroke="#5469B5" stroke-width="4" stroke-linecap="round"/>
<line x1="2" y1="-2" x2="9.12649" y2="-2" transform="matrix(0.154483 -0.987996 0.988512 0.151141 11.1548 409.053)" stroke="#5469B5" stroke-width="4" stroke-linecap="round"/>
<line x1="2" y1="-2" x2="16.5835" y2="-2" transform="matrix(0.996222 0.0868407 -0.0887917 0.99605 9.93213 399.556)" stroke="#5469B5" stroke-width="4" stroke-linecap="round"/>
<line x1="2" y1="-2" x2="15.8062" y2="-2" transform="matrix(0.514353 -0.857579 0.86259 0.505903 12.5171 399.161)" stroke="#5469B5" stroke-width="4" stroke-linecap="round"/>
<line x1="2" y1="-2" x2="10.3792" y2="-2" transform="matrix(0.901523 0.432731 -0.440644 0.897682 1 394.905)" stroke="#5469B5" stroke-width="4" stroke-linecap="round"/>
<line x1="2" y1="-2" x2="10.2683" y2="-2" transform="matrix(0.0283033 -0.999599 0.999617 0.0276771 35.6162 425)" stroke="#5469B5" stroke-width="4" stroke-linecap="round"/>
<line x1="2" y1="-2" x2="9.20226" y2="-2" transform="matrix(-0.795246 -0.606287 0.614861 -0.788636 44.0684 418.689)" stroke="#5469B5" stroke-width="4" stroke-linecap="round"/>
<line x1="2" y1="-2" x2="16.9709" y2="-2" transform="matrix(0.558362 -0.829597 0.83532 0.549765 35.0669 415.167)" stroke="#5469B5" stroke-width="4" stroke-linecap="round"/>
<line x1="2" y1="-2" x2="14.1724" y2="-2" transform="matrix(-0.486849 -0.873486 0.878055 -0.47856 35.9634 412.738)" stroke="#5469B5" stroke-width="4" stroke-linecap="round"/>
<line x1="2" y1="-2" x2="10.3595" y2="-2" transform="matrix(0.81951 -0.573065 0.581683 0.813415 26.6382 420.66)" stroke="#5469B5" stroke-width="4" stroke-linecap="round"/>
<line x1="2" y1="-2" x2="10.371" y2="-2" transform="matrix(-0.868215 -0.496188 0.504586 -0.863361 71.0571 404.364)" stroke="#5469B5" stroke-width="4" stroke-linecap="round"/>
<line x1="2" y1="-2" x2="9.22824" y2="-2" transform="matrix(-0.91559 0.402113 -0.409704 -0.912218 69.4673 394.011)" stroke="#5469B5" stroke-width="4" stroke-linecap="round"/>
<line x1="2" y1="-2" x2="17.6629" y2="-2" transform="matrix(-0.413025 -0.91072 0.914141 -0.405397 62.0513 400.163)" stroke="#5469B5" stroke-width="4" stroke-linecap="round"/>
<line x1="2" y1="-2" x2="15.1425" y2="-2" transform="matrix(-0.999748 0.0224559 -0.0229641 -0.999736 60.3164 398.227)" stroke="#5469B5" stroke-width="4" stroke-linecap="round"/>
<line x1="2" y1="-2" x2="10.2693" y2="-2" transform="matrix(-0.120501 -0.992713 0.993029 -0.11787 62.9253 410.107)" stroke="#5469B5" stroke-width="4" stroke-linecap="round"/>
<line y1="-1" x2="36.2911" y2="-1" transform="matrix(0.432986 0.901401 -0.905124 0.425148 351.292 1158.35)" stroke="#5469B5" stroke-width="2"/>
<line y1="-1" x2="36.7196" y2="-1" transform="matrix(-0.4955 0.868608 -0.873316 -0.487155 367.832 1158.35)" stroke="#5469B5" stroke-width="2"/>
<line x1="376.102" y1="1174.07" x2="343.021" y2="1174.07" stroke="#5469B5" stroke-width="2"/>
<line x1="361.562" y1="1135" x2="361.562" y2="1143.27" stroke="#5469B5" stroke-width="4" stroke-linecap="round"/>
<line x1="2" y1="-2" x2="9.20562" y2="-2" transform="matrix(0.811851 0.583864 -0.592477 0.805587 351.292 1139.54)" stroke="#5469B5" stroke-width="4" stroke-linecap="round"/>
<line x1="2" y1="-2" x2="16.4374" y2="-2" transform="matrix(-0.53827 0.842773 -0.848171 -0.529723 360.389 1142.81)" stroke="#5469B5" stroke-width="4" stroke-linecap="round"/>
<line x1="2" y1="-2" x2="14.1768" y2="-2" transform="matrix(0.511242 0.859437 -0.864398 0.502809 359.562 1145.27)" stroke="#5469B5" stroke-width="4" stroke-linecap="round"/>
<line x1="2" y1="-2" x2="10.3559" y2="-2" transform="matrix(-0.803208 0.595699 -0.604297 -0.796759 368.66 1137.09)" stroke="#5469B5" stroke-width="4" stroke-linecap="round"/>
<line x1="2" y1="-2" x2="10.3807" y2="-2" transform="matrix(-0.907338 0.420403 -0.428192 -0.903688 394.908 1153.99)" stroke="#5469B5" stroke-width="4" stroke-linecap="round"/>
<line x1="2" y1="-2" x2="9.12807" y2="-2" transform="matrix(-0.191524 0.981488 -0.982277 -0.187434 385.408 1149.36)" stroke="#5469B5" stroke-width="4" stroke-linecap="round"/>
<line x1="2" y1="-2" x2="16.5819" y2="-2" transform="matrix(-0.992351 -0.123447 0.126198 -0.992005 386.272 1158.89)" stroke="#5469B5" stroke-width="4" stroke-linecap="round"/>
<line x1="2" y1="-2" x2="15.3552" y2="-2" transform="matrix(-0.531582 0.847007 -0.852297 -0.523058 383.675 1159.19)" stroke="#5469B5" stroke-width="4" stroke-linecap="round"/>
<line x1="2" y1="-2" x2="10.375" y2="-2" transform="matrix(-0.884912 -0.465758 0.473956 -0.880548 395.023 1163.87)" stroke="#5469B5" stroke-width="4" stroke-linecap="round"/>
<line x1="2" y1="-2" x2="10.3685" y2="-2" transform="matrix(0.857747 0.514073 -0.52256 0.852603 324.827 1154.11)" stroke="#5469B5" stroke-width="4" stroke-linecap="round"/>
<line x1="2" y1="-2" x2="9.23014" y2="-2" transform="matrix(0.923708 -0.383097 0.390462 0.920619 326.199 1164.5)" stroke="#5469B5" stroke-width="4" stroke-linecap="round"/>
<line x1="2" y1="-2" x2="16.4196" y2="-2" transform="matrix(0.450291 0.892882 -0.896873 0.442288 333.743 1158.5)" stroke="#5469B5" stroke-width="4" stroke-linecap="round"/>
<line x1="2" y1="-2" x2="15.5168" y2="-2" transform="matrix(0.999621 -0.0275385 0.0281616 0.999603 335.436 1160.47)" stroke="#5469B5" stroke-width="4" stroke-linecap="round"/>
<line x1="2" y1="-2" x2="10.2686" y2="-2" transform="matrix(0.0995634 0.995031 -0.995247 0.09738 333.079 1148.54)" stroke="#5469B5" stroke-width="4" stroke-linecap="round"/>
<line x1="2" y1="-2" x2="10.3766" y2="-2" transform="matrix(0.891182 -0.453645 0.461746 0.887012 324.487 1194.78)" stroke="#5469B5" stroke-width="4" stroke-linecap="round"/>
<line x1="2" y1="-2" x2="9.12649" y2="-2" transform="matrix(0.154483 -0.987996 0.988512 0.151141 334.155 1199.05)" stroke="#5469B5" stroke-width="4" stroke-linecap="round"/>
<line x1="2" y1="-2" x2="16.5835" y2="-2" transform="matrix(0.996222 0.0868407 -0.0887917 0.99605 332.932 1189.56)" stroke="#5469B5" stroke-width="4" stroke-linecap="round"/>
<line x1="2" y1="-2" x2="15.8062" y2="-2" transform="matrix(0.514353 -0.857579 0.86259 0.505903 335.517 1189.16)" stroke="#5469B5" stroke-width="4" stroke-linecap="round"/>
<line x1="2" y1="-2" x2="10.3792" y2="-2" transform="matrix(0.901523 0.432731 -0.440644 0.897682 324 1184.91)" stroke="#5469B5" stroke-width="4" stroke-linecap="round"/>
<line x1="2" y1="-2" x2="10.2683" y2="-2" transform="matrix(0.0283033 -0.999599 0.999617 0.0276771 358.616 1215)" stroke="#5469B5" stroke-width="4" stroke-linecap="round"/>
<line x1="2" y1="-2" x2="9.20226" y2="-2" transform="matrix(-0.795246 -0.606287 0.614861 -0.788636 367.068 1208.69)" stroke="#5469B5" stroke-width="4" stroke-linecap="round"/>
<line x1="2" y1="-2" x2="16.9709" y2="-2" transform="matrix(0.558362 -0.829597 0.83532 0.549765 358.067 1205.17)" stroke="#5469B5" stroke-width="4" stroke-linecap="round"/>
<line x1="2" y1="-2" x2="14.1724" y2="-2" transform="matrix(-0.486849 -0.873486 0.878055 -0.47856 358.963 1202.74)" stroke="#5469B5" stroke-width="4" stroke-linecap="round"/>
<line x1="2" y1="-2" x2="10.3595" y2="-2" transform="matrix(0.81951 -0.573065 0.581683 0.813415 349.638 1210.66)" stroke="#5469B5" stroke-width="4" stroke-linecap="round"/>
<line x1="2" y1="-2" x2="10.371" y2="-2" transform="matrix(-0.868215 -0.496188 0.504586 -0.863361 394.057 1194.36)" stroke="#5469B5" stroke-width="4" stroke-linecap="round"/>
<line x1="2" y1="-2" x2="9.22824" y2="-2" transform="matrix(-0.91559 0.402113 -0.409704 -0.912218 392.467 1184.01)" stroke="#5469B5" stroke-width="4" stroke-linecap="round"/>
<line x1="2" y1="-2" x2="17.6629" y2="-2" transform="matrix(-0.413025 -0.91072 0.914141 -0.405397 385.051 1190.16)" stroke="#5469B5" stroke-width="4" stroke-linecap="round"/>
<line x1="2" y1="-2" x2="15.1425" y2="-2" transform="matrix(-0.999748 0.0224559 -0.0229641 -0.999736 383.316 1188.23)" stroke="#5469B5" stroke-width="4" stroke-linecap="round"/>
<line x1="2" y1="-2" x2="10.2693" y2="-2" transform="matrix(-0.120501 -0.992713 0.993029 -0.11787 385.925 1200.11)" stroke="#5469B5" stroke-width="4" stroke-linecap="round"/>
<line x1="122.037" y1="992.977" x2="155.57" y2="990.768" stroke="#202B52" stroke-width="2"/>
<line x1="128.477" y1="979.238" x2="149.832" y2="1005.67" stroke="#202B52" stroke-width="2"/>
<line x1="144.124" y1="978.217" x2="132.931" y2="1006.43" stroke="#202B52" stroke-width="2"/>
<line x1="105.63" y1="977.126" x2="112.493" y2="979.848" stroke="#202B52" stroke-width="4" stroke-linecap="round"/>
<line x1="106.498" y1="984.779" x2="111.84" y2="981.398" stroke="#202B52" stroke-width="4" stroke-linecap="round"/>
<line x1="114.572" y1="981.338" x2="122.261" y2="991.887" stroke="#202B52" stroke-width="4" stroke-linecap="round"/>
<line x1="115.284" y1="980.161" x2="126.121" y2="978.478" stroke="#202B52" stroke-width="4" stroke-linecap="round"/>
<line x1="112.093" y1="973.291" x2="114.033" y2="980.415" stroke="#202B52" stroke-width="4" stroke-linecap="round"/>
<line x1="135.212" y1="957.156" x2="135.658" y2="964.525" stroke="#202B52" stroke-width="4" stroke-linecap="round"/>
<line x1="128.648" y1="961.19" x2="133.977" y2="964.592" stroke="#202B52" stroke-width="4" stroke-linecap="round"/>
<line x1="135.192" y1="967.039" x2="128.901" y2="978.478" stroke="#202B52" stroke-width="4" stroke-linecap="round"/>
<line x1="136.58" y1="967.059" x2="143.757" y2="976.744" stroke="#202B52" stroke-width="4" stroke-linecap="round"/>
<line x1="141.426" y1="961.382" x2="135.798" y2="966.161" stroke="#202B52" stroke-width="4" stroke-linecap="round"/>
<line x1="109.876" y1="1012.3" x2="115.762" y2="1007.84" stroke="#202B52" stroke-width="4" stroke-linecap="round"/>
<line x1="116.873" y1="1015.52" x2="116.75" y2="1009.2" stroke="#202B52" stroke-width="4" stroke-linecap="round"/>
<line x1="118.114" y1="1006.83" x2="131.12" y2="1005.73" stroke="#202B52" stroke-width="4" stroke-linecap="round"/>
<line x1="117.371" y1="1005.66" x2="121.508" y2="994.318" stroke="#202B52" stroke-width="4" stroke-linecap="round"/>
<line x1="109.948" y1="1004.78" x2="117.046" y2="1006.82" stroke="#202B52" stroke-width="4" stroke-linecap="round"/>
<line x1="142.263" y1="1027.51" x2="141.542" y2="1020.16" stroke="#202B52" stroke-width="4" stroke-linecap="round"/>
<line x1="148.672" y1="1023.23" x2="143.22" y2="1020.03" stroke="#202B52" stroke-width="4" stroke-linecap="round"/>
<line x1="141.915" y1="1017.63" x2="147.775" y2="1005.96" stroke="#202B52" stroke-width="4" stroke-linecap="round"/>
<line x1="140.533" y1="1017.61" x2="132.906" y2="1007.74" stroke="#202B52" stroke-width="4" stroke-linecap="round"/>
<line x1="135.895" y1="1023.51" x2="141.342" y2="1018.53" stroke="#202B52" stroke-width="4" stroke-linecap="round"/>
<line x1="170.815" y1="1008.16" x2="164.031" y2="1005.25" stroke="#202B52" stroke-width="4" stroke-linecap="round"/>
<line x1="170.162" y1="1000.49" x2="164.727" y2="1003.72" stroke="#202B52" stroke-width="4" stroke-linecap="round"/>
<line x1="161.992" y1="1003.71" x2="154.279" y2="992.58" stroke="#202B52" stroke-width="4" stroke-linecap="round"/>
<line x1="161.25" y1="1004.86" x2="150.369" y2="1006.24" stroke="#202B52" stroke-width="4" stroke-linecap="round"/>
<line x1="164.246" y1="1011.81" x2="162.507" y2="1004.64" stroke="#202B52" stroke-width="4" stroke-linecap="round"/>
<line x1="167.307" y1="972.632" x2="161.515" y2="977.211" stroke="#202B52" stroke-width="4" stroke-linecap="round"/>
<line x1="160.245" y1="969.554" x2="160.5" y2="975.87" stroke="#202B52" stroke-width="4" stroke-linecap="round"/>
<line x1="159.053" y1="978.151" x2="144.855" y2="978.775" stroke="#202B52" stroke-width="4" stroke-linecap="round"/>
<line x1="159.887" y1="979.453" x2="155.81" y2="990.452" stroke="#202B52" stroke-width="4" stroke-linecap="round"/>
<line x1="167.393" y1="980.147" x2="160.254" y2="978.261" stroke="#202B52" stroke-width="4" stroke-linecap="round"/>
</svg>
