<svg width="368" height="1858" viewBox="0 0 368 1858" fill="none" xmlns="http://www.w3.org/2000/svg">
<path d="M317.122 49.8459C304.124 49.8459 292.639 55.1874 279.952 57.1393C269.093 58.8099 258.585 61.9027 247.527 62.4556C241.72 62.746 236.123 62.6304 230.348 63.2904C223.612 64.0602 217.045 65.9157 210.401 67.2446C205.684 68.1881 200.902 69.6172 196.122 69.6172" stroke="#7989B2" stroke-width="5" stroke-linecap="round"/>
<path d="M241.017 3.41504C241.017 16.4128 246.359 27.8977 248.311 40.585C249.981 51.4439 253.074 61.9515 253.627 73.0098C253.917 78.817 253.802 84.4137 254.462 90.1888C255.232 96.9251 257.087 103.491 258.416 110.136C259.359 114.853 260.789 119.634 260.789 124.415" stroke="#7989B2" stroke-width="5" stroke-linecap="round"/>
<path d="M285.699 12.2006C276.448 21.3302 272.025 33.1992 264.365 43.5C257.809 52.3164 252.502 61.8983 245.02 70.0592C241.09 74.3448 237.025 78.1937 233.378 82.7199C229.124 87.9994 225.754 93.9321 221.958 99.5452C219.263 103.53 216.863 107.906 213.461 111.264" stroke="#7989B2" stroke-width="5" stroke-linecap="round"/>
<path d="M305.521 94.3584C295.823 85.7045 283.697 82.0433 272.931 75.0525C263.717 69.0691 253.817 64.3808 245.198 57.4307C240.672 53.7809 236.573 49.9684 231.825 46.6158C226.286 42.7052 220.151 39.7179 214.309 36.2855C210.161 33.8487 205.642 31.7315 202.075 28.5486" stroke="#7989B2" stroke-width="5" stroke-linecap="round"/>
<path d="M235.358 105.866C235.059 103.171 233.264 100.506 232.409 97.9412C231.897 96.4067 231.32 94.9285 230.881 93.3922C230.554 92.2491 229.601 91.0659 229.601 89.8739" stroke="#7989B2" stroke-width="5" stroke-linecap="round"/>
<path d="M226.083 111.623C226.083 108.108 223.403 104.342 221.926 101.388" stroke="#7989B2" stroke-width="5" stroke-linecap="round"/>
<path d="M228.962 88.2754C223.604 88.2754 218.648 87.3159 213.289 87.3159" stroke="#7989B2" stroke-width="5" stroke-linecap="round"/>
<path d="M220.646 101.069C219.038 101.069 215.55 101.721 214.09 100.909C213.151 100.388 209.844 100.893 209.452 100.109" stroke="#7989B2" stroke-width="5" stroke-linecap="round"/>
<path d="M263.873 17.9189C264.14 20.6177 265.902 23.3048 266.726 25.8794C267.218 27.4201 267.778 28.9051 268.198 30.4467C268.511 31.5937 269.449 32.7885 269.434 33.9803" stroke="#7989B2" stroke-width="5" stroke-linecap="round"/>
<path d="M273.218 12.2744C273.175 15.789 275.809 19.5873 277.25 22.5595" stroke="#7989B2" stroke-width="5" stroke-linecap="round"/>
<path d="M270.055 35.5869C275.412 35.6524 280.356 36.6724 285.714 36.7378" stroke="#7989B2" stroke-width="5" stroke-linecap="round"/>
<path d="M278.526 22.8959C280.135 22.9155 283.629 22.3066 285.08 23.1359C286.012 23.6685 289.325 23.2034 289.708 23.9921" stroke="#7989B2" stroke-width="5" stroke-linecap="round"/>
<path d="M298.553 37.7334C296.947 39.9191 296.463 43.096 295.355 45.5616C294.692 47.0369 294.116 48.5157 293.398 49.9432C292.864 51.0054 292.763 52.5212 291.956 53.3981" stroke="#7989B2" stroke-width="5" stroke-linecap="round"/>
<path d="M306.388 40.876C304.007 43.4618 303.428 48.048 302.514 51.222" stroke="#7989B2" stroke-width="5" stroke-linecap="round"/>
<path d="M291.344 55.0068C295.286 58.6359 298.282 62.6986 302.224 66.3282" stroke="#7989B2" stroke-width="5" stroke-linecap="round"/>
<path d="M303.239 52.3237C304.422 53.4134 307.429 55.296 307.954 56.8825C308.291 57.9014 311.067 59.7698 310.824 60.612" stroke="#7989B2" stroke-width="5" stroke-linecap="round"/>
<path d="M297.754 71.5078C295.156 72.2857 292.856 74.5299 290.486 75.8306C289.068 76.6089 287.718 77.4423 286.285 78.1496C285.219 78.6759 284.226 79.8253 283.053 80.039" stroke="#7989B2" stroke-width="5" stroke-linecap="round"/>
<path d="M304.189 80.999C300.731 81.6292 297.507 84.9417 294.865 86.9247" stroke="#7989B2" stroke-width="5" stroke-linecap="round"/>
<path d="M281.596 80.9551C282.557 86.2261 282.501 91.2738 283.462 96.5456" stroke="#7989B2" stroke-width="5" stroke-linecap="round"/>
<path d="M294.78 88.2387C295.068 89.8216 296.335 93.1353 295.798 94.718C295.454 95.7344 296.544 98.8977 295.843 99.4239" stroke="#7989B2" stroke-width="5" stroke-linecap="round"/>
<path d="M272.187 103.229C269.988 101.642 266.807 101.184 264.332 100.097C262.851 99.4461 261.368 98.8822 259.934 98.1765C258.868 97.6513 257.351 97.5634 256.468 96.7634" stroke="#7989B2" stroke-width="5" stroke-linecap="round"/>
<path d="M269.556 114.622C266.951 112.263 262.36 111.723 259.178 110.835" stroke="#7989B2" stroke-width="5" stroke-linecap="round"/>
<path d="M254.855 96.165C251.259 100.137 247.221 103.166 243.625 107.139" stroke="#7989B2" stroke-width="5" stroke-linecap="round"/>
<path d="M258.084 111.567C257.004 112.76 255.147 115.782 253.565 116.32C252.549 116.666 250.703 119.457 249.859 119.222" stroke="#7989B2" stroke-width="5" stroke-linecap="round"/>
<path d="M228.884 21.4512C231.06 23.0694 234.234 23.5727 236.693 24.6954C238.165 25.3672 239.64 25.9521 241.063 26.6782C242.122 27.2185 243.638 27.328 244.51 28.1405" stroke="#7989B2" stroke-width="5" stroke-linecap="round"/>
<path d="M230.995 10.7402C233.567 13.1363 238.149 13.7419 241.318 14.6751" stroke="#7989B2" stroke-width="5" stroke-linecap="round"/>
<path d="M246.115 28.7617C249.767 24.8416 253.848 21.8697 257.5 17.9491" stroke="#7989B2" stroke-width="5" stroke-linecap="round"/>
<path d="M242.424 13.9568C243.521 12.7796 245.421 9.78406 247.01 9.26849C248.031 8.93738 249.916 6.17274 250.757 6.42036" stroke="#7989B2" stroke-width="5" stroke-linecap="round"/>
<path d="M206.674 47.2998C209.362 46.9398 211.986 45.0849 214.531 44.1727C216.053 43.6268 217.518 43.016 219.044 42.5427C220.179 42.1904 221.341 41.2113 222.533 41.1845" stroke="#7989B2" stroke-width="5" stroke-linecap="round"/>
<path d="M200.708 38.1562C204.222 38.0772 207.927 35.3125 210.847 33.7692" stroke="#7989B2" stroke-width="5" stroke-linecap="round"/>
<path d="M224.117 40.5088C223.996 35.1523 224.844 30.176 224.724 24.8188" stroke="#7989B2" stroke-width="5" stroke-linecap="round"/>
<path d="M211.139 32.4837C211.103 30.8752 210.373 27.4036 211.151 25.9249C211.651 24.9753 211.072 21.6799 211.847 21.2704" stroke="#7989B2" stroke-width="5" stroke-linecap="round"/>
<path d="M210.664 79.4795C212.18 77.7568 212.827 75.1146 213.945 73.1188C214.615 71.9246 215.211 70.721 215.923 69.5711C216.453 68.7155 216.651 67.4451 217.397 66.7662" stroke="#7989B2" stroke-width="5" stroke-linecap="round"/>
<path d="M201.776 76.9531C203.977 74.9511 204.807 71.1278 205.816 68.5202" stroke="#7989B2" stroke-width="5" stroke-linecap="round"/>
<path d="M218.034 65.457C214.982 62.1025 212.76 58.4532 209.708 55.0982" stroke="#7989B2" stroke-width="5" stroke-linecap="round"/>
<path d="M205.288 67.5368C204.371 66.5295 201.977 64.7174 201.653 63.3406C201.445 62.4563 199.245 60.6734 199.512 59.9815" stroke="#7989B2" stroke-width="5" stroke-linecap="round"/>
<line x1="65.1216" y1="1511.42" x2="65.1216" y2="1380.42" stroke="#202B52" stroke-width="6" stroke-linecap="round"/>
<line x1="84.9259" y1="1509.04" x2="66.7509" y2="1495.61" stroke="#202B52" stroke-width="6" stroke-linecap="round"/>
<line x1="45.7509" y1="1508.22" x2="63.9259" y2="1494.79" stroke="#202B52" stroke-width="6" stroke-linecap="round"/>
<line x1="24.4101" y1="1494.11" x2="26.8189" y2="1471.64" stroke="#202B52" stroke-width="6" stroke-linecap="round"/>
<line x1="5.32735" y1="1459.89" x2="26.1036" y2="1468.78" stroke="#202B52" stroke-width="6" stroke-linecap="round"/>
<line x1="3.38184" y1="1432.48" x2="24.1882" y2="1423.66" stroke="#202B52" stroke-width="6" stroke-linecap="round"/>
<line x1="24.0026" y1="1399.16" x2="26.335" y2="1421.64" stroke="#202B52" stroke-width="6" stroke-linecap="round"/>
<line x1="46.3694" y1="1385.06" x2="64.7349" y2="1398.23" stroke="#202B52" stroke-width="6" stroke-linecap="round"/>
<line x1="85.5524" y1="1385.32" x2="67.5717" y2="1399.01" stroke="#202B52" stroke-width="6" stroke-linecap="round"/>
<line x1="107.725" y1="1399.78" x2="106.28" y2="1422.34" stroke="#202B52" stroke-width="6" stroke-linecap="round"/>
<line x1="128.254" y1="1433.16" x2="107.116" y2="1425.16" stroke="#202B52" stroke-width="6" stroke-linecap="round"/>
<line x1="127.476" y1="1461.67" x2="106.549" y2="1470.2" stroke="#202B52" stroke-width="6" stroke-linecap="round"/>
<line x1="106.392" y1="1494.69" x2="104.374" y2="1472.18" stroke="#202B52" stroke-width="6" stroke-linecap="round"/>
<line x1="67.519" y1="1475.41" x2="91.1157" y2="1464.02" stroke="#202B52" stroke-width="6" stroke-linecap="round"/>
<line x1="39.3569" y1="1429.36" x2="64.0628" y2="1416.18" stroke="#202B52" stroke-width="6" stroke-linecap="round"/>
<line x1="38.1216" y1="1461.42" x2="38.1216" y2="1432.42" stroke="#202B52" stroke-width="6" stroke-linecap="round"/>
<line x1="93.1216" y1="1462.42" x2="93.1216" y2="1433.42" stroke="#202B52" stroke-width="6" stroke-linecap="round"/>
<line x1="64.0787" y1="1476.7" x2="40.408" y2="1464.46" stroke="#202B52" stroke-width="6" stroke-linecap="round"/>
<line x1="93.0798" y1="1430.7" x2="67.4115" y2="1417.46" stroke="#202B52" stroke-width="6" stroke-linecap="round"/>
<line x1="10.0347" y1="1480.31" x2="123.016" y2="1414" stroke="#202B52" stroke-width="6" stroke-linecap="round"/>
<line x1="9.32491" y1="1413.6" x2="122.068" y2="1480.31" stroke="#202B52" stroke-width="6" stroke-linecap="round"/>
<line x1="306.348" y1="1166.14" x2="180.028" y2="1200.84" stroke="#5469B5" stroke-width="6" stroke-linecap="round"/>
<line x1="298.816" y1="1147.67" x2="290.676" y2="1168.76" stroke="#5469B5" stroke-width="6" stroke-linecap="round"/>
<line x1="308.397" y1="1185.66" x2="290.629" y2="1171.7" stroke="#5469B5" stroke-width="6" stroke-linecap="round"/>
<line x1="300.448" y1="1209.98" x2="278.14" y2="1213.61" stroke="#5469B5" stroke-width="6" stroke-linecap="round"/>
<line x1="272.501" y1="1237.45" x2="275.576" y2="1215.06" stroke="#5469B5" stroke-width="6" stroke-linecap="round"/>
<line x1="246.588" y1="1246.58" x2="232.567" y2="1228.86" stroke="#5469B5" stroke-width="6" stroke-linecap="round"/>
<line x1="208.997" y1="1235.52" x2="230.057" y2="1227.32" stroke="#5469B5" stroke-width="6" stroke-linecap="round"/>
<line x1="189.47" y1="1217.69" x2="197.307" y2="1196.49" stroke="#5469B5" stroke-width="6" stroke-linecap="round"/>
<line x1="179.346" y1="1179.84" x2="197.313" y2="1193.55" stroke="#5469B5" stroke-width="6" stroke-linecap="round"/>
<line x1="187.419" y1="1154.63" x2="209.55" y2="1150.05" stroke="#5469B5" stroke-width="6" stroke-linecap="round"/>
<line x1="214.164" y1="1125.99" x2="212.05" y2="1148.49" stroke="#5469B5" stroke-width="6" stroke-linecap="round"/>
<line x1="241.86" y1="1119.19" x2="255.633" y2="1137.11" stroke="#5469B5" stroke-width="6" stroke-linecap="round"/>
<line x1="279.293" y1="1130.77" x2="258.121" y2="1138.68" stroke="#5469B5" stroke-width="6" stroke-linecap="round"/>
<line x1="270.993" y1="1173.36" x2="253.758" y2="1153.63" stroke="#5469B5" stroke-width="6" stroke-linecap="round"/>
<line x1="234.045" y1="1212.72" x2="214.795" y2="1192.39" stroke="#5469B5" stroke-width="6" stroke-linecap="round"/>
<line x1="265.286" y1="1205.42" x2="237.322" y2="1213.1" stroke="#5469B5" stroke-width="6" stroke-linecap="round"/>
<line x1="251.681" y1="1152.12" x2="223.717" y2="1159.8" stroke="#5469B5" stroke-width="6" stroke-linecap="round"/>
<line x1="273.151" y1="1176.34" x2="267.615" y2="1202.41" stroke="#5469B5" stroke-width="6" stroke-linecap="round"/>
<line x1="221.115" y1="1160.56" x2="215.14" y2="1188.82" stroke="#5469B5" stroke-width="6" stroke-linecap="round"/>
<line x1="290.945" y1="1227.5" x2="197.082" y2="1136.12" stroke="#5469B5" stroke-width="6" stroke-linecap="round"/>
<line x1="226.803" y1="1245.85" x2="261.265" y2="1119.47" stroke="#5469B5" stroke-width="6" stroke-linecap="round"/>
<line x1="140.122" y1="341.415" x2="140.122" y2="210.415" stroke="#5469B5" stroke-width="6" stroke-linecap="round"/>
<line x1="159.926" y1="339.044" x2="141.751" y2="325.611" stroke="#5469B5" stroke-width="6" stroke-linecap="round"/>
<line x1="120.751" y1="338.219" x2="138.926" y2="324.786" stroke="#5469B5" stroke-width="6" stroke-linecap="round"/>
<line x1="99.4101" y1="324.112" x2="101.819" y2="301.64" stroke="#5469B5" stroke-width="6" stroke-linecap="round"/>
<line x1="80.3273" y1="289.889" x2="101.104" y2="298.785" stroke="#5469B5" stroke-width="6" stroke-linecap="round"/>
<line x1="78.3818" y1="262.482" x2="99.1882" y2="253.656" stroke="#5469B5" stroke-width="6" stroke-linecap="round"/>
<line x1="99.0026" y1="229.163" x2="101.335" y2="251.643" stroke="#5469B5" stroke-width="6" stroke-linecap="round"/>
<line x1="121.369" y1="215.057" x2="139.735" y2="228.229" stroke="#5469B5" stroke-width="6" stroke-linecap="round"/>
<line x1="160.552" y1="215.321" x2="142.572" y2="229.014" stroke="#5469B5" stroke-width="6" stroke-linecap="round"/>
<line x1="182.725" y1="229.783" x2="181.28" y2="252.338" stroke="#5469B5" stroke-width="6" stroke-linecap="round"/>
<line x1="203.254" y1="263.159" x2="182.116" y2="255.16" stroke="#5469B5" stroke-width="6" stroke-linecap="round"/>
<line x1="202.476" y1="291.668" x2="181.549" y2="300.201" stroke="#5469B5" stroke-width="6" stroke-linecap="round"/>
<line x1="181.392" y1="324.695" x2="179.374" y2="302.184" stroke="#5469B5" stroke-width="6" stroke-linecap="round"/>
<line x1="142.519" y1="305.409" x2="166.116" y2="294.018" stroke="#5469B5" stroke-width="6" stroke-linecap="round"/>
<line x1="114.357" y1="259.356" x2="139.063" y2="246.18" stroke="#5469B5" stroke-width="6" stroke-linecap="round"/>
<line x1="113.122" y1="291.415" x2="113.122" y2="262.415" stroke="#5469B5" stroke-width="6" stroke-linecap="round"/>
<line x1="168.122" y1="292.415" x2="168.122" y2="263.415" stroke="#5469B5" stroke-width="6" stroke-linecap="round"/>
<line x1="139.079" y1="306.701" x2="115.408" y2="294.458" stroke="#5469B5" stroke-width="6" stroke-linecap="round"/>
<line x1="168.08" y1="260.705" x2="142.412" y2="247.457" stroke="#5469B5" stroke-width="6" stroke-linecap="round"/>
<line x1="85.0347" y1="310.309" x2="198.016" y2="244.005" stroke="#5469B5" stroke-width="6" stroke-linecap="round"/>
<line x1="84.3249" y1="243.596" x2="197.068" y2="310.305" stroke="#5469B5" stroke-width="6" stroke-linecap="round"/>
<line x1="288.979" y1="1751.62" x2="314.349" y2="1811.95" stroke="#7989B2" stroke-width="3"/>
<line x1="318.393" y1="1754.34" x2="283.304" y2="1810.44" stroke="#7989B2" stroke-width="3"/>
<line x1="330.611" y1="1782.28" x2="271.561" y2="1779.6" stroke="#7989B2" stroke-width="3"/>
<line x1="307.296" y1="1710.24" x2="306.563" y2="1726.39" stroke="#7989B2" stroke-width="6" stroke-linecap="round"/>
<line x1="293.353" y1="1717.78" x2="304.368" y2="1726.58" stroke="#7989B2" stroke-width="6" stroke-linecap="round"/>
<line x1="305.853" y1="1729.07" x2="290.297" y2="1751.39" stroke="#7989B2" stroke-width="6" stroke-linecap="round"/>
<line x1="307.485" y1="1730.5" x2="318.304" y2="1750.97" stroke="#7989B2" stroke-width="6" stroke-linecap="round"/>
<line x1="319.548" y1="1719.4" x2="306.189" y2="1728.5" stroke="#7989B2" stroke-width="6" stroke-linecap="round"/>
<line x1="364.185" y1="1751.77" x2="349.25" y2="1757.96" stroke="#7989B2" stroke-width="6" stroke-linecap="round"/>
<line x1="351.445" y1="1742.35" x2="348.149" y2="1756.05" stroke="#7989B2" stroke-width="6" stroke-linecap="round"/>
<line x1="346.527" y1="1758.46" x2="319.712" y2="1753.84" stroke="#7989B2" stroke-width="6" stroke-linecap="round"/>
<line x1="346.109" y1="1760.51" x2="331.829" y2="1781.35" stroke="#7989B2" stroke-width="6" stroke-linecap="round"/>
<line x1="361.096" y1="1766.75" x2="347.184" y2="1758.52" stroke="#7989B2" stroke-width="6" stroke-linecap="round"/>
<line x1="244.865" y1="1741.58" x2="258.297" y2="1750.58" stroke="#7989B2" stroke-width="6" stroke-linecap="round"/>
<line x1="244.082" y1="1757.41" x2="257.319" y2="1752.56" stroke="#7989B2" stroke-width="6" stroke-linecap="round"/>
<line x1="260.216" y1="1752.57" x2="271.243" y2="1777.45" stroke="#7989B2" stroke-width="6" stroke-linecap="round"/>
<line x1="262.171" y1="1751.8" x2="287.467" y2="1752.24" stroke="#7989B2" stroke-width="6" stroke-linecap="round"/>
<line x1="259.044" y1="1735.85" x2="259.905" y2="1751.99" stroke="#7989B2" stroke-width="6" stroke-linecap="round"/>
<line x1="238.242" y1="1811.8" x2="252.937" y2="1805.06" stroke="#7989B2" stroke-width="6" stroke-linecap="round"/>
<line x1="251.325" y1="1820.75" x2="254.108" y2="1806.93" stroke="#7989B2" stroke-width="6" stroke-linecap="round"/>
<line x1="255.64" y1="1804.47" x2="282.608" y2="1808.08" stroke="#7989B2" stroke-width="6" stroke-linecap="round"/>
<line x1="256.053" y1="1802.39" x2="270.36" y2="1780.58" stroke="#7989B2" stroke-width="6" stroke-linecap="round"/>
<line x1="240.774" y1="1796.72" x2="254.983" y2="1804.43" stroke="#7989B2" stroke-width="6" stroke-linecap="round"/>
<line x1="293.258" y1="1851.84" x2="294.442" y2="1835.72" stroke="#7989B2" stroke-width="6" stroke-linecap="round"/>
<line x1="307.406" y1="1844.7" x2="296.641" y2="1835.59" stroke="#7989B2" stroke-width="6" stroke-linecap="round"/>
<line x1="295.21" y1="1833.07" x2="311.859" y2="1810.35" stroke="#7989B2" stroke-width="6" stroke-linecap="round"/>
<line x1="293.636" y1="1831.58" x2="283.393" y2="1810.83" stroke="#7989B2" stroke-width="6" stroke-linecap="round"/>
<line x1="281.266" y1="1842.35" x2="294.876" y2="1833.62" stroke="#7989B2" stroke-width="6" stroke-linecap="round"/>
<line x1="356.839" y1="1821.58" x2="343.223" y2="1812.87" stroke="#7989B2" stroke-width="6" stroke-linecap="round"/>
<line x1="357.291" y1="1805.74" x2="344.159" y2="1810.87" stroke="#7989B2" stroke-width="6" stroke-linecap="round"/>
<line x1="341.36" y1="1810.67" x2="330.534" y2="1783.27" stroke="#7989B2" stroke-width="6" stroke-linecap="round"/>
<line x1="339.247" y1="1811.66" x2="314.622" y2="1811.1" stroke="#7989B2" stroke-width="6" stroke-linecap="round"/>
<line x1="342.784" y1="1827.61" x2="341.586" y2="1811.49" stroke="#7989B2" stroke-width="6" stroke-linecap="round"/>
</svg>
